<?xml version="1.0" encoding="UTF-8" standalone="no"?>
<!DOCTYPE svg PUBLIC "-//W3C//DTD SVG 1.1//EN"
 "http://www.w3.org/Graphics/SVG/1.1/DTD/svg11.dtd">
<!-- Generated by graphviz version 2.43.0 (0)
 -->
<!-- Title: BH1750&#45;RP2040&#45;RP3050/BH1750/bh1750.cpp Pages: 1 -->
<svg width="272pt" height="313pt"
 viewBox="0.00 0.00 271.50 313.00" xmlns="http://www.w3.org/2000/svg" xmlns:xlink="http://www.w3.org/1999/xlink">
<g id="graph0" class="graph" transform="scale(1 1) rotate(0) translate(4 309)">
<title>BH1750&#45;RP2040&#45;RP3050/BH1750/bh1750.cpp</title>
<!-- Node1 -->
<g id="Node000001" class="node">
<title>Node1</title>
<g id="a_Node000001"><a xlink:title=" ">
<polygon fill="#999999" stroke="#666666" points="205,-305 69,-305 69,-275 205,-275 205,-305"/>
<text text-anchor="start" x="77" y="-293" font-family="Helvetica,sans-Serif" font-size="10.00">BH1750&#45;RP2040&#45;RP3050</text>
<text text-anchor="middle" x="137" y="-282" font-family="Helvetica,sans-Serif" font-size="10.00">/BH1750/bh1750.cpp</text>
</a>
</g>
</g>
<!-- Node2 -->
<g id="Node000002" class="node">
<title>Node2</title>
<g id="a_Node000002"><a xlink:href="bh1750_8h.html" target="_top" xlink:title=" ">
<polygon fill="white" stroke="#666666" points="139,-239 77,-239 77,-220 139,-220 139,-239"/>
<text text-anchor="middle" x="108" y="-227" font-family="Helvetica,sans-Serif" font-size="10.00">bh1750.h</text>
</a>
</g>
</g>
<!-- Node1&#45;&gt;Node2 -->
<g id="edge1_Node000001_Node000002" class="edge">
<title>Node1&#45;&gt;Node2</title>
<g id="a_edge1_Node000001_Node000002"><a xlink:title=" ">
<path fill="none" stroke="#63b8ff" d="M129.98,-274.84C126.03,-266.87 121.06,-256.84 116.84,-248.33"/>
<polygon fill="#63b8ff" stroke="#63b8ff" points="119.92,-246.67 112.35,-239.27 113.65,-249.78 119.92,-246.67"/>
</a>
</g>
</g>
<!-- Node5 -->
<g id="Node000005" class="node">
<title>Node5</title>
<g id="a_Node000005"><a xlink:href="stdlib_8h.html" target="_top" xlink:title=" ">
<polygon fill="white" stroke="#666666" points="237,-129 161,-129 161,-110 237,-110 237,-129"/>
<text text-anchor="middle" x="199" y="-117" font-family="Helvetica,sans-Serif" font-size="10.00">pico/stdlib.h</text>
</a>
</g>
</g>
<!-- Node1&#45;&gt;Node5 -->
<g id="edge13_Node000001_Node000005" class="edge">
<title>Node1&#45;&gt;Node5</title>
<g id="a_edge13_Node000001_Node000005"><a xlink:title=" ">
<path fill="none" stroke="#63b8ff" d="M142.18,-274.92C153.37,-244.52 179.78,-172.73 192.26,-138.83"/>
<polygon fill="#63b8ff" stroke="#63b8ff" points="195.61,-139.85 195.78,-129.25 189.04,-137.43 195.61,-139.85"/>
</a>
</g>
</g>
<!-- Node3 -->
<g id="Node000003" class="node">
<title>Node3</title>
<g id="a_Node000003"><a xlink:title=" ">
<polygon fill="#e0e0e0" stroke="#999999" points="50,-19 0,-19 0,0 50,0 50,-19"/>
<text text-anchor="middle" x="25" y="-7" font-family="Helvetica,sans-Serif" font-size="10.00">cstdint</text>
</a>
</g>
</g>
<!-- Node2&#45;&gt;Node3 -->
<g id="edge2_Node000002_Node000003" class="edge">
<title>Node2&#45;&gt;Node3</title>
<g id="a_edge2_Node000002_Node000003"><a xlink:title=" ">
<path fill="none" stroke="#63b8ff" d="M98.91,-219.88C82.49,-203.74 47.98,-167.11 31,-129 16.38,-96.19 18.89,-53.09 21.98,-28.95"/>
<polygon fill="#63b8ff" stroke="#63b8ff" points="25.45,-29.42 23.43,-19.02 18.52,-28.41 25.45,-29.42"/>
</a>
</g>
</g>
<!-- Node4 -->
<g id="Node000004" class="node">
<title>Node4</title>
<g id="a_Node000004"><a xlink:href="I2C_8h.html" target="_top" xlink:title="Interface C++ simples para o periférico I2C do RP2040/RP2350.">
<polygon fill="white" stroke="#666666" points="128.5,-184 87.5,-184 87.5,-165 128.5,-165 128.5,-184"/>
<text text-anchor="middle" x="108" y="-172" font-family="Helvetica,sans-Serif" font-size="10.00">I2C.h</text>
</a>
</g>
</g>
<!-- Node2&#45;&gt;Node4 -->
<g id="edge3_Node000002_Node000004" class="edge">
<title>Node2&#45;&gt;Node4</title>
<g id="a_edge3_Node000002_Node000004"><a xlink:title=" ">
<path fill="none" stroke="#63b8ff" d="M108,-219.75C108,-212.8 108,-202.85 108,-194.13"/>
<polygon fill="#63b8ff" stroke="#63b8ff" points="111.5,-194.09 108,-184.09 104.5,-194.09 111.5,-194.09"/>
</a>
</g>
</g>
<!-- Node4&#45;&gt;Node3 -->
<g id="edge12_Node000004_Node000003" class="edge">
<title>Node4&#45;&gt;Node3</title>
<g id="a_edge12_Node000004_Node000003"><a xlink:title=" ">
<path fill="none" stroke="#63b8ff" d="M87.92,-164.87C73.32,-157.52 54.37,-145.5 44,-129 24.57,-98.08 22.84,-53.97 23.68,-29.21"/>
<polygon fill="#63b8ff" stroke="#63b8ff" points="27.18,-29.2 24.21,-19.03 20.19,-28.83 27.18,-29.2"/>
</a>
</g>
</g>
<!-- Node4&#45;&gt;Node5 -->
<g id="edge4_Node000004_Node000005" class="edge">
<title>Node4&#45;&gt;Node5</title>
<g id="a_edge4_Node000004_Node000005"><a xlink:title=" ">
<path fill="none" stroke="#63b8ff" d="M122.62,-164.98C136.86,-156.69 158.75,-143.94 175.45,-134.22"/>
<polygon fill="#63b8ff" stroke="#63b8ff" points="177.23,-137.23 184.11,-129.17 173.71,-131.18 177.23,-137.23"/>
</a>
</g>
</g>
<!-- Node7 -->
<g id="Node000007" class="node">
<title>Node7</title>
<g id="a_Node000007"><a xlink:title=" ">
<polygon fill="#e0e0e0" stroke="#999999" points="263.5,-19 210.5,-19 210.5,0 263.5,0 263.5,-19"/>
<text text-anchor="middle" x="237" y="-7" font-family="Helvetica,sans-Serif" font-size="10.00">cstddef</text>
</a>
</g>
</g>
<!-- Node4&#45;&gt;Node7 -->
<g id="edge11_Node000004_Node000007" class="edge">
<title>Node4&#45;&gt;Node7</title>
<g id="a_edge11_Node000004_Node000007"><a xlink:title=" ">
<path fill="none" stroke="#63b8ff" d="M128.65,-173.79C160.02,-172.98 218.88,-166.24 246,-129 267.57,-99.38 254.88,-53.81 245.08,-28.69"/>
<polygon fill="#63b8ff" stroke="#63b8ff" points="248.24,-27.17 241.17,-19.28 241.78,-29.86 248.24,-27.17"/>
</a>
</g>
</g>
<!-- Node9 -->
<g id="Node000009" class="node">
<title>Node9</title>
<g id="a_Node000009"><a xlink:href="i2c_8h.html" target="_top" xlink:title=" ">
<polygon fill="white" stroke="#666666" points="142.5,-129 53.5,-129 53.5,-110 142.5,-110 142.5,-129"/>
<text text-anchor="middle" x="98" y="-117" font-family="Helvetica,sans-Serif" font-size="10.00">hardware/i2c.h</text>
</a>
</g>
</g>
<!-- Node4&#45;&gt;Node9 -->
<g id="edge9_Node000004_Node000009" class="edge">
<title>Node4&#45;&gt;Node9</title>
<g id="a_edge9_Node000004_Node000009"><a xlink:title=" ">
<path fill="none" stroke="#63b8ff" d="M106.35,-164.75C105.04,-157.8 103.16,-147.85 101.52,-139.13"/>
<polygon fill="#63b8ff" stroke="#63b8ff" points="104.91,-138.27 99.62,-129.09 98.04,-139.56 104.91,-138.27"/>
</a>
</g>
</g>
<!-- Node6 -->
<g id="Node000006" class="node">
<title>Node6</title>
<g id="a_Node000006"><a xlink:href="pico__sdk__stubs_8h.html" target="_top" xlink:title=" ">
<polygon fill="white" stroke="#666666" points="199.5,-74 90.5,-74 90.5,-55 199.5,-55 199.5,-74"/>
<text text-anchor="middle" x="145" y="-62" font-family="Helvetica,sans-Serif" font-size="10.00">../pico_sdk_stubs.h</text>
</a>
</g>
</g>
<!-- Node5&#45;&gt;Node6 -->
<g id="edge5_Node000005_Node000006" class="edge">
<title>Node5&#45;&gt;Node6</title>
<g id="a_edge5_Node000005_Node000006"><a xlink:title=" ">
<path fill="none" stroke="#63b8ff" d="M190.08,-109.75C182.22,-102.03 170.57,-90.6 161.08,-81.28"/>
<polygon fill="#63b8ff" stroke="#63b8ff" points="163.34,-78.6 153.75,-74.09 158.44,-83.59 163.34,-78.6"/>
</a>
</g>
</g>
<!-- Node6&#45;&gt;Node3 -->
<g id="edge6_Node000006_Node000003" class="edge">
<title>Node6&#45;&gt;Node3</title>
<g id="a_edge6_Node000006_Node000003"><a xlink:title=" ">
<path fill="none" stroke="#63b8ff" d="M125.72,-54.98C106.33,-46.42 76.19,-33.11 53.93,-23.28"/>
<polygon fill="#63b8ff" stroke="#63b8ff" points="55.19,-20.01 44.63,-19.17 52.36,-26.41 55.19,-20.01"/>
</a>
</g>
</g>
<!-- Node6&#45;&gt;Node7 -->
<g id="edge7_Node000006_Node000007" class="edge">
<title>Node6&#45;&gt;Node7</title>
<g id="a_edge7_Node000006_Node000007"><a xlink:title=" ">
<path fill="none" stroke="#63b8ff" d="M159.78,-54.98C174.18,-46.69 196.31,-33.94 213.19,-24.22"/>
<polygon fill="#63b8ff" stroke="#63b8ff" points="215.03,-27.19 221.95,-19.17 211.54,-21.13 215.03,-27.19"/>
</a>
</g>
</g>
<!-- Node8 -->
<g id="Node000008" class="node">
<title>Node8</title>
<g id="a_Node000008"><a xlink:title=" ">
<polygon fill="#e0e0e0" stroke="#999999" points="164,-19 126,-19 126,0 164,0 164,-19"/>
<text text-anchor="middle" x="145" y="-7" font-family="Helvetica,sans-Serif" font-size="10.00">map</text>
</a>
</g>
</g>
<!-- Node6&#45;&gt;Node8 -->
<g id="edge8_Node000006_Node000008" class="edge">
<title>Node6&#45;&gt;Node8</title>
<g id="a_edge8_Node000006_Node000008"><a xlink:title=" ">
<path fill="none" stroke="#63b8ff" d="M145,-54.75C145,-47.8 145,-37.85 145,-29.13"/>
<polygon fill="#63b8ff" stroke="#63b8ff" points="148.5,-29.09 145,-19.09 141.5,-29.09 148.5,-29.09"/>
</a>
</g>
</g>
<!-- Node9&#45;&gt;Node6 -->
<g id="edge10_Node000009_Node000006" class="edge">
<title>Node9&#45;&gt;Node6</title>
<g id="a_edge10_Node000009_Node000006"><a xlink:title=" ">
<path fill="none" stroke="#63b8ff" d="M105.76,-109.75C112.47,-102.18 122.34,-91.05 130.51,-81.84"/>
<polygon fill="#63b8ff" stroke="#63b8ff" points="133.37,-83.89 137.38,-74.09 128.13,-79.25 133.37,-83.89"/>
</a>
</g>
</g>
</g>
</svg>
