<?xml version="1.0" encoding="UTF-8" standalone="no"?>
<!DOCTYPE svg PUBLIC "-//W3C//DTD SVG 1.1//EN"
 "http://www.w3.org/Graphics/SVG/1.1/DTD/svg11.dtd">
<!-- Generated by graphviz version 2.43.0 (0)
 -->
<!-- Title: BH1750&#45;RP2040&#45;RP3050/main.cpp Pages: 1 -->
<svg width="290pt" height="313pt"
 viewBox="0.00 0.00 290.00 313.00" xmlns="http://www.w3.org/2000/svg" xmlns:xlink="http://www.w3.org/1999/xlink">
<g id="graph0" class="graph" transform="scale(1 1) rotate(0) translate(4 309)">
<title>BH1750&#45;RP2040&#45;RP3050/main.cpp</title>
<!-- Node1 -->
<g id="Node000001" class="node">
<title>Node1</title>
<g id="a_Node000001"><a xlink:title=" ">
<polygon fill="#999999" stroke="#666666" points="180,-305 44,-305 44,-275 180,-275 180,-305"/>
<text text-anchor="start" x="52" y="-293" font-family="Helvetica,sans-Serif" font-size="10.00">BH1750&#45;RP2040&#45;RP3050</text>
<text text-anchor="middle" x="112" y="-282" font-family="Helvetica,sans-Serif" font-size="10.00">/main.cpp</text>
</a>
</g>
</g>
<!-- Node2 -->
<g id="Node000002" class="node">
<title>Node2</title>
<g id="a_Node000002"><a xlink:title=" ">
<polygon fill="#e0e0e0" stroke="#999999" points="65,-239 19,-239 19,-220 65,-220 65,-239"/>
<text text-anchor="middle" x="42" y="-227" font-family="Helvetica,sans-Serif" font-size="10.00">cstdio</text>
</a>
</g>
</g>
<!-- Node1&#45;&gt;Node2 -->
<g id="edge1_Node000001_Node000002" class="edge">
<title>Node1&#45;&gt;Node2</title>
<g id="a_edge1_Node000001_Node000002"><a xlink:title=" ">
<path fill="none" stroke="#63b8ff" d="M95.05,-274.84C84.58,-266.09 71.14,-254.85 60.41,-245.88"/>
<polygon fill="#63b8ff" stroke="#63b8ff" points="62.41,-242.99 52.49,-239.27 57.92,-248.36 62.41,-242.99"/>
</a>
</g>
</g>
<!-- Node3 -->
<g id="Node000003" class="node">
<title>Node3</title>
<g id="a_Node000003"><a xlink:href="stdlib_8h.html" target="_top" xlink:title=" ">
<polygon fill="white" stroke="#666666" points="76,-129 0,-129 0,-110 76,-110 76,-129"/>
<text text-anchor="middle" x="38" y="-117" font-family="Helvetica,sans-Serif" font-size="10.00">pico/stdlib.h</text>
</a>
</g>
</g>
<!-- Node1&#45;&gt;Node3 -->
<g id="edge2_Node000001_Node000003" class="edge">
<title>Node1&#45;&gt;Node3</title>
<g id="a_edge2_Node000001_Node000003"><a xlink:title=" ">
<path fill="none" stroke="#63b8ff" d="M105.82,-274.92C92.47,-244.52 60.94,-172.73 46.05,-138.83"/>
<polygon fill="#63b8ff" stroke="#63b8ff" points="49.07,-137 41.84,-129.25 42.66,-139.82 49.07,-137"/>
</a>
</g>
</g>
<!-- Node8 -->
<g id="Node000008" class="node">
<title>Node8</title>
<g id="a_Node000008"><a xlink:href="I2C_8h.html" target="_top" xlink:title="Interface C++ simples para o periférico I2C do RP2040/RP2350.">
<polygon fill="white" stroke="#666666" points="196.5,-184 155.5,-184 155.5,-165 196.5,-165 196.5,-184"/>
<text text-anchor="middle" x="176" y="-172" font-family="Helvetica,sans-Serif" font-size="10.00">I2C.h</text>
</a>
</g>
</g>
<!-- Node1&#45;&gt;Node8 -->
<g id="edge7_Node000001_Node000008" class="edge">
<title>Node1&#45;&gt;Node8</title>
<g id="a_edge7_Node000001_Node000008"><a xlink:title=" ">
<path fill="none" stroke="#63b8ff" d="M119.61,-274.93C127.21,-260.95 139.27,-238.91 150,-220 155.08,-211.05 160.84,-201.16 165.65,-192.98"/>
<polygon fill="#63b8ff" stroke="#63b8ff" points="168.69,-194.72 170.75,-184.33 162.66,-191.16 168.69,-194.72"/>
</a>
</g>
</g>
<!-- Node10 -->
<g id="Node000010" class="node">
<title>Node10</title>
<g id="a_Node000010"><a xlink:href="bh1750_8h.html" target="_top" xlink:title=" ">
<polygon fill="white" stroke="#666666" points="262.5,-239 159.5,-239 159.5,-220 262.5,-220 262.5,-239"/>
<text text-anchor="middle" x="211" y="-227" font-family="Helvetica,sans-Serif" font-size="10.00">BH1750/bh1750.h</text>
</a>
</g>
</g>
<!-- Node1&#45;&gt;Node10 -->
<g id="edge13_Node000001_Node000010" class="edge">
<title>Node1&#45;&gt;Node10</title>
<g id="a_edge13_Node000001_Node000010"><a xlink:title=" ">
<path fill="none" stroke="#63b8ff" d="M135.71,-274.99C151.35,-265.75 171.74,-253.7 187.36,-244.47"/>
<polygon fill="#63b8ff" stroke="#63b8ff" points="189.55,-247.24 196.38,-239.14 185.99,-241.21 189.55,-247.24"/>
</a>
</g>
</g>
<!-- Node4 -->
<g id="Node000004" class="node">
<title>Node4</title>
<g id="a_Node000004"><a xlink:href="pico__sdk__stubs_8h.html" target="_top" xlink:title=" ">
<polygon fill="white" stroke="#666666" points="183.5,-74 74.5,-74 74.5,-55 183.5,-55 183.5,-74"/>
<text text-anchor="middle" x="129" y="-62" font-family="Helvetica,sans-Serif" font-size="10.00">../pico_sdk_stubs.h</text>
</a>
</g>
</g>
<!-- Node3&#45;&gt;Node4 -->
<g id="edge3_Node000003_Node000004" class="edge">
<title>Node3&#45;&gt;Node4</title>
<g id="a_edge3_Node000003_Node000004"><a xlink:title=" ">
<path fill="none" stroke="#63b8ff" d="M52.62,-109.98C66.86,-101.69 88.75,-88.94 105.45,-79.22"/>
<polygon fill="#63b8ff" stroke="#63b8ff" points="107.23,-82.23 114.11,-74.17 103.71,-76.18 107.23,-82.23"/>
</a>
</g>
</g>
<!-- Node5 -->
<g id="Node000005" class="node">
<title>Node5</title>
<g id="a_Node000005"><a xlink:title=" ">
<polygon fill="#e0e0e0" stroke="#999999" points="282,-19 232,-19 232,0 282,0 282,-19"/>
<text text-anchor="middle" x="257" y="-7" font-family="Helvetica,sans-Serif" font-size="10.00">cstdint</text>
</a>
</g>
</g>
<!-- Node4&#45;&gt;Node5 -->
<g id="edge4_Node000004_Node000005" class="edge">
<title>Node4&#45;&gt;Node5</title>
<g id="a_edge4_Node000004_Node000005"><a xlink:title=" ">
<path fill="none" stroke="#63b8ff" d="M149.57,-54.98C170.43,-46.34 202.97,-32.87 226.77,-23.02"/>
<polygon fill="#63b8ff" stroke="#63b8ff" points="228.16,-26.23 236.06,-19.17 225.48,-19.76 228.16,-26.23"/>
</a>
</g>
</g>
<!-- Node6 -->
<g id="Node000006" class="node">
<title>Node6</title>
<g id="a_Node000006"><a xlink:title=" ">
<polygon fill="#e0e0e0" stroke="#999999" points="213.5,-19 160.5,-19 160.5,0 213.5,0 213.5,-19"/>
<text text-anchor="middle" x="187" y="-7" font-family="Helvetica,sans-Serif" font-size="10.00">cstddef</text>
</a>
</g>
</g>
<!-- Node4&#45;&gt;Node6 -->
<g id="edge5_Node000004_Node000006" class="edge">
<title>Node4&#45;&gt;Node6</title>
<g id="a_edge5_Node000004_Node000006"><a xlink:title=" ">
<path fill="none" stroke="#63b8ff" d="M138.32,-54.98C146.81,-47.23 159.56,-35.58 169.88,-26.14"/>
<polygon fill="#63b8ff" stroke="#63b8ff" points="172.49,-28.5 177.51,-19.17 167.77,-23.33 172.49,-28.5"/>
</a>
</g>
</g>
<!-- Node7 -->
<g id="Node000007" class="node">
<title>Node7</title>
<g id="a_Node000007"><a xlink:title=" ">
<polygon fill="#e0e0e0" stroke="#999999" points="142,-19 104,-19 104,0 142,0 142,-19"/>
<text text-anchor="middle" x="123" y="-7" font-family="Helvetica,sans-Serif" font-size="10.00">map</text>
</a>
</g>
</g>
<!-- Node4&#45;&gt;Node7 -->
<g id="edge6_Node000004_Node000007" class="edge">
<title>Node4&#45;&gt;Node7</title>
<g id="a_edge6_Node000004_Node000007"><a xlink:title=" ">
<path fill="none" stroke="#63b8ff" d="M128.01,-54.75C127.22,-47.8 126.1,-37.85 125.11,-29.13"/>
<polygon fill="#63b8ff" stroke="#63b8ff" points="128.58,-28.63 123.97,-19.09 121.62,-29.42 128.58,-28.63"/>
</a>
</g>
</g>
<!-- Node8&#45;&gt;Node3 -->
<g id="edge8_Node000008_Node000003" class="edge">
<title>Node8&#45;&gt;Node3</title>
<g id="a_edge8_Node000008_Node000003"><a xlink:title=" ">
<path fill="none" stroke="#63b8ff" d="M155.34,-165.57C132.67,-156.86 96.01,-142.78 69.7,-132.68"/>
<polygon fill="#63b8ff" stroke="#63b8ff" points="70.76,-129.33 60.17,-129.02 68.25,-135.87 70.76,-129.33"/>
</a>
</g>
</g>
<!-- Node8&#45;&gt;Node5 -->
<g id="edge12_Node000008_Node000005" class="edge">
<title>Node8&#45;&gt;Node5</title>
<g id="a_edge12_Node000008_Node000005"><a xlink:title=" ">
<path fill="none" stroke="#63b8ff" d="M183.26,-164.71C190.21,-156.01 200.69,-142.14 208,-129 226.87,-95.09 242.76,-52.42 250.98,-28.64"/>
<polygon fill="#63b8ff" stroke="#63b8ff" points="254.3,-29.74 254.2,-19.14 247.67,-27.49 254.3,-29.74"/>
</a>
</g>
</g>
<!-- Node8&#45;&gt;Node6 -->
<g id="edge11_Node000008_Node000006" class="edge">
<title>Node8&#45;&gt;Node6</title>
<g id="a_edge11_Node000008_Node000006"><a xlink:title=" ">
<path fill="none" stroke="#63b8ff" d="M180.11,-164.88C184.06,-156.09 189.74,-141.94 192,-129 198.08,-94.13 193.74,-52.67 190.23,-29.18"/>
<polygon fill="#63b8ff" stroke="#63b8ff" points="193.67,-28.52 188.63,-19.21 186.76,-29.64 193.67,-28.52"/>
</a>
</g>
</g>
<!-- Node9 -->
<g id="Node000009" class="node">
<title>Node9</title>
<g id="a_Node000009"><a xlink:href="i2c_8h.html" target="_top" xlink:title=" ">
<polygon fill="white" stroke="#666666" points="183.5,-129 94.5,-129 94.5,-110 183.5,-110 183.5,-129"/>
<text text-anchor="middle" x="139" y="-117" font-family="Helvetica,sans-Serif" font-size="10.00">hardware/i2c.h</text>
</a>
</g>
</g>
<!-- Node8&#45;&gt;Node9 -->
<g id="edge9_Node000008_Node000009" class="edge">
<title>Node8&#45;&gt;Node9</title>
<g id="a_edge9_Node000008_Node000009"><a xlink:title=" ">
<path fill="none" stroke="#63b8ff" d="M169.89,-164.75C164.72,-157.34 157.15,-146.5 150.81,-137.41"/>
<polygon fill="#63b8ff" stroke="#63b8ff" points="153.59,-135.29 145,-129.09 147.85,-139.29 153.59,-135.29"/>
</a>
</g>
</g>
<!-- Node9&#45;&gt;Node4 -->
<g id="edge10_Node000009_Node000004" class="edge">
<title>Node9&#45;&gt;Node4</title>
<g id="a_edge10_Node000009_Node000004"><a xlink:title=" ">
<path fill="none" stroke="#63b8ff" d="M137.35,-109.75C136.04,-102.8 134.16,-92.85 132.52,-84.13"/>
<polygon fill="#63b8ff" stroke="#63b8ff" points="135.91,-83.27 130.62,-74.09 129.04,-84.56 135.91,-83.27"/>
</a>
</g>
</g>
<!-- Node10&#45;&gt;Node5 -->
<g id="edge14_Node000010_Node000005" class="edge">
<title>Node10&#45;&gt;Node5</title>
<g id="a_edge14_Node000010_Node000005"><a xlink:title=" ">
<path fill="none" stroke="#63b8ff" d="M213.87,-219.91C221.49,-196.69 242.34,-130.63 252,-74 254.53,-59.14 255.79,-42.11 256.41,-29.43"/>
<polygon fill="#63b8ff" stroke="#63b8ff" points="259.91,-29.32 256.81,-19.19 252.92,-29.04 259.91,-29.32"/>
</a>
</g>
</g>
<!-- Node10&#45;&gt;Node8 -->
<g id="edge15_Node000010_Node000008" class="edge">
<title>Node10&#45;&gt;Node8</title>
<g id="a_edge15_Node000010_Node000008"><a xlink:title=" ">
<path fill="none" stroke="#63b8ff" d="M205.22,-219.75C200.38,-212.42 193.32,-201.73 187.36,-192.7"/>
<polygon fill="#63b8ff" stroke="#63b8ff" points="190.1,-190.5 181.67,-184.09 184.26,-194.36 190.1,-190.5"/>
</a>
</g>
</g>
</g>
</svg>
