<?xml version="1.0" encoding="UTF-8" standalone="no"?>
<!DOCTYPE svg PUBLIC "-//W3C//DTD SVG 1.1//EN"
 "http://www.w3.org/Graphics/SVG/1.1/DTD/svg11.dtd">
<!-- Generated by graphviz version 2.43.0 (0)
 -->
<!-- Title: BH1750&#45;RP2040&#45;RP3050 Pages: 1 -->
<svg width="222pt" height="153pt"
 viewBox="0.00 0.00 222.00 153.00" xmlns="http://www.w3.org/2000/svg" xmlns:xlink="http://www.w3.org/1999/xlink">
<g id="graph0" class="graph" transform="scale(1 1) rotate(0) translate(4 149)">
<title>BH1750&#45;RP2040&#45;RP3050</title>
<g id="clust1" class="cluster">
<title>clusterdir_586a74e95278ca130900aaa76c38b8ec</title>
<g id="a_clust1"><a xlink:href="dir_586a74e95278ca130900aaa76c38b8ec.html" target="_top">
<polygon fill="#edf0f7" stroke="#404040" stroke-width="2" points="24.5,-47 24.5,-137 176.5,-137 176.5,-47 24.5,-47"/>
</a>
</g>
</g>
<!-- dir_586a74e95278ca130900aaa76c38b8ec -->
<g id="node1" class="node">
<title>dir_586a74e95278ca130900aaa76c38b8ec</title>
<text text-anchor="middle" x="100.5" y="-117" font-family="Helvetica,sans-Serif" font-size="10.00">BH1750&#45;RP2040&#45;RP3050</text>
</g>
<!-- dir_a5983cb006134ff5feba39b894f44eaa -->
<g id="node2" class="node">
<title>dir_a5983cb006134ff5feba39b894f44eaa</title>
<g id="a_node2"><a xlink:href="dir_a5983cb006134ff5feba39b894f44eaa.html" target="_top" xlink:title="BH1750">
<polygon fill="#a2b4d6" stroke="#404040" points="128,-74 73,-74 73,-55 128,-55 128,-74"/>
<text text-anchor="middle" x="100.5" y="-62" font-family="Helvetica,sans-Serif" font-size="10.00">BH1750</text>
</a>
</g>
</g>
<!-- dir_586a74e95278ca130900aaa76c38b8ec&#45;&gt;dir_a5983cb006134ff5feba39b894f44eaa -->
<g id="edge2" class="edge">
<title>dir_586a74e95278ca130900aaa76c38b8ec&#45;&gt;dir_a5983cb006134ff5feba39b894f44eaa</title>
<g id="a_edge2"><a xlink:href="dir_000001_000000.html" target="_top">
<path fill="none" stroke="#63b8ff" d="M100.5,-109.75C100.5,-102.8 100.5,-92.85 100.5,-84.13"/>
<polygon fill="#63b8ff" stroke="#63b8ff" points="104,-84.09 100.5,-74.09 97,-84.09 104,-84.09"/>
</a>
</g>
<g id="a_edge2&#45;headlabel"><a xlink:href="dir_000001_000000.html" target="_top" xlink:title="1">
<text text-anchor="middle" x="106.84" y="-85.18" font-family="Helvetica,sans-Serif" font-size="10.00" fill="#63b8ff">1</text>
</a>
</g>
</g>
<!-- dir_58feeb1fd685818ef953c7f6da627f79 -->
<g id="node3" class="node">
<title>dir_58feeb1fd685818ef953c7f6da627f79</title>
<g id="a_node3"><a xlink:href="dir_58feeb1fd685818ef953c7f6da627f79.html" target="_top" xlink:title="RP&#45;Pico&#45;Mock">
<polygon fill="#edf0f7" stroke="red" points="83,-19 0,-19 0,0 83,0 83,-19"/>
<text text-anchor="middle" x="41.5" y="-7" font-family="Helvetica,sans-Serif" font-size="10.00">RP&#45;Pico&#45;Mock</text>
</a>
</g>
</g>
<!-- dir_586a74e95278ca130900aaa76c38b8ec&#45;&gt;dir_58feeb1fd685818ef953c7f6da627f79 -->
<g id="edge1" class="edge">
<title>dir_586a74e95278ca130900aaa76c38b8ec&#45;&gt;dir_58feeb1fd685818ef953c7f6da627f79</title>
<g id="a_edge1"><a xlink:href="dir_000001_000011.html" target="_top">
<path fill="none" stroke="#63b8ff" d="M91.5,-109.68C83.26,-101.19 71.2,-87.65 63.5,-74 55.44,-59.71 49.6,-41.96 45.97,-28.86"/>
<polygon fill="#63b8ff" stroke="#63b8ff" points="49.34,-27.93 43.44,-19.13 42.57,-29.69 49.34,-27.93"/>
</a>
</g>
<g id="a_edge1&#45;headlabel"><a xlink:href="dir_000001_000011.html" target="_top" xlink:title="2">
<text text-anchor="middle" x="52.99" y="-28.19" font-family="Helvetica,sans-Serif" font-size="10.00" fill="#63b8ff">2</text>
</a>
</g>
</g>
<!-- dir_e92e05ee3da150403452ae6e5e6731ce -->
<g id="node4" class="node">
<title>dir_e92e05ee3da150403452ae6e5e6731ce</title>
<g id="a_node4"><a xlink:href="dir_e92e05ee3da150403452ae6e5e6731ce.html" target="_top" xlink:title="I2C&#45;RP2040&#45;RP2350">
<polygon fill="#edf0f7" stroke="#404040" points="214,-19 101,-19 101,0 214,0 214,-19"/>
<text text-anchor="middle" x="157.5" y="-7" font-family="Helvetica,sans-Serif" font-size="10.00">I2C&#45;RP2040&#45;RP2350</text>
</a>
</g>
</g>
<!-- dir_586a74e95278ca130900aaa76c38b8ec&#45;&gt;dir_e92e05ee3da150403452ae6e5e6731ce -->
<g id="edge3" class="edge">
<title>dir_586a74e95278ca130900aaa76c38b8ec&#45;&gt;dir_e92e05ee3da150403452ae6e5e6731ce</title>
<g id="a_edge3"><a xlink:href="dir_000001_000004.html" target="_top">
<path fill="none" stroke="#63b8ff" d="M109.59,-109.73C117.9,-101.27 129.99,-87.76 137.5,-74 145.21,-59.87 150.45,-42.33 153.62,-29.27"/>
<polygon fill="#63b8ff" stroke="#63b8ff" points="157.12,-29.66 155.89,-19.14 150.29,-28.13 157.12,-29.66"/>
</a>
</g>
<g id="a_edge3&#45;headlabel"><a xlink:href="dir_000001_000004.html" target="_top" xlink:title="2">
<text text-anchor="middle" x="159.1" y="-31.29" font-family="Helvetica,sans-Serif" font-size="10.00" fill="#63b8ff">2</text>
</a>
</g>
</g>
<!-- dir_a5983cb006134ff5feba39b894f44eaa&#45;&gt;dir_58feeb1fd685818ef953c7f6da627f79 -->
<g id="edge4" class="edge">
<title>dir_a5983cb006134ff5feba39b894f44eaa&#45;&gt;dir_58feeb1fd685818ef953c7f6da627f79</title>
<g id="a_edge4"><a xlink:href="dir_000000_000011.html" target="_top">
<path fill="none" stroke="#63b8ff" d="M91.02,-54.98C82.3,-47.15 69.16,-35.34 58.6,-25.86"/>
<polygon fill="#63b8ff" stroke="#63b8ff" points="60.93,-23.25 51.15,-19.17 56.25,-28.46 60.93,-23.25"/>
</a>
</g>
<g id="a_edge4&#45;headlabel"><a xlink:href="dir_000000_000011.html" target="_top" xlink:title="1">
<text text-anchor="middle" x="65.5" y="-21.04" font-family="Helvetica,sans-Serif" font-size="10.00" fill="#63b8ff">1</text>
</a>
</g>
</g>
<!-- dir_a5983cb006134ff5feba39b894f44eaa&#45;&gt;dir_e92e05ee3da150403452ae6e5e6731ce -->
<g id="edge5" class="edge">
<title>dir_a5983cb006134ff5feba39b894f44eaa&#45;&gt;dir_e92e05ee3da150403452ae6e5e6731ce</title>
<g id="a_edge5"><a xlink:href="dir_000000_000004.html" target="_top">
<path fill="none" stroke="#63b8ff" d="M109.66,-54.98C118,-47.23 130.53,-35.58 140.68,-26.14"/>
<polygon fill="#63b8ff" stroke="#63b8ff" points="143.24,-28.54 148.18,-19.17 138.47,-23.42 143.24,-28.54"/>
</a>
</g>
<g id="a_edge5&#45;headlabel"><a xlink:href="dir_000000_000004.html" target="_top" xlink:title="1">
<text text-anchor="middle" x="142.54" y="-30.57" font-family="Helvetica,sans-Serif" font-size="10.00" fill="#63b8ff">1</text>
</a>
</g>
</g>
</g>
</svg>
