<?xml version="1.0" encoding="UTF-8" standalone="no"?>
<!DOCTYPE svg PUBLIC "-//W3C//DTD SVG 1.1//EN"
 "http://www.w3.org/Graphics/SVG/1.1/DTD/svg11.dtd">
<!-- Generated by graphviz version 2.43.0 (0)
 -->
<!-- Title: BH1750&#45;RP2040&#45;RP3050 Pages: 1 -->
<svg width="264pt" height="153pt"
 viewBox="0.00 0.00 263.50 153.00" xmlns="http://www.w3.org/2000/svg" xmlns:xlink="http://www.w3.org/1999/xlink">
<g id="graph0" class="graph" transform="scale(1 1) rotate(0) translate(4 149)">
<title>BH1750&#45;RP2040&#45;RP3050</title>
<g id="clust1" class="cluster">
<title>clusterdir_586a74e95278ca130900aaa76c38b8ec</title>
<g id="a_clust1"><a xlink:href="dir_586a74e95278ca130900aaa76c38b8ec.html" target="_top">
<polygon fill="#edf0f7" stroke="#404040" stroke-width="2" points="8,-47 8,-137 218,-137 218,-47 8,-47"/>
</a>
</g>
</g>
<!-- dir_586a74e95278ca130900aaa76c38b8ec -->
<g id="node1" class="node">
<title>dir_586a74e95278ca130900aaa76c38b8ec</title>
<text text-anchor="middle" x="142" y="-117" font-family="Helvetica,sans-Serif" font-size="10.00">BH1750&#45;RP2040&#45;RP3050</text>
</g>
<!-- dir_a5983cb006134ff5feba39b894f44eaa -->
<g id="node2" class="node">
<title>dir_a5983cb006134ff5feba39b894f44eaa</title>
<g id="a_node2"><a xlink:href="dir_a5983cb006134ff5feba39b894f44eaa.html" target="_top" xlink:title="BH1750">
<polygon fill="#a2b4d6" stroke="#404040" points="169.5,-74 114.5,-74 114.5,-55 169.5,-55 169.5,-74"/>
<text text-anchor="middle" x="142" y="-62" font-family="Helvetica,sans-Serif" font-size="10.00">BH1750</text>
</a>
</g>
</g>
<!-- dir_586a74e95278ca130900aaa76c38b8ec&#45;&gt;dir_a5983cb006134ff5feba39b894f44eaa -->
<g id="edge2" class="edge">
<title>dir_586a74e95278ca130900aaa76c38b8ec&#45;&gt;dir_a5983cb006134ff5feba39b894f44eaa</title>
<g id="a_edge2"><a xlink:href="dir_000001_000000.html" target="_top">
<path fill="none" stroke="#63b8ff" d="M142,-109.75C142,-102.8 142,-92.85 142,-84.13"/>
<polygon fill="#63b8ff" stroke="#63b8ff" points="145.5,-84.09 142,-74.09 138.5,-84.09 145.5,-84.09"/>
</a>
</g>
<g id="a_edge2&#45;headlabel"><a xlink:href="dir_000001_000000.html" target="_top" xlink:title="1">
<text text-anchor="middle" x="148.34" y="-85.18" font-family="Helvetica,sans-Serif" font-size="10.00" fill="#63b8ff">1</text>
</a>
</g>
</g>
<!-- dir_58feeb1fd685818ef953c7f6da627f79 -->
<g id="node4" class="node">
<title>dir_58feeb1fd685818ef953c7f6da627f79</title>
<g id="a_node4"><a xlink:href="dir_58feeb1fd685818ef953c7f6da627f79.html" target="_top" xlink:title="RP&#45;Pico&#45;Mock">
<polygon fill="#edf0f7" stroke="red" points="124.5,-19 41.5,-19 41.5,0 124.5,0 124.5,-19"/>
<text text-anchor="middle" x="83" y="-7" font-family="Helvetica,sans-Serif" font-size="10.00">RP&#45;Pico&#45;Mock</text>
</a>
</g>
</g>
<!-- dir_586a74e95278ca130900aaa76c38b8ec&#45;&gt;dir_58feeb1fd685818ef953c7f6da627f79 -->
<g id="edge1" class="edge">
<title>dir_586a74e95278ca130900aaa76c38b8ec&#45;&gt;dir_58feeb1fd685818ef953c7f6da627f79</title>
<g id="a_edge1"><a xlink:href="dir_000001_000017.html" target="_top">
<path fill="none" stroke="#63b8ff" d="M133.61,-109.94C125.62,-101.42 113.72,-87.67 106,-74 97.9,-59.64 91.75,-41.9 87.87,-28.82"/>
<polygon fill="#63b8ff" stroke="#63b8ff" points="91.21,-27.79 85.13,-19.11 84.47,-29.68 91.21,-27.79"/>
</a>
</g>
<g id="a_edge1&#45;headlabel"><a xlink:href="dir_000001_000017.html" target="_top" xlink:title="2">
<text text-anchor="middle" x="94.92" y="-27.98" font-family="Helvetica,sans-Serif" font-size="10.00" fill="#63b8ff">2</text>
</a>
</g>
</g>
<!-- dir_e92e05ee3da150403452ae6e5e6731ce -->
<g id="node5" class="node">
<title>dir_e92e05ee3da150403452ae6e5e6731ce</title>
<g id="a_node5"><a xlink:href="dir_e92e05ee3da150403452ae6e5e6731ce.html" target="_top" xlink:title="I2C&#45;RP2040&#45;RP2350">
<polygon fill="#edf0f7" stroke="red" points="255.5,-19 142.5,-19 142.5,0 255.5,0 255.5,-19"/>
<text text-anchor="middle" x="199" y="-7" font-family="Helvetica,sans-Serif" font-size="10.00">I2C&#45;RP2040&#45;RP2350</text>
</a>
</g>
</g>
<!-- dir_586a74e95278ca130900aaa76c38b8ec&#45;&gt;dir_e92e05ee3da150403452ae6e5e6731ce -->
<g id="edge3" class="edge">
<title>dir_586a74e95278ca130900aaa76c38b8ec&#45;&gt;dir_e92e05ee3da150403452ae6e5e6731ce</title>
<g id="a_edge3"><a xlink:href="dir_000001_000010.html" target="_top">
<path fill="none" stroke="#63b8ff" d="M151.09,-109.73C159.4,-101.27 171.49,-87.76 179,-74 186.71,-59.87 191.95,-42.33 195.12,-29.27"/>
<polygon fill="#63b8ff" stroke="#63b8ff" points="198.62,-29.66 197.39,-19.14 191.79,-28.13 198.62,-29.66"/>
</a>
</g>
<g id="a_edge3&#45;headlabel"><a xlink:href="dir_000001_000010.html" target="_top" xlink:title="2">
<text text-anchor="middle" x="200.6" y="-31.29" font-family="Helvetica,sans-Serif" font-size="10.00" fill="#63b8ff">2</text>
</a>
</g>
</g>
<!-- dir_a5983cb006134ff5feba39b894f44eaa&#45;&gt;dir_58feeb1fd685818ef953c7f6da627f79 -->
<g id="edge4" class="edge">
<title>dir_a5983cb006134ff5feba39b894f44eaa&#45;&gt;dir_58feeb1fd685818ef953c7f6da627f79</title>
<g id="a_edge4"><a xlink:href="dir_000000_000017.html" target="_top">
<path fill="none" stroke="#63b8ff" d="M132.52,-54.98C123.8,-47.15 110.66,-35.34 100.1,-25.86"/>
<polygon fill="#63b8ff" stroke="#63b8ff" points="102.43,-23.25 92.65,-19.17 97.75,-28.46 102.43,-23.25"/>
</a>
</g>
<g id="a_edge4&#45;headlabel"><a xlink:href="dir_000000_000017.html" target="_top" xlink:title="1">
<text text-anchor="middle" x="107" y="-21.04" font-family="Helvetica,sans-Serif" font-size="10.00" fill="#63b8ff">1</text>
</a>
</g>
</g>
<!-- dir_a5983cb006134ff5feba39b894f44eaa&#45;&gt;dir_e92e05ee3da150403452ae6e5e6731ce -->
<g id="edge5" class="edge">
<title>dir_a5983cb006134ff5feba39b894f44eaa&#45;&gt;dir_e92e05ee3da150403452ae6e5e6731ce</title>
<g id="a_edge5"><a xlink:href="dir_000000_000010.html" target="_top">
<path fill="none" stroke="#63b8ff" d="M151.16,-54.98C159.5,-47.23 172.03,-35.58 182.18,-26.14"/>
<polygon fill="#63b8ff" stroke="#63b8ff" points="184.74,-28.54 189.68,-19.17 179.97,-23.42 184.74,-28.54"/>
</a>
</g>
<g id="a_edge5&#45;headlabel"><a xlink:href="dir_000000_000010.html" target="_top" xlink:title="1">
<text text-anchor="middle" x="184.04" y="-30.57" font-family="Helvetica,sans-Serif" font-size="10.00" fill="#63b8ff">1</text>
</a>
</g>
</g>
<!-- dir_9ea79ee968a4c7ec6d148579f297efd8 -->
<g id="node3" class="node">
<title>dir_9ea79ee968a4c7ec6d148579f297efd8</title>
<g id="a_node3"><a xlink:href="dir_9ea79ee968a4c7ec6d148579f297efd8.html" target="_top" xlink:title="docs">
<polygon fill="#a2b4d6" stroke="#404040" points="55.5,-129 16.5,-129 16.5,-110 55.5,-110 55.5,-129"/>
<text text-anchor="middle" x="36" y="-117" font-family="Helvetica,sans-Serif" font-size="10.00">docs</text>
</a>
</g>
</g>
</g>
</svg>
