<?xml version="1.0" encoding="UTF-8" standalone="no"?>
<!DOCTYPE svg PUBLIC "-//W3C//DTD SVG 1.1//EN"
 "http://www.w3.org/Graphics/SVG/1.1/DTD/svg11.dtd">
<!-- Generated by graphviz version 2.43.0 (0)
 -->
<!-- Title: MPU6050&#45;RP2040&#45;RP2350 Pages: 1 -->
<svg width="223pt" height="153pt"
 viewBox="0.00 0.00 223.00 153.00" xmlns="http://www.w3.org/2000/svg" xmlns:xlink="http://www.w3.org/1999/xlink">
<g id="graph0" class="graph" transform="scale(1 1) rotate(0) translate(4 149)">
<title>MPU6050&#45;RP2040&#45;RP2350</title>
<g id="clust1" class="cluster">
<title>clusterdir_9cc689536ff53312c341a0f922b39717</title>
<g id="a_clust1"><a xlink:href="dir_9cc689536ff53312c341a0f922b39717.html" target="_top">
<polygon fill="#edf0f7" stroke="#404040" stroke-width="2" points="19.5,-47 19.5,-137 179.5,-137 179.5,-47 19.5,-47"/>
</a>
</g>
</g>
<!-- dir_9cc689536ff53312c341a0f922b39717 -->
<g id="node1" class="node">
<title>dir_9cc689536ff53312c341a0f922b39717</title>
<text text-anchor="middle" x="99.5" y="-117" font-family="Helvetica,sans-Serif" font-size="10.00">MPU6050&#45;RP2040&#45;RP2350</text>
</g>
<!-- dir_9ff1775a5d72306908841ae9473d3ad5 -->
<g id="node2" class="node">
<title>dir_9ff1775a5d72306908841ae9473d3ad5</title>
<g id="a_node2"><a xlink:href="dir_9ff1775a5d72306908841ae9473d3ad5.html" target="_top" xlink:title="MPU6050">
<polygon fill="#a2b4d6" stroke="#404040" points="131,-74 68,-74 68,-55 131,-55 131,-74"/>
<text text-anchor="middle" x="99.5" y="-62" font-family="Helvetica,sans-Serif" font-size="10.00">MPU6050</text>
</a>
</g>
</g>
<!-- dir_9cc689536ff53312c341a0f922b39717&#45;&gt;dir_9ff1775a5d72306908841ae9473d3ad5 -->
<g id="edge2" class="edge">
<title>dir_9cc689536ff53312c341a0f922b39717&#45;&gt;dir_9ff1775a5d72306908841ae9473d3ad5</title>
<g id="a_edge2"><a xlink:href="dir_000007_000006.html" target="_top">
<path fill="none" stroke="#63b8ff" d="M99.5,-109.75C99.5,-102.8 99.5,-92.85 99.5,-84.13"/>
<polygon fill="#63b8ff" stroke="#63b8ff" points="103,-84.09 99.5,-74.09 96,-84.09 103,-84.09"/>
</a>
</g>
<g id="a_edge2&#45;headlabel"><a xlink:href="dir_000007_000006.html" target="_top" xlink:title="1">
<text text-anchor="middle" x="105.84" y="-85.18" font-family="Helvetica,sans-Serif" font-size="10.00" fill="#63b8ff">1</text>
</a>
</g>
</g>
<!-- dir_58feeb1fd685818ef953c7f6da627f79 -->
<g id="node3" class="node">
<title>dir_58feeb1fd685818ef953c7f6da627f79</title>
<g id="a_node3"><a xlink:href="dir_58feeb1fd685818ef953c7f6da627f79.html" target="_top" xlink:title="RP&#45;Pico&#45;Mock">
<polygon fill="#edf0f7" stroke="red" points="83,-19 0,-19 0,0 83,0 83,-19"/>
<text text-anchor="middle" x="41.5" y="-7" font-family="Helvetica,sans-Serif" font-size="10.00">RP&#45;Pico&#45;Mock</text>
</a>
</g>
</g>
<!-- dir_9cc689536ff53312c341a0f922b39717&#45;&gt;dir_58feeb1fd685818ef953c7f6da627f79 -->
<g id="edge1" class="edge">
<title>dir_9cc689536ff53312c341a0f922b39717&#45;&gt;dir_58feeb1fd685818ef953c7f6da627f79</title>
<g id="a_edge1"><a xlink:href="dir_000007_000011.html" target="_top">
<path fill="none" stroke="#63b8ff" d="M88.87,-109.69C79.55,-101.4 66.3,-88.17 58.5,-74 50.84,-60.08 46.48,-42.52 44.1,-29.4"/>
<polygon fill="#63b8ff" stroke="#63b8ff" points="47.51,-28.54 42.49,-19.21 40.6,-29.63 47.51,-28.54"/>
</a>
</g>
<g id="a_edge1&#45;headlabel"><a xlink:href="dir_000007_000011.html" target="_top" xlink:title="2">
<text text-anchor="middle" x="50.88" y="-29.14" font-family="Helvetica,sans-Serif" font-size="10.00" fill="#63b8ff">2</text>
</a>
</g>
</g>
<!-- dir_e92e05ee3da150403452ae6e5e6731ce -->
<g id="node4" class="node">
<title>dir_e92e05ee3da150403452ae6e5e6731ce</title>
<g id="a_node4"><a xlink:href="dir_e92e05ee3da150403452ae6e5e6731ce.html" target="_top" xlink:title="I2C&#45;RP2040&#45;RP2350">
<polygon fill="#edf0f7" stroke="#404040" points="215,-19 102,-19 102,0 215,0 215,-19"/>
<text text-anchor="middle" x="158.5" y="-7" font-family="Helvetica,sans-Serif" font-size="10.00">I2C&#45;RP2040&#45;RP2350</text>
</a>
</g>
</g>
<!-- dir_9cc689536ff53312c341a0f922b39717&#45;&gt;dir_e92e05ee3da150403452ae6e5e6731ce -->
<g id="edge3" class="edge">
<title>dir_9cc689536ff53312c341a0f922b39717&#45;&gt;dir_e92e05ee3da150403452ae6e5e6731ce</title>
<g id="a_edge3"><a xlink:href="dir_000007_000004.html" target="_top">
<path fill="none" stroke="#63b8ff" d="M109.72,-109.98C119.02,-101.7 132.49,-88.3 140.5,-74 148.29,-60.08 152.93,-42.52 155.55,-29.4"/>
<polygon fill="#63b8ff" stroke="#63b8ff" points="159.05,-29.66 157.35,-19.21 152.16,-28.45 159.05,-29.66"/>
</a>
</g>
<g id="a_edge3&#45;headlabel"><a xlink:href="dir_000007_000004.html" target="_top" xlink:title="2">
<text text-anchor="middle" x="161.22" y="-31.2" font-family="Helvetica,sans-Serif" font-size="10.00" fill="#63b8ff">2</text>
</a>
</g>
</g>
<!-- dir_9ff1775a5d72306908841ae9473d3ad5&#45;&gt;dir_58feeb1fd685818ef953c7f6da627f79 -->
<g id="edge4" class="edge">
<title>dir_9ff1775a5d72306908841ae9473d3ad5&#45;&gt;dir_58feeb1fd685818ef953c7f6da627f79</title>
<g id="a_edge4"><a xlink:href="dir_000006_000011.html" target="_top">
<path fill="none" stroke="#63b8ff" d="M90.18,-54.98C81.69,-47.23 68.94,-35.58 58.62,-26.14"/>
<polygon fill="#63b8ff" stroke="#63b8ff" points="60.73,-23.33 50.99,-19.17 56.01,-28.5 60.73,-23.33"/>
</a>
</g>
<g id="a_edge4&#45;headlabel"><a xlink:href="dir_000006_000011.html" target="_top" xlink:title="1">
<text text-anchor="middle" x="65.3" y="-21.16" font-family="Helvetica,sans-Serif" font-size="10.00" fill="#63b8ff">1</text>
</a>
</g>
</g>
<!-- dir_9ff1775a5d72306908841ae9473d3ad5&#45;&gt;dir_e92e05ee3da150403452ae6e5e6731ce -->
<g id="edge5" class="edge">
<title>dir_9ff1775a5d72306908841ae9473d3ad5&#45;&gt;dir_e92e05ee3da150403452ae6e5e6731ce</title>
<g id="a_edge5"><a xlink:href="dir_000006_000004.html" target="_top">
<path fill="none" stroke="#63b8ff" d="M108.98,-54.98C117.7,-47.15 130.84,-35.34 141.4,-25.86"/>
<polygon fill="#63b8ff" stroke="#63b8ff" points="143.75,-28.46 148.85,-19.17 139.07,-23.25 143.75,-28.46"/>
</a>
</g>
<g id="a_edge5&#45;headlabel"><a xlink:href="dir_000006_000004.html" target="_top" xlink:title="1">
<text text-anchor="middle" x="142.97" y="-30.47" font-family="Helvetica,sans-Serif" font-size="10.00" fill="#63b8ff">1</text>
</a>
</g>
</g>
</g>
</svg>
