<?xml version="1.0" encoding="UTF-8" standalone="no"?>
<!DOCTYPE svg PUBLIC "-//W3C//DTD SVG 1.1//EN"
 "http://www.w3.org/Graphics/SVG/1.1/DTD/svg11.dtd">
<!-- Generated by graphviz version 2.43.0 (0)
 -->
<!-- Title: VL53L0X&#45;RP2040&#45;RP2350 Pages: 1 -->
<svg width="265pt" height="153pt"
 viewBox="0.00 0.00 264.50 153.00" xmlns="http://www.w3.org/2000/svg" xmlns:xlink="http://www.w3.org/1999/xlink">
<g id="graph0" class="graph" transform="scale(1 1) rotate(0) translate(4 149)">
<title>VL53L0X&#45;RP2040&#45;RP2350</title>
<g id="clust1" class="cluster">
<title>clusterdir_a534f426f389a2c938fcf42377e00698</title>
<g id="a_clust1"><a xlink:href="dir_a534f426f389a2c938fcf42377e00698.html" target="_top">
<polygon fill="#edf0f7" stroke="#404040" stroke-width="2" points="8,-47 8,-137 221,-137 221,-47 8,-47"/>
</a>
</g>
</g>
<!-- dir_a534f426f389a2c938fcf42377e00698 -->
<g id="node1" class="node">
<title>dir_a534f426f389a2c938fcf42377e00698</title>
<text text-anchor="middle" x="143" y="-117" font-family="Helvetica,sans-Serif" font-size="10.00">VL53L0X&#45;RP2040&#45;RP2350</text>
</g>
<!-- dir_f603631c5ac227817b7ff233e3cd2531 -->
<g id="node3" class="node">
<title>dir_f603631c5ac227817b7ff233e3cd2531</title>
<g id="a_node3"><a xlink:href="dir_f603631c5ac227817b7ff233e3cd2531.html" target="_top" xlink:title="vl53l0x">
<polygon fill="#a2b4d6" stroke="#404040" points="169.5,-74 116.5,-74 116.5,-55 169.5,-55 169.5,-74"/>
<text text-anchor="middle" x="143" y="-62" font-family="Helvetica,sans-Serif" font-size="10.00">vl53l0x</text>
</a>
</g>
</g>
<!-- dir_a534f426f389a2c938fcf42377e00698&#45;&gt;dir_f603631c5ac227817b7ff233e3cd2531 -->
<g id="edge3" class="edge">
<title>dir_a534f426f389a2c938fcf42377e00698&#45;&gt;dir_f603631c5ac227817b7ff233e3cd2531</title>
<g id="a_edge3"><a xlink:href="dir_000020_000019.html" target="_top">
<path fill="none" stroke="#63b8ff" d="M143,-109.75C143,-102.8 143,-92.85 143,-84.13"/>
<polygon fill="#63b8ff" stroke="#63b8ff" points="146.5,-84.09 143,-74.09 139.5,-84.09 146.5,-84.09"/>
</a>
</g>
<g id="a_edge3&#45;headlabel"><a xlink:href="dir_000020_000019.html" target="_top" xlink:title="1">
<text text-anchor="middle" x="149.34" y="-85.18" font-family="Helvetica,sans-Serif" font-size="10.00" fill="#63b8ff">1</text>
</a>
</g>
</g>
<!-- dir_58feeb1fd685818ef953c7f6da627f79 -->
<g id="node4" class="node">
<title>dir_58feeb1fd685818ef953c7f6da627f79</title>
<g id="a_node4"><a xlink:href="dir_58feeb1fd685818ef953c7f6da627f79.html" target="_top" xlink:title="RP&#45;Pico&#45;Mock">
<polygon fill="#edf0f7" stroke="red" points="125.5,-19 42.5,-19 42.5,0 125.5,0 125.5,-19"/>
<text text-anchor="middle" x="84" y="-7" font-family="Helvetica,sans-Serif" font-size="10.00">RP&#45;Pico&#45;Mock</text>
</a>
</g>
</g>
<!-- dir_a534f426f389a2c938fcf42377e00698&#45;&gt;dir_58feeb1fd685818ef953c7f6da627f79 -->
<g id="edge1" class="edge">
<title>dir_a534f426f389a2c938fcf42377e00698&#45;&gt;dir_58feeb1fd685818ef953c7f6da627f79</title>
<g id="a_edge1"><a xlink:href="dir_000020_000017.html" target="_top">
<path fill="none" stroke="#63b8ff" d="M134.9,-109.87C127.18,-101.31 115.63,-87.52 108,-74 99.85,-59.57 93.41,-41.83 89.27,-28.77"/>
<polygon fill="#63b8ff" stroke="#63b8ff" points="92.58,-27.64 86.33,-19.08 85.88,-29.67 92.58,-27.64"/>
</a>
</g>
<g id="a_edge1&#45;headlabel"><a xlink:href="dir_000020_000017.html" target="_top" xlink:title="2">
<text text-anchor="middle" x="96.34" y="-27.76" font-family="Helvetica,sans-Serif" font-size="10.00" fill="#63b8ff">2</text>
</a>
</g>
</g>
<!-- dir_e92e05ee3da150403452ae6e5e6731ce -->
<g id="node5" class="node">
<title>dir_e92e05ee3da150403452ae6e5e6731ce</title>
<g id="a_node5"><a xlink:href="dir_e92e05ee3da150403452ae6e5e6731ce.html" target="_top" xlink:title="I2C&#45;RP2040&#45;RP2350">
<polygon fill="#edf0f7" stroke="red" points="256.5,-19 143.5,-19 143.5,0 256.5,0 256.5,-19"/>
<text text-anchor="middle" x="200" y="-7" font-family="Helvetica,sans-Serif" font-size="10.00">I2C&#45;RP2040&#45;RP2350</text>
</a>
</g>
</g>
<!-- dir_a534f426f389a2c938fcf42377e00698&#45;&gt;dir_e92e05ee3da150403452ae6e5e6731ce -->
<g id="edge2" class="edge">
<title>dir_a534f426f389a2c938fcf42377e00698&#45;&gt;dir_e92e05ee3da150403452ae6e5e6731ce</title>
<g id="a_edge2"><a xlink:href="dir_000020_000010.html" target="_top">
<path fill="none" stroke="#63b8ff" d="M151.48,-109.99C159.53,-101.5 171.48,-87.78 179,-74 186.83,-59.67 192.39,-41.92 195.82,-28.84"/>
<polygon fill="#63b8ff" stroke="#63b8ff" points="199.22,-29.66 198.19,-19.12 192.42,-28 199.22,-29.66"/>
</a>
</g>
<g id="a_edge2&#45;headlabel"><a xlink:href="dir_000020_000010.html" target="_top" xlink:title="2">
<text text-anchor="middle" x="201.12" y="-31.33" font-family="Helvetica,sans-Serif" font-size="10.00" fill="#63b8ff">2</text>
</a>
</g>
</g>
<!-- dir_e951a989617ebd40844684b7f0f5c397 -->
<g id="node2" class="node">
<title>dir_e951a989617ebd40844684b7f0f5c397</title>
<g id="a_node2"><a xlink:href="dir_e951a989617ebd40844684b7f0f5c397.html" target="_top" xlink:title="docs">
<polygon fill="#a2b4d6" stroke="#404040" points="55.5,-129 16.5,-129 16.5,-110 55.5,-110 55.5,-129"/>
<text text-anchor="middle" x="36" y="-117" font-family="Helvetica,sans-Serif" font-size="10.00">docs</text>
</a>
</g>
</g>
<!-- dir_f603631c5ac227817b7ff233e3cd2531&#45;&gt;dir_58feeb1fd685818ef953c7f6da627f79 -->
<g id="edge4" class="edge">
<title>dir_f603631c5ac227817b7ff233e3cd2531&#45;&gt;dir_58feeb1fd685818ef953c7f6da627f79</title>
<g id="a_edge4"><a xlink:href="dir_000019_000017.html" target="_top">
<path fill="none" stroke="#63b8ff" d="M133.52,-54.98C124.8,-47.15 111.66,-35.34 101.1,-25.86"/>
<polygon fill="#63b8ff" stroke="#63b8ff" points="103.43,-23.25 93.65,-19.17 98.75,-28.46 103.43,-23.25"/>
</a>
</g>
<g id="a_edge4&#45;headlabel"><a xlink:href="dir_000019_000017.html" target="_top" xlink:title="1">
<text text-anchor="middle" x="108" y="-21.04" font-family="Helvetica,sans-Serif" font-size="10.00" fill="#63b8ff">1</text>
</a>
</g>
</g>
<!-- dir_f603631c5ac227817b7ff233e3cd2531&#45;&gt;dir_e92e05ee3da150403452ae6e5e6731ce -->
<g id="edge5" class="edge">
<title>dir_f603631c5ac227817b7ff233e3cd2531&#45;&gt;dir_e92e05ee3da150403452ae6e5e6731ce</title>
<g id="a_edge5"><a xlink:href="dir_000019_000010.html" target="_top">
<path fill="none" stroke="#63b8ff" d="M152.16,-54.98C160.5,-47.23 173.03,-35.58 183.18,-26.14"/>
<polygon fill="#63b8ff" stroke="#63b8ff" points="185.74,-28.54 190.68,-19.17 180.97,-23.42 185.74,-28.54"/>
</a>
</g>
<g id="a_edge5&#45;headlabel"><a xlink:href="dir_000019_000010.html" target="_top" xlink:title="1">
<text text-anchor="middle" x="185.04" y="-30.57" font-family="Helvetica,sans-Serif" font-size="10.00" fill="#63b8ff">1</text>
</a>
</g>
</g>
</g>
</svg>
