<?xml version="1.0" encoding="UTF-8" standalone="no"?>
<!DOCTYPE svg PUBLIC "-//W3C//DTD SVG 1.1//EN"
 "http://www.w3.org/Graphics/SVG/1.1/DTD/svg11.dtd">
<!-- Generated by graphviz version 2.43.0 (0)
 -->
<!-- Title: HDMI&#45;RP2040&#45;RP2350/main.c Pages: 1 -->
<svg width="612pt" height="368pt"
 viewBox="0.00 0.00 612.00 368.00" xmlns="http://www.w3.org/2000/svg" xmlns:xlink="http://www.w3.org/1999/xlink">
<g id="graph0" class="graph" transform="scale(1 1) rotate(0) translate(4 364)">
<title>HDMI&#45;RP2040&#45;RP2350/main.c</title>
<!-- Node1 -->
<g id="Node000001" class="node">
<title>Node1</title>
<g id="a_Node000001"><a xlink:title=" ">
<polygon fill="#999999" stroke="#666666" points="319.5,-360 194.5,-360 194.5,-330 319.5,-330 319.5,-360"/>
<text text-anchor="start" x="202.5" y="-348" font-family="Helvetica,sans-Serif" font-size="10.00">HDMI&#45;RP2040&#45;RP2350</text>
<text text-anchor="middle" x="257" y="-337" font-family="Helvetica,sans-Serif" font-size="10.00">/main.c</text>
</a>
</g>
</g>
<!-- Node2 -->
<g id="Node000002" class="node">
<title>Node2</title>
<g id="a_Node000002"><a xlink:title=" ">
<polygon fill="#e0e0e0" stroke="#999999" points="50,-294 0,-294 0,-275 50,-275 50,-294"/>
<text text-anchor="middle" x="25" y="-282" font-family="Helvetica,sans-Serif" font-size="10.00">stdio.h</text>
</a>
</g>
</g>
<!-- Node1&#45;&gt;Node2 -->
<g id="edge1_Node000001_Node000002" class="edge">
<title>Node1&#45;&gt;Node2</title>
<g id="a_edge1_Node000001_Node000002"><a xlink:title=" ">
<path fill="none" stroke="#63b8ff" d="M201.43,-329.99C157.56,-318.93 97.7,-303.83 60.21,-294.38"/>
<polygon fill="#63b8ff" stroke="#63b8ff" points="60.81,-290.92 50.26,-291.87 59.1,-297.71 60.81,-290.92"/>
</a>
</g>
</g>
<!-- Node3 -->
<g id="Node000003" class="node">
<title>Node3</title>
<g id="a_Node000003"><a xlink:href="stdlib_8h.html" target="_top" xlink:title=" ">
<polygon fill="white" stroke="#666666" points="308,-129 232,-129 232,-110 308,-110 308,-129"/>
<text text-anchor="middle" x="270" y="-117" font-family="Helvetica,sans-Serif" font-size="10.00">pico/stdlib.h</text>
</a>
</g>
</g>
<!-- Node1&#45;&gt;Node3 -->
<g id="edge2_Node000001_Node000003" class="edge">
<title>Node1&#45;&gt;Node3</title>
<g id="a_edge2_Node000001_Node000003"><a xlink:title=" ">
<path fill="none" stroke="#63b8ff" d="M194.26,-340.39C141.55,-334.32 77.69,-318.14 97,-275 127.39,-207.12 203.98,-156.77 244.28,-133.98"/>
<polygon fill="#63b8ff" stroke="#63b8ff" points="246.17,-136.94 253.24,-129.04 242.79,-130.81 246.17,-136.94"/>
</a>
</g>
</g>
<!-- Node8 -->
<g id="Node000008" class="node">
<title>Node8</title>
<g id="a_Node000008"><a xlink:title=" ">
<polygon fill="#e0e0e0" stroke="#999999" points="195.5,-294 106.5,-294 106.5,-275 195.5,-275 195.5,-294"/>
<text text-anchor="middle" x="151" y="-282" font-family="Helvetica,sans-Serif" font-size="10.00">hardware/pio.h</text>
</a>
</g>
</g>
<!-- Node1&#45;&gt;Node8 -->
<g id="edge7_Node000001_Node000008" class="edge">
<title>Node1&#45;&gt;Node8</title>
<g id="a_edge7_Node000001_Node000008"><a xlink:title=" ">
<path fill="none" stroke="#63b8ff" d="M231.61,-329.99C214.71,-320.66 192.62,-308.47 175.84,-299.21"/>
<polygon fill="#63b8ff" stroke="#63b8ff" points="177.1,-295.91 166.65,-294.14 173.72,-302.04 177.1,-295.91"/>
</a>
</g>
</g>
<!-- Node9 -->
<g id="Node000009" class="node">
<title>Node9</title>
<g id="a_Node000009"><a xlink:title=" ">
<polygon fill="#e0e0e0" stroke="#999999" points="300.5,-294 213.5,-294 213.5,-275 300.5,-275 300.5,-294"/>
<text text-anchor="middle" x="257" y="-282" font-family="Helvetica,sans-Serif" font-size="10.00">hardware/irq.h</text>
</a>
</g>
</g>
<!-- Node1&#45;&gt;Node9 -->
<g id="edge8_Node000001_Node000009" class="edge">
<title>Node1&#45;&gt;Node9</title>
<g id="a_edge8_Node000001_Node000009"><a xlink:title=" ">
<path fill="none" stroke="#63b8ff" d="M257,-329.84C257,-322.21 257,-312.7 257,-304.45"/>
<polygon fill="#63b8ff" stroke="#63b8ff" points="260.5,-304.27 257,-294.27 253.5,-304.27 260.5,-304.27"/>
</a>
</g>
</g>
<!-- Node10 -->
<g id="Node000010" class="node">
<title>Node10</title>
<g id="a_Node000010"><a xlink:title=" ">
<polygon fill="#e0e0e0" stroke="#999999" points="387,-294 319,-294 319,-275 387,-275 387,-294"/>
<text text-anchor="middle" x="353" y="-282" font-family="Helvetica,sans-Serif" font-size="10.00">hdmi.pio.h</text>
</a>
</g>
</g>
<!-- Node1&#45;&gt;Node10 -->
<g id="edge9_Node000001_Node000010" class="edge">
<title>Node1&#45;&gt;Node10</title>
<g id="a_edge9_Node000001_Node000010"><a xlink:title=" ">
<path fill="none" stroke="#63b8ff" d="M280.24,-329.84C295.4,-320.6 315.11,-308.59 330.19,-299.4"/>
<polygon fill="#63b8ff" stroke="#63b8ff" points="332.18,-302.29 338.9,-294.09 328.54,-296.31 332.18,-302.29"/>
</a>
</g>
</g>
<!-- Node11 -->
<g id="Node000011" class="node">
<title>Node11</title>
<g id="a_Node000011"><a xlink:title=" ">
<polygon fill="#e0e0e0" stroke="#999999" points="493,-294 405,-294 405,-275 493,-275 493,-294"/>
<text text-anchor="middle" x="449" y="-282" font-family="Helvetica,sans-Serif" font-size="10.00">hdmi_clk.pio.h</text>
</a>
</g>
</g>
<!-- Node1&#45;&gt;Node11 -->
<g id="edge10_Node000001_Node000011" class="edge">
<title>Node1&#45;&gt;Node11</title>
<g id="a_edge10_Node000001_Node000011"><a xlink:title=" ">
<path fill="none" stroke="#63b8ff" d="M302.99,-329.99C336.12,-319.89 380.29,-306.44 411.34,-296.98"/>
<polygon fill="#63b8ff" stroke="#63b8ff" points="412.38,-300.32 420.93,-294.05 410.34,-293.62 412.38,-300.32"/>
</a>
</g>
</g>
<!-- Node12 -->
<g id="Node000012" class="node">
<title>Node12</title>
<g id="a_Node000012"><a xlink:href="oled_8h.html" target="_top" xlink:title=" ">
<polygon fill="white" stroke="#666666" points="558.5,-294 511.5,-294 511.5,-275 558.5,-275 558.5,-294"/>
<text text-anchor="middle" x="535" y="-282" font-family="Helvetica,sans-Serif" font-size="10.00">oled.h</text>
</a>
</g>
</g>
<!-- Node1&#45;&gt;Node12 -->
<g id="edge11_Node000001_Node000012" class="edge">
<title>Node1&#45;&gt;Node12</title>
<g id="a_edge11_Node000001_Node000012"><a xlink:title=" ">
<path fill="none" stroke="#63b8ff" d="M319.62,-332.13C366.91,-322.96 433.63,-309.57 501.26,-294.07"/>
<polygon fill="#63b8ff" stroke="#63b8ff" points="502.28,-297.43 511.24,-291.77 500.71,-290.61 502.28,-297.43"/>
</a>
</g>
</g>
<!-- Node4 -->
<g id="Node000004" class="node">
<title>Node4</title>
<g id="a_Node000004"><a xlink:href="pico__sdk__stubs_8h.html" target="_top" xlink:title=" ">
<polygon fill="white" stroke="#666666" points="429.5,-74 320.5,-74 320.5,-55 429.5,-55 429.5,-74"/>
<text text-anchor="middle" x="375" y="-62" font-family="Helvetica,sans-Serif" font-size="10.00">../pico_sdk_stubs.h</text>
</a>
</g>
</g>
<!-- Node3&#45;&gt;Node4 -->
<g id="edge3_Node000003_Node000004" class="edge">
<title>Node3&#45;&gt;Node4</title>
<g id="a_edge3_Node000003_Node000004"><a xlink:title=" ">
<path fill="none" stroke="#63b8ff" d="M286.87,-109.98C303.61,-101.54 329.5,-88.47 348.89,-78.68"/>
<polygon fill="#63b8ff" stroke="#63b8ff" points="350.47,-81.8 357.82,-74.17 347.32,-75.55 350.47,-81.8"/>
</a>
</g>
</g>
<!-- Node5 -->
<g id="Node000005" class="node">
<title>Node5</title>
<g id="a_Node000005"><a xlink:title=" ">
<polygon fill="#e0e0e0" stroke="#999999" points="330,-19 280,-19 280,0 330,0 330,-19"/>
<text text-anchor="middle" x="305" y="-7" font-family="Helvetica,sans-Serif" font-size="10.00">cstdint</text>
</a>
</g>
</g>
<!-- Node4&#45;&gt;Node5 -->
<g id="edge4_Node000004_Node000005" class="edge">
<title>Node4&#45;&gt;Node5</title>
<g id="a_edge4_Node000004_Node000005"><a xlink:title=" ">
<path fill="none" stroke="#63b8ff" d="M363.75,-54.98C353.2,-47 337.2,-34.88 324.56,-25.31"/>
<polygon fill="#63b8ff" stroke="#63b8ff" points="326.54,-22.42 316.45,-19.17 322.31,-28 326.54,-22.42"/>
</a>
</g>
</g>
<!-- Node6 -->
<g id="Node000006" class="node">
<title>Node6</title>
<g id="a_Node000006"><a xlink:title=" ">
<polygon fill="#e0e0e0" stroke="#999999" points="401.5,-19 348.5,-19 348.5,0 401.5,0 401.5,-19"/>
<text text-anchor="middle" x="375" y="-7" font-family="Helvetica,sans-Serif" font-size="10.00">cstddef</text>
</a>
</g>
</g>
<!-- Node4&#45;&gt;Node6 -->
<g id="edge5_Node000004_Node000006" class="edge">
<title>Node4&#45;&gt;Node6</title>
<g id="a_edge5_Node000004_Node000006"><a xlink:title=" ">
<path fill="none" stroke="#63b8ff" d="M375,-54.75C375,-47.8 375,-37.85 375,-29.13"/>
<polygon fill="#63b8ff" stroke="#63b8ff" points="378.5,-29.09 375,-19.09 371.5,-29.09 378.5,-29.09"/>
</a>
</g>
</g>
<!-- Node7 -->
<g id="Node000007" class="node">
<title>Node7</title>
<g id="a_Node000007"><a xlink:title=" ">
<polygon fill="#e0e0e0" stroke="#999999" points="458,-19 420,-19 420,0 458,0 458,-19"/>
<text text-anchor="middle" x="439" y="-7" font-family="Helvetica,sans-Serif" font-size="10.00">map</text>
</a>
</g>
</g>
<!-- Node4&#45;&gt;Node7 -->
<g id="edge6_Node000004_Node000007" class="edge">
<title>Node4&#45;&gt;Node7</title>
<g id="a_edge6_Node000004_Node000007"><a xlink:title=" ">
<path fill="none" stroke="#63b8ff" d="M385.28,-54.98C394.84,-47.07 409.28,-35.11 420.78,-25.58"/>
<polygon fill="#63b8ff" stroke="#63b8ff" points="423.06,-28.24 428.53,-19.17 418.6,-22.85 423.06,-28.24"/>
</a>
</g>
</g>
<!-- Node13 -->
<g id="Node000013" class="node">
<title>Node13</title>
<g id="a_Node000013"><a xlink:title=" ">
<polygon fill="#e0e0e0" stroke="#999999" points="604,-129 542,-129 542,-110 604,-110 604,-129"/>
<text text-anchor="middle" x="573" y="-117" font-family="Helvetica,sans-Serif" font-size="10.00">stdbool.h</text>
</a>
</g>
</g>
<!-- Node12&#45;&gt;Node13 -->
<g id="edge12_Node000012_Node000013" class="edge">
<title>Node12&#45;&gt;Node13</title>
<g id="a_edge12_Node000012_Node000013"><a xlink:title=" ">
<path fill="none" stroke="#63b8ff" d="M537.16,-274.98C539.41,-266.03 543.02,-251.54 546,-239 554.38,-203.72 563.68,-162.4 568.88,-139.05"/>
<polygon fill="#63b8ff" stroke="#63b8ff" points="572.33,-139.66 571.09,-129.14 565.5,-138.14 572.33,-139.66"/>
</a>
</g>
</g>
<!-- Node14 -->
<g id="Node000014" class="node">
<title>Node14</title>
<g id="a_Node000014"><a xlink:title=" ">
<polygon fill="#e0e0e0" stroke="#999999" points="418.5,-184 365.5,-184 365.5,-165 418.5,-165 418.5,-184"/>
<text text-anchor="middle" x="392" y="-172" font-family="Helvetica,sans-Serif" font-size="10.00">stdint.h</text>
</a>
</g>
</g>
<!-- Node12&#45;&gt;Node14 -->
<g id="edge13_Node000012_Node000014" class="edge">
<title>Node12&#45;&gt;Node14</title>
<g id="a_edge13_Node000012_Node000014"><a xlink:title=" ">
<path fill="none" stroke="#63b8ff" d="M519.06,-274.94C503.89,-266.53 480.66,-252.96 462,-239 442.23,-224.21 421.52,-204.87 407.8,-191.44"/>
<polygon fill="#63b8ff" stroke="#63b8ff" points="410.16,-188.85 400.59,-184.29 405.23,-193.82 410.16,-188.85"/>
</a>
</g>
</g>
<!-- Node15 -->
<g id="Node000015" class="node">
<title>Node15</title>
<g id="a_Node000015"><a xlink:href="ssd1306_8h.html" target="_top" xlink:title=" ">
<polygon fill="white" stroke="#666666" points="537,-239 471,-239 471,-220 537,-220 537,-239"/>
<text text-anchor="middle" x="504" y="-227" font-family="Helvetica,sans-Serif" font-size="10.00">ssd1306.h</text>
</a>
</g>
</g>
<!-- Node12&#45;&gt;Node15 -->
<g id="edge14_Node000012_Node000015" class="edge">
<title>Node12&#45;&gt;Node15</title>
<g id="a_edge14_Node000012_Node000015"><a xlink:title=" ">
<path fill="none" stroke="#63b8ff" d="M529.88,-274.75C525.64,-267.49 519.47,-256.95 514.22,-247.98"/>
<polygon fill="#63b8ff" stroke="#63b8ff" points="517.09,-245.95 509.02,-239.09 511.05,-249.49 517.09,-245.95"/>
</a>
</g>
</g>
<!-- Node15&#45;&gt;Node13 -->
<g id="edge16_Node000015_Node000013" class="edge">
<title>Node15&#45;&gt;Node13</title>
<g id="a_edge16_Node000015_Node000013"><a xlink:title=" ">
<path fill="none" stroke="#63b8ff" d="M509.65,-219.66C521.08,-201.77 547.12,-161 562.02,-137.69"/>
<polygon fill="#63b8ff" stroke="#63b8ff" points="565.03,-139.47 567.47,-129.16 559.13,-135.7 565.03,-139.47"/>
</a>
</g>
</g>
<!-- Node15&#45;&gt;Node14 -->
<g id="edge15_Node000015_Node000014" class="edge">
<title>Node15&#45;&gt;Node14</title>
<g id="a_edge15_Node000015_Node000014"><a xlink:title=" ">
<path fill="none" stroke="#63b8ff" d="M486.01,-219.98C468.07,-211.5 440.28,-198.35 419.57,-188.54"/>
<polygon fill="#63b8ff" stroke="#63b8ff" points="420.86,-185.28 410.32,-184.17 417.86,-191.61 420.86,-185.28"/>
</a>
</g>
</g>
<!-- Node16 -->
<g id="Node000016" class="node">
<title>Node16</title>
<g id="a_Node000016"><a xlink:href="ssd1306__i2c_8h.html" target="_top" xlink:title=" ">
<polygon fill="white" stroke="#666666" points="523,-184 437,-184 437,-165 523,-165 523,-184"/>
<text text-anchor="middle" x="480" y="-172" font-family="Helvetica,sans-Serif" font-size="10.00">ssd1306_i2c.h</text>
</a>
</g>
</g>
<!-- Node15&#45;&gt;Node16 -->
<g id="edge17_Node000015_Node000016" class="edge">
<title>Node15&#45;&gt;Node16</title>
<g id="a_edge17_Node000015_Node000016"><a xlink:title=" ">
<path fill="none" stroke="#63b8ff" d="M500.04,-219.75C496.79,-212.57 492.08,-202.18 488.05,-193.27"/>
<polygon fill="#63b8ff" stroke="#63b8ff" points="491.2,-191.75 483.89,-184.09 484.83,-194.64 491.2,-191.75"/>
</a>
</g>
</g>
<!-- Node16&#45;&gt;Node3 -->
<g id="edge18_Node000016_Node000003" class="edge">
<title>Node16&#45;&gt;Node3</title>
<g id="a_edge18_Node000016_Node000003"><a xlink:title=" ">
<path fill="none" stroke="#63b8ff" d="M446.26,-164.98C410.32,-155.91 353.28,-141.52 313.87,-131.57"/>
<polygon fill="#63b8ff" stroke="#63b8ff" points="314.56,-128.14 304,-129.08 312.84,-134.92 314.56,-128.14"/>
</a>
</g>
</g>
<!-- Node16&#45;&gt;Node13 -->
<g id="edge19_Node000016_Node000013" class="edge">
<title>Node16&#45;&gt;Node13</title>
<g id="a_edge19_Node000016_Node000013"><a xlink:title=" ">
<path fill="none" stroke="#63b8ff" d="M494.94,-164.98C509.5,-156.69 531.87,-143.94 548.93,-134.22"/>
<polygon fill="#63b8ff" stroke="#63b8ff" points="550.83,-137.16 557.79,-129.17 547.36,-131.08 550.83,-137.16"/>
</a>
</g>
</g>
<!-- Node17 -->
<g id="Node000017" class="node">
<title>Node17</title>
<g id="a_Node000017"><a xlink:title=" ">
<polygon fill="#e0e0e0" stroke="#999999" points="417.5,-129 326.5,-129 326.5,-110 417.5,-110 417.5,-129"/>
<text text-anchor="middle" x="372" y="-117" font-family="Helvetica,sans-Serif" font-size="10.00">pico/platform.h</text>
</a>
</g>
</g>
<!-- Node16&#45;&gt;Node17 -->
<g id="edge20_Node000016_Node000017" class="edge">
<title>Node16&#45;&gt;Node17</title>
<g id="a_edge20_Node000016_Node000017"><a xlink:title=" ">
<path fill="none" stroke="#63b8ff" d="M462.65,-164.98C445.43,-156.54 418.8,-143.47 398.85,-133.68"/>
<polygon fill="#63b8ff" stroke="#63b8ff" points="400.19,-130.43 389.67,-129.17 397.1,-136.72 400.19,-130.43"/>
</a>
</g>
</g>
<!-- Node18 -->
<g id="Node000018" class="node">
<title>Node18</title>
<g id="a_Node000018"><a xlink:href="i2c_8h.html" target="_top" xlink:title=" ">
<polygon fill="white" stroke="#666666" points="524.5,-129 435.5,-129 435.5,-110 524.5,-110 524.5,-129"/>
<text text-anchor="middle" x="480" y="-117" font-family="Helvetica,sans-Serif" font-size="10.00">hardware/i2c.h</text>
</a>
</g>
</g>
<!-- Node16&#45;&gt;Node18 -->
<g id="edge21_Node000016_Node000018" class="edge">
<title>Node16&#45;&gt;Node18</title>
<g id="a_edge21_Node000016_Node000018"><a xlink:title=" ">
<path fill="none" stroke="#63b8ff" d="M480,-164.75C480,-157.8 480,-147.85 480,-139.13"/>
<polygon fill="#63b8ff" stroke="#63b8ff" points="483.5,-139.09 480,-129.09 476.5,-139.09 483.5,-139.09"/>
</a>
</g>
</g>
<!-- Node18&#45;&gt;Node4 -->
<g id="edge22_Node000018_Node000004" class="edge">
<title>Node18&#45;&gt;Node4</title>
<g id="a_edge22_Node000018_Node000004"><a xlink:title=" ">
<path fill="none" stroke="#63b8ff" d="M463.13,-109.98C446.39,-101.54 420.5,-88.47 401.11,-78.68"/>
<polygon fill="#63b8ff" stroke="#63b8ff" points="402.68,-75.55 392.18,-74.17 399.53,-81.8 402.68,-75.55"/>
</a>
</g>
</g>
</g>
</svg>
