<?xml version="1.0" encoding="UTF-8" standalone="no"?>
<!DOCTYPE svg PUBLIC "-//W3C//DTD SVG 1.1//EN"
 "http://www.w3.org/Graphics/SVG/1.1/DTD/svg11.dtd">
<!-- Generated by graphviz version 2.43.0 (0)
 -->
<!-- Title: I2C&#45;RP2040&#45;RP2350/I2C.h Pages: 1 -->
<svg width="242pt" height="192pt"
 viewBox="0.00 0.00 241.72 192.00" xmlns="http://www.w3.org/2000/svg" xmlns:xlink="http://www.w3.org/1999/xlink">
<g id="graph0" class="graph" transform="scale(1 1) rotate(0) translate(4 188)">
<title>I2C&#45;RP2040&#45;RP2350/I2C.h</title>
<!-- Node1 -->
<g id="Node000001" class="node">
<title>Node1</title>
<g id="a_Node000001"><a xlink:title="Interface C++ simples para o periférico I2C do RP2040/RP2350.">
<polygon fill="#999999" stroke="#666666" points="177.72,-184 36.72,-184 36.72,-165 177.72,-165 177.72,-184"/>
<text text-anchor="middle" x="107.22" y="-172" font-family="Helvetica,sans-Serif" font-size="10.00">I2C&#45;RP2040&#45;RP2350/I2C.h</text>
</a>
</g>
</g>
<!-- Node2 -->
<g id="Node000002" class="node">
<title>Node2</title>
<g id="a_Node000002"><a xlink:href="stdlib_8h.html" target="_top" xlink:title=" ">
<polygon fill="white" stroke="#666666" points="95.22,-129 19.22,-129 19.22,-110 95.22,-110 95.22,-129"/>
<text text-anchor="middle" x="57.22" y="-117" font-family="Helvetica,sans-Serif" font-size="10.00">pico/stdlib.h</text>
</a>
</g>
</g>
<!-- Node1&#45;&gt;Node2 -->
<g id="edge1_Node000001_Node000002" class="edge">
<title>Node1&#45;&gt;Node2</title>
<g id="a_edge1_Node000001_Node000002"><a xlink:title=" ">
<path fill="none" stroke="#63b8ff" d="M98.96,-164.75C91.75,-157.11 81.11,-145.82 72.37,-136.56"/>
<polygon fill="#63b8ff" stroke="#63b8ff" points="74.73,-133.96 65.32,-129.09 69.64,-138.76 74.73,-133.96"/>
</a>
</g>
</g>
<!-- Node4 -->
<g id="Node000004" class="node">
<title>Node4</title>
<g id="a_Node000004"><a xlink:title=" ">
<polygon fill="#e0e0e0" stroke="#999999" points="50.22,-19 0.22,-19 0.22,0 50.22,0 50.22,-19"/>
<text text-anchor="middle" x="25.22" y="-7" font-family="Helvetica,sans-Serif" font-size="10.00">cstdint</text>
</a>
</g>
</g>
<!-- Node1&#45;&gt;Node4 -->
<g id="edge9_Node000001_Node000004" class="edge">
<title>Node1&#45;&gt;Node4</title>
<g id="a_edge9_Node000001_Node000004"><a xlink:title=" ">
<path fill="none" stroke="#63b8ff" d="M64.09,-164.93C44.1,-158.57 22.17,-147.64 10.22,-129 -9.67,-98 5.26,-52.97 16.27,-28.3"/>
<polygon fill="#63b8ff" stroke="#63b8ff" points="19.52,-29.61 20.63,-19.08 13.19,-26.62 19.52,-29.61"/>
</a>
</g>
</g>
<!-- Node5 -->
<g id="Node000005" class="node">
<title>Node5</title>
<g id="a_Node000005"><a xlink:title=" ">
<polygon fill="#e0e0e0" stroke="#999999" points="233.72,-19 180.72,-19 180.72,0 233.72,0 233.72,-19"/>
<text text-anchor="middle" x="207.22" y="-7" font-family="Helvetica,sans-Serif" font-size="10.00">cstddef</text>
</a>
</g>
</g>
<!-- Node1&#45;&gt;Node5 -->
<g id="edge8_Node000001_Node000005" class="edge">
<title>Node1&#45;&gt;Node5</title>
<g id="a_edge8_Node000001_Node000005"><a xlink:title=" ">
<path fill="none" stroke="#63b8ff" d="M156.06,-164.95C176.72,-158.65 198.83,-147.77 211.22,-129 231.26,-98.62 221.71,-53.67 213.88,-28.77"/>
<polygon fill="#63b8ff" stroke="#63b8ff" points="217.14,-27.5 210.62,-19.15 210.51,-29.74 217.14,-27.5"/>
</a>
</g>
</g>
<!-- Node7 -->
<g id="Node000007" class="node">
<title>Node7</title>
<g id="a_Node000007"><a xlink:href="i2c_8h.html" target="_top" xlink:title=" ">
<polygon fill="white" stroke="#666666" points="202.72,-129 113.72,-129 113.72,-110 202.72,-110 202.72,-129"/>
<text text-anchor="middle" x="158.22" y="-117" font-family="Helvetica,sans-Serif" font-size="10.00">hardware/i2c.h</text>
</a>
</g>
</g>
<!-- Node1&#45;&gt;Node7 -->
<g id="edge6_Node000001_Node000007" class="edge">
<title>Node1&#45;&gt;Node7</title>
<g id="a_edge6_Node000001_Node000007"><a xlink:title=" ">
<path fill="none" stroke="#63b8ff" d="M115.64,-164.75C122.99,-157.11 133.85,-145.82 142.76,-136.56"/>
<polygon fill="#63b8ff" stroke="#63b8ff" points="145.54,-138.72 149.95,-129.09 140.5,-133.87 145.54,-138.72"/>
</a>
</g>
</g>
<!-- Node3 -->
<g id="Node000003" class="node">
<title>Node3</title>
<g id="a_Node000003"><a xlink:href="pico__sdk__stubs_8h.html" target="_top" xlink:title=" ">
<polygon fill="white" stroke="#666666" points="151.72,-74 42.72,-74 42.72,-55 151.72,-55 151.72,-74"/>
<text text-anchor="middle" x="97.22" y="-62" font-family="Helvetica,sans-Serif" font-size="10.00">../pico_sdk_stubs.h</text>
</a>
</g>
</g>
<!-- Node2&#45;&gt;Node3 -->
<g id="edge2_Node000002_Node000003" class="edge">
<title>Node2&#45;&gt;Node3</title>
<g id="a_edge2_Node000002_Node000003"><a xlink:title=" ">
<path fill="none" stroke="#63b8ff" d="M63.82,-109.75C69.47,-102.26 77.76,-91.28 84.67,-82.13"/>
<polygon fill="#63b8ff" stroke="#63b8ff" points="87.5,-84.18 90.73,-74.09 81.92,-79.96 87.5,-84.18"/>
</a>
</g>
</g>
<!-- Node3&#45;&gt;Node4 -->
<g id="edge3_Node000003_Node000004" class="edge">
<title>Node3&#45;&gt;Node4</title>
<g id="a_edge3_Node000003_Node000004"><a xlink:title=" ">
<path fill="none" stroke="#63b8ff" d="M85.65,-54.98C74.8,-47 58.34,-34.88 45.33,-25.31"/>
<polygon fill="#63b8ff" stroke="#63b8ff" points="47.12,-22.28 37,-19.17 42.97,-27.92 47.12,-22.28"/>
</a>
</g>
</g>
<!-- Node3&#45;&gt;Node5 -->
<g id="edge4_Node000003_Node000005" class="edge">
<title>Node3&#45;&gt;Node5</title>
<g id="a_edge4_Node000003_Node000005"><a xlink:title=" ">
<path fill="none" stroke="#63b8ff" d="M114.89,-54.98C132.51,-46.5 159.8,-33.35 180.14,-23.54"/>
<polygon fill="#63b8ff" stroke="#63b8ff" points="181.73,-26.66 189.22,-19.17 178.69,-20.36 181.73,-26.66"/>
</a>
</g>
</g>
<!-- Node6 -->
<g id="Node000006" class="node">
<title>Node6</title>
<g id="a_Node000006"><a xlink:title=" ">
<polygon fill="#e0e0e0" stroke="#999999" points="116.22,-19 78.22,-19 78.22,0 116.22,0 116.22,-19"/>
<text text-anchor="middle" x="97.22" y="-7" font-family="Helvetica,sans-Serif" font-size="10.00">map</text>
</a>
</g>
</g>
<!-- Node3&#45;&gt;Node6 -->
<g id="edge5_Node000003_Node000006" class="edge">
<title>Node3&#45;&gt;Node6</title>
<g id="a_edge5_Node000003_Node000006"><a xlink:title=" ">
<path fill="none" stroke="#63b8ff" d="M97.22,-54.75C97.22,-47.8 97.22,-37.85 97.22,-29.13"/>
<polygon fill="#63b8ff" stroke="#63b8ff" points="100.72,-29.09 97.22,-19.09 93.72,-29.09 100.72,-29.09"/>
</a>
</g>
</g>
<!-- Node7&#45;&gt;Node3 -->
<g id="edge7_Node000007_Node000003" class="edge">
<title>Node7&#45;&gt;Node3</title>
<g id="a_edge7_Node000007_Node000003"><a xlink:title=" ">
<path fill="none" stroke="#63b8ff" d="M148.42,-109.98C139.4,-102.15 125.81,-90.34 114.9,-80.86"/>
<polygon fill="#63b8ff" stroke="#63b8ff" points="117.04,-78.09 107.2,-74.17 112.45,-83.37 117.04,-78.09"/>
</a>
</g>
</g>
</g>
</svg>
