<?xml version="1.0" encoding="UTF-8" standalone="no"?>
<!DOCTYPE svg PUBLIC "-//W3C//DTD SVG 1.1//EN"
 "http://www.w3.org/Graphics/SVG/1.1/DTD/svg11.dtd">
<!-- Generated by graphviz version 2.43.0 (0)
 -->
<!-- Title: I2C&#45;RP2040&#45;RP2350/I2C.h Pages: 1 -->
<svg width="1049pt" height="159pt"
 viewBox="0.00 0.00 1048.50 159.00" xmlns="http://www.w3.org/2000/svg" xmlns:xlink="http://www.w3.org/1999/xlink">
<g id="graph0" class="graph" transform="scale(1 1) rotate(0) translate(4 155)">
<title>I2C&#45;RP2040&#45;RP2350/I2C.h</title>
<!-- Node1 -->
<g id="Node000001" class="node">
<title>Node1</title>
<g id="a_Node000001"><a xlink:title="Interface C++ simples para o periférico I2C do RP2040/RP2350.">
<polygon fill="#999999" stroke="#666666" points="562.5,-151 421.5,-151 421.5,-132 562.5,-132 562.5,-151"/>
<text text-anchor="middle" x="492" y="-139" font-family="Helvetica,sans-Serif" font-size="10.00">I2C&#45;RP2040&#45;RP2350/I2C.h</text>
</a>
</g>
</g>
<!-- Node2 -->
<g id="Node000002" class="node">
<title>Node2</title>
<g id="a_Node000002"><a xlink:href="bh1750_8h.html" target="_top" xlink:title=" ">
<polygon fill="white" stroke="#666666" points="194,-96 58,-96 58,-66 194,-66 194,-96"/>
<text text-anchor="start" x="66" y="-84" font-family="Helvetica,sans-Serif" font-size="10.00">BH1750&#45;RP2040&#45;RP3050</text>
<text text-anchor="middle" x="126" y="-73" font-family="Helvetica,sans-Serif" font-size="10.00">/BH1750/bh1750.h</text>
</a>
</g>
</g>
<!-- Node1&#45;&gt;Node2 -->
<g id="edge1_Node000001_Node000002" class="edge">
<title>Node1&#45;&gt;Node2</title>
<g id="a_edge1_Node000001_Node000002"><a xlink:title=" ">
<path fill="none" stroke="#63b8ff" d="M426.13,-130.44C368.54,-121.58 282.69,-108.23 208,-96 203.44,-95.25 198.74,-94.47 194,-93.68"/>
<polygon fill="#63b8ff" stroke="#63b8ff" points="425.77,-133.93 436.19,-131.99 426.84,-127.01 425.77,-133.93"/>
</a>
</g>
</g>
<!-- Node4 -->
<g id="Node000004" class="node">
<title>Node4</title>
<g id="a_Node000004"><a xlink:href="BH1750-RP2040-RP3050_2main_8cpp.html" target="_top" xlink:title=" ">
<polygon fill="white" stroke="#666666" points="290,-30 154,-30 154,0 290,0 290,-30"/>
<text text-anchor="start" x="162" y="-18" font-family="Helvetica,sans-Serif" font-size="10.00">BH1750&#45;RP2040&#45;RP3050</text>
<text text-anchor="middle" x="222" y="-7" font-family="Helvetica,sans-Serif" font-size="10.00">/main.cpp</text>
</a>
</g>
</g>
<!-- Node1&#45;&gt;Node4 -->
<g id="edge4_Node000001_Node000004" class="edge">
<title>Node1&#45;&gt;Node4</title>
<g id="a_edge4_Node000001_Node000004"><a xlink:title=" ">
<path fill="none" stroke="#63b8ff" d="M411.22,-135.67C347.4,-130.18 265.17,-118.82 241,-96 222.94,-78.95 220.65,-48.12 221.04,-30.12"/>
<polygon fill="#63b8ff" stroke="#63b8ff" points="411.04,-139.17 421.3,-136.5 411.62,-132.19 411.04,-139.17"/>
</a>
</g>
</g>
<!-- Node5 -->
<g id="Node000005" class="node">
<title>Node5</title>
<g id="a_Node000005"><a xlink:href="I2C_8cpp.html" target="_top" xlink:title=" ">
<polygon fill="white" stroke="#666666" points="402,-90.5 250,-90.5 250,-71.5 402,-71.5 402,-90.5"/>
<text text-anchor="middle" x="326" y="-78.5" font-family="Helvetica,sans-Serif" font-size="10.00">I2C&#45;RP2040&#45;RP2350/I2C.cpp</text>
</a>
</g>
</g>
<!-- Node1&#45;&gt;Node5 -->
<g id="edge5_Node000001_Node000005" class="edge">
<title>Node1&#45;&gt;Node5</title>
<g id="a_edge5_Node000001_Node000005"><a xlink:title=" ">
<path fill="none" stroke="#63b8ff" d="M458.02,-128.52C425.92,-117.21 378.58,-100.53 350.17,-90.52"/>
<polygon fill="#63b8ff" stroke="#63b8ff" points="457.27,-131.97 467.86,-131.99 459.59,-125.37 457.27,-131.97"/>
</a>
</g>
</g>
<!-- Node6 -->
<g id="Node000006" class="node">
<title>Node6</title>
<g id="a_Node000006"><a xlink:href="MPU6050_8cpp.html" target="_top" xlink:title="Implementação do driver do sensor MPU6050 utilizando o proxy I2C.">
<polygon fill="white" stroke="#666666" points="564,-96 420,-96 420,-66 564,-66 564,-96"/>
<text text-anchor="start" x="428" y="-84" font-family="Helvetica,sans-Serif" font-size="10.00">MPU6050&#45;RP2040&#45;RP2350</text>
<text text-anchor="middle" x="492" y="-73" font-family="Helvetica,sans-Serif" font-size="10.00">/MPU6050/MPU6050.cpp</text>
</a>
</g>
</g>
<!-- Node1&#45;&gt;Node6 -->
<g id="edge6_Node000001_Node000006" class="edge">
<title>Node1&#45;&gt;Node6</title>
<g id="a_edge6_Node000001_Node000006"><a xlink:title=" ">
<path fill="none" stroke="#63b8ff" d="M492,-121.65C492,-113.36 492,-103.78 492,-96.11"/>
<polygon fill="#63b8ff" stroke="#63b8ff" points="488.5,-121.87 492,-131.87 495.5,-121.87 488.5,-121.87"/>
</a>
</g>
</g>
<!-- Node7 -->
<g id="Node000007" class="node">
<title>Node7</title>
<g id="a_Node000007"><a xlink:href="MPU6050-RP2040-RP2350_2main_8cpp.html" target="_top" xlink:title="Exemplo de uso do driver MPU6050 com o proxy I2C.">
<polygon fill="white" stroke="#666666" points="726,-96 582,-96 582,-66 726,-66 726,-96"/>
<text text-anchor="start" x="590" y="-84" font-family="Helvetica,sans-Serif" font-size="10.00">MPU6050&#45;RP2040&#45;RP2350</text>
<text text-anchor="middle" x="654" y="-73" font-family="Helvetica,sans-Serif" font-size="10.00">/main.cpp</text>
</a>
</g>
</g>
<!-- Node1&#45;&gt;Node7 -->
<g id="edge7_Node000001_Node000007" class="edge">
<title>Node1&#45;&gt;Node7</title>
<g id="a_edge7_Node000001_Node000007"><a xlink:title=" ">
<path fill="none" stroke="#63b8ff" d="M525,-128.58C551.08,-119.16 587.54,-106 615.05,-96.06"/>
<polygon fill="#63b8ff" stroke="#63b8ff" points="523.77,-125.31 515.56,-131.99 526.15,-131.89 523.77,-125.31"/>
</a>
</g>
</g>
<!-- Node8 -->
<g id="Node000008" class="node">
<title>Node8</title>
<g id="a_Node000008"><a xlink:href="VL53L0X-RP2040-RP2350_2main_8cpp.html" target="_top" xlink:title=" ">
<polygon fill="white" stroke="#666666" points="883.5,-96 744.5,-96 744.5,-66 883.5,-66 883.5,-96"/>
<text text-anchor="start" x="752.5" y="-84" font-family="Helvetica,sans-Serif" font-size="10.00">VL53L0X&#45;RP2040&#45;RP2350</text>
<text text-anchor="middle" x="814" y="-73" font-family="Helvetica,sans-Serif" font-size="10.00">/main.cpp</text>
</a>
</g>
</g>
<!-- Node1&#45;&gt;Node8 -->
<g id="edge8_Node000001_Node000008" class="edge">
<title>Node1&#45;&gt;Node8</title>
<g id="a_edge8_Node000001_Node000008"><a xlink:title=" ">
<path fill="none" stroke="#63b8ff" d="M548.66,-130.21C603.17,-120.3 685.72,-105.31 744.25,-94.67"/>
<polygon fill="#63b8ff" stroke="#63b8ff" points="548.03,-126.76 538.82,-131.99 549.29,-133.65 548.03,-126.76"/>
</a>
</g>
</g>
<!-- Node9 -->
<g id="Node000009" class="node">
<title>Node9</title>
<g id="a_Node000009"><a xlink:href="VL53L0X_8cpp.html" target="_top" xlink:title="Implementação da classe VL53L0X para RP2040.">
<polygon fill="white" stroke="#666666" points="1040.5,-96 901.5,-96 901.5,-66 1040.5,-66 1040.5,-96"/>
<text text-anchor="start" x="909.5" y="-84" font-family="Helvetica,sans-Serif" font-size="10.00">VL53L0X&#45;RP2040&#45;RP2350</text>
<text text-anchor="middle" x="971" y="-73" font-family="Helvetica,sans-Serif" font-size="10.00">/vl53l0x/VL53L0X.cpp</text>
</a>
</g>
</g>
<!-- Node1&#45;&gt;Node9 -->
<g id="edge9_Node000001_Node000009" class="edge">
<title>Node1&#45;&gt;Node9</title>
<g id="a_edge9_Node000001_Node000009"><a xlink:title=" ">
<path fill="none" stroke="#63b8ff" d="M572.95,-133.12C654.09,-125.35 782.48,-112.03 893,-96 895.72,-95.6 898.5,-95.19 901.3,-94.75"/>
<polygon fill="#63b8ff" stroke="#63b8ff" points="572.43,-129.66 562.81,-134.09 573.1,-136.63 572.43,-129.66"/>
</a>
</g>
</g>
<!-- Node3 -->
<g id="Node000003" class="node">
<title>Node3</title>
<g id="a_Node000003"><a xlink:href="bh1750_8cpp.html" target="_top" xlink:title=" ">
<polygon fill="white" stroke="#666666" points="136,-30 0,-30 0,0 136,0 136,-30"/>
<text text-anchor="start" x="8" y="-18" font-family="Helvetica,sans-Serif" font-size="10.00">BH1750&#45;RP2040&#45;RP3050</text>
<text text-anchor="middle" x="68" y="-7" font-family="Helvetica,sans-Serif" font-size="10.00">/BH1750/bh1750.cpp</text>
</a>
</g>
</g>
<!-- Node2&#45;&gt;Node3 -->
<g id="edge2_Node000002_Node000003" class="edge">
<title>Node2&#45;&gt;Node3</title>
<g id="a_edge2_Node000002_Node000003"><a xlink:title=" ">
<path fill="none" stroke="#63b8ff" d="M106.4,-58.37C97.96,-49.06 88.34,-38.44 80.84,-30.16"/>
<polygon fill="#63b8ff" stroke="#63b8ff" points="103.82,-60.74 113.13,-65.8 109.01,-56.04 103.82,-60.74"/>
</a>
</g>
</g>
<!-- Node2&#45;&gt;Node4 -->
<g id="edge3_Node000002_Node000004" class="edge">
<title>Node2&#45;&gt;Node4</title>
<g id="a_edge3_Node000002_Node000004"><a xlink:title=" ">
<path fill="none" stroke="#63b8ff" d="M155.96,-60.03C170.49,-50.34 187.59,-38.94 200.75,-30.16"/>
<polygon fill="#63b8ff" stroke="#63b8ff" points="153.68,-57.34 147.31,-65.8 157.57,-63.16 153.68,-57.34"/>
</a>
</g>
</g>
</g>
</svg>
