<?xml version="1.0" encoding="UTF-8" standalone="no"?>
<!DOCTYPE svg PUBLIC "-//W3C//DTD SVG 1.1//EN"
 "http://www.w3.org/Graphics/SVG/1.1/DTD/svg11.dtd">
<!-- Generated by graphviz version 2.43.0 (0)
 -->
<!-- Title: RP&#45;Pico&#45;Mock/include/hardware/i2c.h Pages: 1 -->
<svg width="1500pt" height="346pt"
 viewBox="0.00 0.00 1500.00 346.00" xmlns="http://www.w3.org/2000/svg" xmlns:xlink="http://www.w3.org/1999/xlink">
<g id="graph0" class="graph" transform="scale(1 1) rotate(0) translate(4 342)">
<title>RP&#45;Pico&#45;Mock/include/hardware/i2c.h</title>
<!-- Node1 -->
<g id="Node000001" class="node">
<title>Node1</title>
<g id="a_Node000001"><a xlink:title=" ">
<polygon fill="#999999" stroke="#666666" points="1235,-338 1113,-338 1113,-308 1235,-308 1235,-338"/>
<text text-anchor="start" x="1121" y="-326" font-family="Helvetica,sans-Serif" font-size="10.00">RP&#45;Pico&#45;Mock/include</text>
<text text-anchor="middle" x="1174" y="-315" font-family="Helvetica,sans-Serif" font-size="10.00">/hardware/i2c.h</text>
</a>
</g>
</g>
<!-- Node2 -->
<g id="Node000002" class="node">
<title>Node2</title>
<g id="a_Node000002"><a xlink:href="I2C_8h.html" target="_top" xlink:title="Interface C++ simples para o periférico I2C do RP2040/RP2350.">
<polygon fill="white" stroke="#666666" points="643.5,-261 502.5,-261 502.5,-242 643.5,-242 643.5,-261"/>
<text text-anchor="middle" x="573" y="-249" font-family="Helvetica,sans-Serif" font-size="10.00">I2C&#45;RP2040&#45;RP2350/I2C.h</text>
</a>
</g>
</g>
<!-- Node1&#45;&gt;Node2 -->
<g id="edge1_Node000001_Node000002" class="edge">
<title>Node1&#45;&gt;Node2</title>
<g id="a_edge1_Node000001_Node000002"><a xlink:title=" ">
<path fill="none" stroke="#63b8ff" d="M1102.61,-313.74C986.75,-300.35 759.14,-274.03 643.72,-260.68"/>
<polygon fill="#63b8ff" stroke="#63b8ff" points="1102.45,-317.25 1112.79,-314.92 1103.25,-310.3 1102.45,-317.25"/>
</a>
</g>
</g>
<!-- Node11 -->
<g id="Node000011" class="node">
<title>Node11</title>
<g id="a_Node000011"><a xlink:href="ssd1306__i2c_8c.html" target="_top" xlink:title=" ">
<polygon fill="white" stroke="#666666" points="1193.5,-195 1058.5,-195 1058.5,-154 1193.5,-154 1193.5,-195"/>
<text text-anchor="start" x="1066.5" y="-183" font-family="Helvetica,sans-Serif" font-size="10.00">OLED_SSD1306&#45;RP2040</text>
<text text-anchor="start" x="1066.5" y="-172" font-family="Helvetica,sans-Serif" font-size="10.00">&#45;RP2350/OLED_SSD1306</text>
<text text-anchor="middle" x="1126" y="-161" font-family="Helvetica,sans-Serif" font-size="10.00">/ssd1306_i2c.c</text>
</a>
</g>
</g>
<!-- Node1&#45;&gt;Node11 -->
<g id="edge11_Node000001_Node000011" class="edge">
<title>Node1&#45;&gt;Node11</title>
<g id="a_edge11_Node000001_Node000011"><a xlink:title=" ">
<path fill="none" stroke="#63b8ff" d="M1158.58,-299.09C1153.61,-290.85 1148.49,-281.28 1145,-272 1135.38,-246.43 1130.36,-215.13 1127.95,-195.25"/>
<polygon fill="#63b8ff" stroke="#63b8ff" points="1155.74,-301.16 1164.03,-307.76 1161.67,-297.43 1155.74,-301.16"/>
</a>
</g>
</g>
<!-- Node12 -->
<g id="Node000012" class="node">
<title>Node12</title>
<g id="a_Node000012"><a xlink:href="ssd1306__i2c_8h.html" target="_top" xlink:title=" ">
<polygon fill="white" stroke="#666666" points="1289.5,-272 1154.5,-272 1154.5,-231 1289.5,-231 1289.5,-272"/>
<text text-anchor="start" x="1162.5" y="-260" font-family="Helvetica,sans-Serif" font-size="10.00">OLED_SSD1306&#45;RP2040</text>
<text text-anchor="start" x="1162.5" y="-249" font-family="Helvetica,sans-Serif" font-size="10.00">&#45;RP2350/OLED_SSD1306</text>
<text text-anchor="middle" x="1222" y="-238" font-family="Helvetica,sans-Serif" font-size="10.00">/ssd1306_i2c.h</text>
</a>
</g>
</g>
<!-- Node1&#45;&gt;Node12 -->
<g id="edge12_Node000001_Node000012" class="edge">
<title>Node1&#45;&gt;Node12</title>
<g id="a_edge12_Node000001_Node000012"><a xlink:title=" ">
<path fill="none" stroke="#63b8ff" d="M1189.48,-299.59C1195.6,-290.73 1202.57,-280.63 1208.48,-272.07"/>
<polygon fill="#63b8ff" stroke="#63b8ff" points="1186.52,-297.72 1183.71,-307.94 1192.28,-301.7 1186.52,-297.72"/>
</a>
</g>
</g>
<!-- Node17 -->
<g id="Node000017" class="node">
<title>Node17</title>
<g id="a_Node000017"><a xlink:href="OLED__SSD1306-RP2040-RP2350_2main_8c.html" target="_top" xlink:title=" ">
<polygon fill="white" stroke="#666666" points="1492,-35.5 1360,-35.5 1360,-5.5 1492,-5.5 1492,-35.5"/>
<text text-anchor="start" x="1368" y="-23.5" font-family="Helvetica,sans-Serif" font-size="10.00">OLED_SSD1306&#45;RP2040</text>
<text text-anchor="middle" x="1426" y="-12.5" font-family="Helvetica,sans-Serif" font-size="10.00">&#45;RP2350/main.c</text>
</a>
</g>
</g>
<!-- Node1&#45;&gt;Node17 -->
<g id="edge20_Node000001_Node000017" class="edge">
<title>Node1&#45;&gt;Node17</title>
<g id="a_edge20_Node000001_Node000017"><a xlink:title=" ">
<path fill="none" stroke="#63b8ff" d="M1236.01,-304.58C1257.03,-296.79 1279.77,-286.1 1298,-272 1379.89,-208.65 1413.93,-78.43 1423.21,-35.54"/>
<polygon fill="#63b8ff" stroke="#63b8ff" points="1234.75,-301.32 1226.5,-307.96 1237.1,-307.91 1234.75,-301.32"/>
</a>
</g>
</g>
<!-- Node3 -->
<g id="Node000003" class="node">
<title>Node3</title>
<g id="a_Node000003"><a xlink:href="bh1750_8h.html" target="_top" xlink:title=" ">
<polygon fill="white" stroke="#666666" points="194,-189.5 58,-189.5 58,-159.5 194,-159.5 194,-189.5"/>
<text text-anchor="start" x="66" y="-177.5" font-family="Helvetica,sans-Serif" font-size="10.00">BH1750&#45;RP2040&#45;RP3050</text>
<text text-anchor="middle" x="126" y="-166.5" font-family="Helvetica,sans-Serif" font-size="10.00">/BH1750/bh1750.h</text>
</a>
</g>
</g>
<!-- Node2&#45;&gt;Node3 -->
<g id="edge2_Node000002_Node000003" class="edge">
<title>Node2&#45;&gt;Node3</title>
<g id="a_edge2_Node000002_Node000003"><a xlink:title=" ">
<path fill="none" stroke="#63b8ff" d="M495.6,-240.62C421.49,-230.71 306.7,-214.21 208,-195 199.67,-193.38 190.9,-191.49 182.33,-189.54"/>
<polygon fill="#63b8ff" stroke="#63b8ff" points="495.4,-244.12 505.78,-241.97 496.32,-237.18 495.4,-244.12"/>
</a>
</g>
</g>
<!-- Node5 -->
<g id="Node000005" class="node">
<title>Node5</title>
<g id="a_Node000005"><a xlink:href="BH1750-RP2040-RP3050_2main_8cpp.html" target="_top" xlink:title=" ">
<polygon fill="white" stroke="#666666" points="290,-112.5 154,-112.5 154,-82.5 290,-82.5 290,-112.5"/>
<text text-anchor="start" x="162" y="-100.5" font-family="Helvetica,sans-Serif" font-size="10.00">BH1750&#45;RP2040&#45;RP3050</text>
<text text-anchor="middle" x="222" y="-89.5" font-family="Helvetica,sans-Serif" font-size="10.00">/main.cpp</text>
</a>
</g>
</g>
<!-- Node2&#45;&gt;Node5 -->
<g id="edge5_Node000002_Node000005" class="edge">
<title>Node2&#45;&gt;Node5</title>
<g id="a_edge5_Node000002_Node000005"><a xlink:title=" ">
<path fill="none" stroke="#63b8ff" d="M492.29,-247.32C405.7,-242.17 275.87,-228.88 241,-195 218.71,-173.34 218.51,-133.71 220.26,-112.6"/>
<polygon fill="#63b8ff" stroke="#63b8ff" points="492.18,-250.81 502.37,-247.89 492.58,-243.83 492.18,-250.81"/>
</a>
</g>
</g>
<!-- Node6 -->
<g id="Node000006" class="node">
<title>Node6</title>
<g id="a_Node000006"><a xlink:href="I2C_8cpp.html" target="_top" xlink:title=" ">
<polygon fill="white" stroke="#666666" points="402,-184 250,-184 250,-165 402,-165 402,-184"/>
<text text-anchor="middle" x="326" y="-172" font-family="Helvetica,sans-Serif" font-size="10.00">I2C&#45;RP2040&#45;RP2350/I2C.cpp</text>
</a>
</g>
</g>
<!-- Node2&#45;&gt;Node6 -->
<g id="edge6_Node000002_Node000006" class="edge">
<title>Node2&#45;&gt;Node6</title>
<g id="a_edge6_Node000002_Node000006"><a xlink:title=" ">
<path fill="none" stroke="#63b8ff" d="M534.88,-238.93C484.9,-223.75 398.37,-197.47 354,-184"/>
<polygon fill="#63b8ff" stroke="#63b8ff" points="534.08,-242.34 544.67,-241.9 536.11,-235.64 534.08,-242.34"/>
</a>
</g>
</g>
<!-- Node7 -->
<g id="Node000007" class="node">
<title>Node7</title>
<g id="a_Node000007"><a xlink:href="MPU6050_8cpp.html" target="_top" xlink:title="Implementação do driver do sensor MPU6050 utilizando o proxy I2C.">
<polygon fill="white" stroke="#666666" points="564,-189.5 420,-189.5 420,-159.5 564,-159.5 564,-189.5"/>
<text text-anchor="start" x="428" y="-177.5" font-family="Helvetica,sans-Serif" font-size="10.00">MPU6050&#45;RP2040&#45;RP2350</text>
<text text-anchor="middle" x="492" y="-166.5" font-family="Helvetica,sans-Serif" font-size="10.00">/MPU6050/MPU6050.cpp</text>
</a>
</g>
</g>
<!-- Node2&#45;&gt;Node7 -->
<g id="edge7_Node000002_Node000007" class="edge">
<title>Node2&#45;&gt;Node7</title>
<g id="a_edge7_Node000002_Node000007"><a xlink:title=" ">
<path fill="none" stroke="#63b8ff" d="M556.02,-234.78C541.62,-221.44 521.13,-202.47 507.24,-189.61"/>
<polygon fill="#63b8ff" stroke="#63b8ff" points="553.99,-237.67 563.71,-241.9 558.75,-232.53 553.99,-237.67"/>
</a>
</g>
</g>
<!-- Node8 -->
<g id="Node000008" class="node">
<title>Node8</title>
<g id="a_Node000008"><a xlink:href="MPU6050-RP2040-RP2350_2main_8cpp.html" target="_top" xlink:title="Exemplo de uso do driver MPU6050 com o proxy I2C.">
<polygon fill="white" stroke="#666666" points="726,-189.5 582,-189.5 582,-159.5 726,-159.5 726,-189.5"/>
<text text-anchor="start" x="590" y="-177.5" font-family="Helvetica,sans-Serif" font-size="10.00">MPU6050&#45;RP2040&#45;RP2350</text>
<text text-anchor="middle" x="654" y="-166.5" font-family="Helvetica,sans-Serif" font-size="10.00">/main.cpp</text>
</a>
</g>
</g>
<!-- Node2&#45;&gt;Node8 -->
<g id="edge8_Node000002_Node000008" class="edge">
<title>Node2&#45;&gt;Node8</title>
<g id="a_edge8_Node000002_Node000008"><a xlink:title=" ">
<path fill="none" stroke="#63b8ff" d="M589.98,-234.78C604.38,-221.44 624.87,-202.47 638.76,-189.61"/>
<polygon fill="#63b8ff" stroke="#63b8ff" points="587.25,-232.53 582.29,-241.9 592.01,-237.67 587.25,-232.53"/>
</a>
</g>
</g>
<!-- Node9 -->
<g id="Node000009" class="node">
<title>Node9</title>
<g id="a_Node000009"><a xlink:href="VL53L0X-RP2040-RP2350_2main_8cpp.html" target="_top" xlink:title=" ">
<polygon fill="white" stroke="#666666" points="883.5,-189.5 744.5,-189.5 744.5,-159.5 883.5,-159.5 883.5,-189.5"/>
<text text-anchor="start" x="752.5" y="-177.5" font-family="Helvetica,sans-Serif" font-size="10.00">VL53L0X&#45;RP2040&#45;RP2350</text>
<text text-anchor="middle" x="814" y="-166.5" font-family="Helvetica,sans-Serif" font-size="10.00">/main.cpp</text>
</a>
</g>
</g>
<!-- Node2&#45;&gt;Node9 -->
<g id="edge9_Node000002_Node000009" class="edge">
<title>Node2&#45;&gt;Node9</title>
<g id="a_edge9_Node000002_Node000009"><a xlink:title=" ">
<path fill="none" stroke="#63b8ff" d="M610.36,-238.87C653.05,-225.59 722.89,-203.85 768.65,-189.61"/>
<polygon fill="#63b8ff" stroke="#63b8ff" points="609.15,-235.58 600.65,-241.9 611.23,-242.27 609.15,-235.58"/>
</a>
</g>
</g>
<!-- Node10 -->
<g id="Node000010" class="node">
<title>Node10</title>
<g id="a_Node000010"><a xlink:href="VL53L0X_8cpp.html" target="_top" xlink:title="Implementação da classe VL53L0X para RP2040.">
<polygon fill="white" stroke="#666666" points="1040.5,-189.5 901.5,-189.5 901.5,-159.5 1040.5,-159.5 1040.5,-189.5"/>
<text text-anchor="start" x="909.5" y="-177.5" font-family="Helvetica,sans-Serif" font-size="10.00">VL53L0X&#45;RP2040&#45;RP2350</text>
<text text-anchor="middle" x="971" y="-166.5" font-family="Helvetica,sans-Serif" font-size="10.00">/vl53l0x/VL53L0X.cpp</text>
</a>
</g>
</g>
<!-- Node2&#45;&gt;Node10 -->
<g id="edge10_Node000002_Node000010" class="edge">
<title>Node2&#45;&gt;Node10</title>
<g id="a_edge10_Node000002_Node000010"><a xlink:title=" ">
<path fill="none" stroke="#63b8ff" d="M638.89,-240.41C703.58,-230.19 804.93,-213.3 892,-195 899.88,-193.34 908.17,-191.46 916.29,-189.53"/>
<polygon fill="#63b8ff" stroke="#63b8ff" points="638.17,-236.98 628.83,-242 639.26,-243.9 638.17,-236.98"/>
</a>
</g>
</g>
<!-- Node4 -->
<g id="Node000004" class="node">
<title>Node4</title>
<g id="a_Node000004"><a xlink:href="bh1750_8cpp.html" target="_top" xlink:title=" ">
<polygon fill="white" stroke="#666666" points="136,-112.5 0,-112.5 0,-82.5 136,-82.5 136,-112.5"/>
<text text-anchor="start" x="8" y="-100.5" font-family="Helvetica,sans-Serif" font-size="10.00">BH1750&#45;RP2040&#45;RP3050</text>
<text text-anchor="middle" x="68" y="-89.5" font-family="Helvetica,sans-Serif" font-size="10.00">/BH1750/bh1750.cpp</text>
</a>
</g>
</g>
<!-- Node3&#45;&gt;Node4 -->
<g id="edge3_Node000003_Node000004" class="edge">
<title>Node3&#45;&gt;Node4</title>
<g id="a_edge3_Node000003_Node000004"><a xlink:title=" ">
<path fill="none" stroke="#63b8ff" d="M108.78,-151.24C99.09,-138.7 87.27,-123.42 78.86,-112.54"/>
<polygon fill="#63b8ff" stroke="#63b8ff" points="106.2,-153.62 115.09,-159.39 111.74,-149.34 106.2,-153.62"/>
</a>
</g>
</g>
<!-- Node3&#45;&gt;Node5 -->
<g id="edge4_Node000003_Node000005" class="edge">
<title>Node3&#45;&gt;Node5</title>
<g id="a_edge4_Node000003_Node000005"><a xlink:title=" ">
<path fill="none" stroke="#63b8ff" d="M152.21,-153.03C168.65,-140.18 189.43,-123.94 204.02,-112.54"/>
<polygon fill="#63b8ff" stroke="#63b8ff" points="149.78,-150.48 144.06,-159.39 154.09,-155.99 149.78,-150.48"/>
</a>
</g>
</g>
<!-- Node12&#45;&gt;Node11 -->
<g id="edge19_Node000012_Node000011" class="edge">
<title>Node12&#45;&gt;Node11</title>
<g id="a_edge19_Node000012_Node000011"><a xlink:title=" ">
<path fill="none" stroke="#63b8ff" d="M1189.12,-224.82C1176.71,-215.11 1162.78,-204.24 1151.18,-195.17"/>
<polygon fill="#63b8ff" stroke="#63b8ff" points="1186.99,-227.59 1197.03,-230.99 1191.3,-222.08 1186.99,-227.59"/>
</a>
</g>
</g>
<!-- Node13 -->
<g id="Node000013" class="node">
<title>Node13</title>
<g id="a_Node000013"><a xlink:href="ssd1306_8h.html" target="_top" xlink:title=" ">
<polygon fill="white" stroke="#666666" points="1346.5,-195 1211.5,-195 1211.5,-154 1346.5,-154 1346.5,-195"/>
<text text-anchor="start" x="1219.5" y="-183" font-family="Helvetica,sans-Serif" font-size="10.00">OLED_SSD1306&#45;RP2040</text>
<text text-anchor="start" x="1219.5" y="-172" font-family="Helvetica,sans-Serif" font-size="10.00">&#45;RP2350/OLED_SSD1306</text>
<text text-anchor="middle" x="1279" y="-161" font-family="Helvetica,sans-Serif" font-size="10.00">/ssd1306.h</text>
</a>
</g>
</g>
<!-- Node12&#45;&gt;Node13 -->
<g id="edge13_Node000012_Node000013" class="edge">
<title>Node12&#45;&gt;Node13</title>
<g id="a_edge13_Node000012_Node000013"><a xlink:title=" ">
<path fill="none" stroke="#63b8ff" d="M1243.15,-222.67C1250.12,-213.5 1257.72,-203.5 1264.12,-195.07"/>
<polygon fill="#63b8ff" stroke="#63b8ff" points="1240.24,-220.72 1236.98,-230.79 1245.81,-224.95 1240.24,-220.72"/>
</a>
</g>
</g>
<!-- Node14 -->
<g id="Node000014" class="node">
<title>Node14</title>
<g id="a_Node000014"><a xlink:href="oled_8c.html" target="_top" xlink:title=" ">
<polygon fill="white" stroke="#666666" points="1198.5,-41 1063.5,-41 1063.5,0 1198.5,0 1198.5,-41"/>
<text text-anchor="start" x="1071.5" y="-29" font-family="Helvetica,sans-Serif" font-size="10.00">OLED_SSD1306&#45;RP2040</text>
<text text-anchor="start" x="1071.5" y="-18" font-family="Helvetica,sans-Serif" font-size="10.00">&#45;RP2350/OLED_SSD1306</text>
<text text-anchor="middle" x="1131" y="-7" font-family="Helvetica,sans-Serif" font-size="10.00">/oled.c</text>
</a>
</g>
</g>
<!-- Node13&#45;&gt;Node14 -->
<g id="edge14_Node000013_Node000014" class="edge">
<title>Node13&#45;&gt;Node14</title>
<g id="a_edge14_Node000013_Node000014"><a xlink:title=" ">
<path fill="none" stroke="#63b8ff" d="M1238.84,-148.12C1226.38,-139.33 1213.04,-128.93 1202,-118 1177.91,-94.14 1155.71,-61.55 1142.76,-41.01"/>
<polygon fill="#63b8ff" stroke="#63b8ff" points="1237.07,-151.14 1247.29,-153.93 1241.03,-145.38 1237.07,-151.14"/>
</a>
</g>
</g>
<!-- Node15 -->
<g id="Node000015" class="node">
<title>Node15</title>
<g id="a_Node000015"><a xlink:href="oled_8h.html" target="_top" xlink:title=" ">
<polygon fill="white" stroke="#666666" points="1346.5,-118 1211.5,-118 1211.5,-77 1346.5,-77 1346.5,-118"/>
<text text-anchor="start" x="1219.5" y="-106" font-family="Helvetica,sans-Serif" font-size="10.00">OLED_SSD1306&#45;RP2040</text>
<text text-anchor="start" x="1219.5" y="-95" font-family="Helvetica,sans-Serif" font-size="10.00">&#45;RP2350/OLED_SSD1306</text>
<text text-anchor="middle" x="1279" y="-84" font-family="Helvetica,sans-Serif" font-size="10.00">/oled.h</text>
</a>
</g>
</g>
<!-- Node13&#45;&gt;Node15 -->
<g id="edge15_Node000013_Node000015" class="edge">
<title>Node13&#45;&gt;Node15</title>
<g id="a_edge15_Node000013_Node000015"><a xlink:title=" ">
<path fill="none" stroke="#63b8ff" d="M1279,-143.69C1279,-135.08 1279,-125.9 1279,-118.07"/>
<polygon fill="#63b8ff" stroke="#63b8ff" points="1275.5,-143.79 1279,-153.79 1282.5,-143.79 1275.5,-143.79"/>
</a>
</g>
</g>
<!-- Node15&#45;&gt;Node14 -->
<g id="edge17_Node000015_Node000014" class="edge">
<title>Node15&#45;&gt;Node14</title>
<g id="a_edge17_Node000015_Node000014"><a xlink:title=" ">
<path fill="none" stroke="#63b8ff" d="M1231.54,-72.45C1211.52,-62.3 1188.51,-50.64 1169.56,-41.04"/>
<polygon fill="#63b8ff" stroke="#63b8ff" points="1230,-75.59 1240.5,-76.99 1233.16,-69.35 1230,-75.59"/>
</a>
</g>
</g>
<!-- Node16 -->
<g id="Node000016" class="node">
<title>Node16</title>
<g id="a_Node000016"><a xlink:href="HDMI-RP2040-RP2350_2main_8c.html" target="_top" xlink:title=" ">
<polygon fill="white" stroke="#666666" points="1341.5,-35.5 1216.5,-35.5 1216.5,-5.5 1341.5,-5.5 1341.5,-35.5"/>
<text text-anchor="start" x="1224.5" y="-23.5" font-family="Helvetica,sans-Serif" font-size="10.00">HDMI&#45;RP2040&#45;RP2350</text>
<text text-anchor="middle" x="1279" y="-12.5" font-family="Helvetica,sans-Serif" font-size="10.00">/main.c</text>
</a>
</g>
</g>
<!-- Node15&#45;&gt;Node16 -->
<g id="edge16_Node000015_Node000016" class="edge">
<title>Node15&#45;&gt;Node16</title>
<g id="a_edge16_Node000015_Node000016"><a xlink:title=" ">
<path fill="none" stroke="#63b8ff" d="M1279,-66.61C1279,-56.01 1279,-44.57 1279,-35.86"/>
<polygon fill="#63b8ff" stroke="#63b8ff" points="1275.5,-66.79 1279,-76.79 1282.5,-66.79 1275.5,-66.79"/>
</a>
</g>
</g>
<!-- Node15&#45;&gt;Node17 -->
<g id="edge18_Node000015_Node000017" class="edge">
<title>Node15&#45;&gt;Node17</title>
<g id="a_edge18_Node000015_Node000017"><a xlink:title=" ">
<path fill="none" stroke="#63b8ff" d="M1326.43,-72.3C1350.12,-60.22 1377.96,-46.01 1398.17,-35.7"/>
<polygon fill="#63b8ff" stroke="#63b8ff" points="1324.56,-69.33 1317.24,-76.99 1327.74,-75.56 1324.56,-69.33"/>
</a>
</g>
</g>
</g>
</svg>
