<?xml version="1.0" encoding="UTF-8" standalone="no"?>
<!DOCTYPE svg PUBLIC "-//W3C//DTD SVG 1.1//EN"
 "http://www.w3.org/Graphics/SVG/1.1/DTD/svg11.dtd">
<!-- Generated by graphviz version 2.43.0 (0)
 -->
<!-- Title: MPU6050&#45;RP2040&#45;RP2350/main.cpp Pages: 1 -->
<svg width="352pt" height="258pt"
 viewBox="0.00 0.00 352.00 258.00" xmlns="http://www.w3.org/2000/svg" xmlns:xlink="http://www.w3.org/1999/xlink">
<g id="graph0" class="graph" transform="scale(1 1) rotate(0) translate(4 254)">
<title>MPU6050&#45;RP2040&#45;RP2350/main.cpp</title>
<!-- Node1 -->
<g id="Node000001" class="node">
<title>Node1</title>
<g id="a_Node000001"><a xlink:title="Exemplo de uso do driver MPU6050 com o proxy I2C.">
<polygon fill="#999999" stroke="#666666" points="260.5,-250 116.5,-250 116.5,-220 260.5,-220 260.5,-250"/>
<text text-anchor="start" x="124.5" y="-238" font-family="Helvetica,sans-Serif" font-size="10.00">MPU6050&#45;RP2040&#45;RP2350</text>
<text text-anchor="middle" x="188.5" y="-227" font-family="Helvetica,sans-Serif" font-size="10.00">/main.cpp</text>
</a>
</g>
</g>
<!-- Node2 -->
<g id="Node000002" class="node">
<title>Node2</title>
<g id="a_Node000002"><a xlink:title=" ">
<polygon fill="#e0e0e0" stroke="#999999" points="111.5,-184 61.5,-184 61.5,-165 111.5,-165 111.5,-184"/>
<text text-anchor="middle" x="86.5" y="-172" font-family="Helvetica,sans-Serif" font-size="10.00">stdio.h</text>
</a>
</g>
</g>
<!-- Node1&#45;&gt;Node2 -->
<g id="edge1_Node000001_Node000002" class="edge">
<title>Node1&#45;&gt;Node2</title>
<g id="a_edge1_Node000001_Node000002"><a xlink:title=" ">
<path fill="none" stroke="#63b8ff" d="M164.07,-219.99C147.81,-210.66 126.55,-198.47 110.4,-189.21"/>
<polygon fill="#63b8ff" stroke="#63b8ff" points="111.98,-186.08 101.56,-184.14 108.5,-192.15 111.98,-186.08"/>
</a>
</g>
</g>
<!-- Node3 -->
<g id="Node000003" class="node">
<title>Node3</title>
<g id="a_Node000003"><a xlink:href="stdlib_8h.html" target="_top" xlink:title=" ">
<polygon fill="white" stroke="#666666" points="53,-129 0,-129 0,-110 53,-110 53,-129"/>
<text text-anchor="middle" x="26.5" y="-117" font-family="Helvetica,sans-Serif" font-size="10.00">stdlib.h</text>
</a>
</g>
</g>
<!-- Node1&#45;&gt;Node3 -->
<g id="edge2_Node000001_Node000003" class="edge">
<title>Node1&#45;&gt;Node3</title>
<g id="a_edge2_Node000001_Node000003"><a xlink:title=" ">
<path fill="none" stroke="#63b8ff" d="M177.18,-219.86C164.57,-204.8 142.99,-180.97 120.5,-165 101.69,-151.65 78.25,-140.54 59.48,-132.76"/>
<polygon fill="#63b8ff" stroke="#63b8ff" points="60.73,-129.49 50.14,-129.01 58.11,-135.99 60.73,-129.49"/>
</a>
</g>
</g>
<!-- Node8 -->
<g id="Node000008" class="node">
<title>Node8</title>
<g id="a_Node000008"><a xlink:title=" ">
<polygon fill="#e0e0e0" stroke="#999999" points="344,-184 293,-184 293,-165 344,-165 344,-184"/>
<text text-anchor="middle" x="318.5" y="-172" font-family="Helvetica,sans-Serif" font-size="10.00">math.h</text>
</a>
</g>
</g>
<!-- Node1&#45;&gt;Node8 -->
<g id="edge7_Node000001_Node000008" class="edge">
<title>Node1&#45;&gt;Node8</title>
<g id="a_edge7_Node000001_Node000008"><a xlink:title=" ">
<path fill="none" stroke="#63b8ff" d="M219.64,-219.99C241.04,-210.36 269.23,-197.67 290.03,-188.31"/>
<polygon fill="#63b8ff" stroke="#63b8ff" points="291.62,-191.43 299.3,-184.14 288.75,-185.05 291.62,-191.43"/>
</a>
</g>
</g>
<!-- Node9 -->
<g id="Node000009" class="node">
<title>Node9</title>
<g id="a_Node000009"><a xlink:href="I2C_8h.html" target="_top" xlink:title="Interface C++ simples para o periférico I2C do RP2040/RP2350.">
<polygon fill="white" stroke="#666666" points="209,-184 168,-184 168,-165 209,-165 209,-184"/>
<text text-anchor="middle" x="188.5" y="-172" font-family="Helvetica,sans-Serif" font-size="10.00">I2C.h</text>
</a>
</g>
</g>
<!-- Node1&#45;&gt;Node9 -->
<g id="edge8_Node000001_Node000009" class="edge">
<title>Node1&#45;&gt;Node9</title>
<g id="a_edge8_Node000001_Node000009"><a xlink:title=" ">
<path fill="none" stroke="#63b8ff" d="M188.5,-219.84C188.5,-212.21 188.5,-202.7 188.5,-194.45"/>
<polygon fill="#63b8ff" stroke="#63b8ff" points="192,-194.27 188.5,-184.27 185,-194.27 192,-194.27"/>
</a>
</g>
</g>
<!-- Node11 -->
<g id="Node000011" class="node">
<title>Node11</title>
<g id="a_Node000011"><a xlink:href="MPU6050_8h.html" target="_top" xlink:title="Driver de alto nível para o sensor inercial MPU6050 usando o proxy I2C.">
<polygon fill="white" stroke="#666666" points="326.5,-74 254.5,-74 254.5,-55 326.5,-55 326.5,-74"/>
<text text-anchor="middle" x="290.5" y="-62" font-family="Helvetica,sans-Serif" font-size="10.00">MPU6050.h</text>
</a>
</g>
</g>
<!-- Node1&#45;&gt;Node11 -->
<g id="edge14_Node000001_Node000011" class="edge">
<title>Node1&#45;&gt;Node11</title>
<g id="a_edge14_Node000001_Node000011"><a xlink:title=" ">
<path fill="none" stroke="#63b8ff" d="M197.02,-219.92C215.59,-189.26 259.64,-116.48 279.93,-82.96"/>
<polygon fill="#63b8ff" stroke="#63b8ff" points="283.02,-84.62 285.2,-74.25 277.03,-81 283.02,-84.62"/>
</a>
</g>
</g>
<!-- Node4 -->
<g id="Node000004" class="node">
<title>Node4</title>
<g id="a_Node000004"><a xlink:href="pico__sdk__stubs_8h.html" target="_top" xlink:title=" ">
<polygon fill="white" stroke="#666666" points="160,-74 51,-74 51,-55 160,-55 160,-74"/>
<text text-anchor="middle" x="105.5" y="-62" font-family="Helvetica,sans-Serif" font-size="10.00">../pico_sdk_stubs.h</text>
</a>
</g>
</g>
<!-- Node3&#45;&gt;Node4 -->
<g id="edge3_Node000003_Node000004" class="edge">
<title>Node3&#45;&gt;Node4</title>
<g id="a_edge3_Node000003_Node000004"><a xlink:title=" ">
<path fill="none" stroke="#63b8ff" d="M39.19,-109.98C51.33,-101.84 69.86,-89.41 84.25,-79.76"/>
<polygon fill="#63b8ff" stroke="#63b8ff" points="86.22,-82.65 92.58,-74.17 82.32,-76.84 86.22,-82.65"/>
</a>
</g>
</g>
<!-- Node5 -->
<g id="Node000005" class="node">
<title>Node5</title>
<g id="a_Node000005"><a xlink:title=" ">
<polygon fill="#e0e0e0" stroke="#999999" points="258.5,-19 208.5,-19 208.5,0 258.5,0 258.5,-19"/>
<text text-anchor="middle" x="233.5" y="-7" font-family="Helvetica,sans-Serif" font-size="10.00">cstdint</text>
</a>
</g>
</g>
<!-- Node4&#45;&gt;Node5 -->
<g id="edge4_Node000004_Node000005" class="edge">
<title>Node4&#45;&gt;Node5</title>
<g id="a_edge4_Node000004_Node000005"><a xlink:title=" ">
<path fill="none" stroke="#63b8ff" d="M126.07,-54.98C146.93,-46.34 179.47,-32.87 203.27,-23.02"/>
<polygon fill="#63b8ff" stroke="#63b8ff" points="204.66,-26.23 212.56,-19.17 201.98,-19.76 204.66,-26.23"/>
</a>
</g>
</g>
<!-- Node6 -->
<g id="Node000006" class="node">
<title>Node6</title>
<g id="a_Node000006"><a xlink:title=" ">
<polygon fill="#e0e0e0" stroke="#999999" points="190,-19 137,-19 137,0 190,0 190,-19"/>
<text text-anchor="middle" x="163.5" y="-7" font-family="Helvetica,sans-Serif" font-size="10.00">cstddef</text>
</a>
</g>
</g>
<!-- Node4&#45;&gt;Node6 -->
<g id="edge5_Node000004_Node000006" class="edge">
<title>Node4&#45;&gt;Node6</title>
<g id="a_edge5_Node000004_Node000006"><a xlink:title=" ">
<path fill="none" stroke="#63b8ff" d="M114.82,-54.98C123.31,-47.23 136.06,-35.58 146.38,-26.14"/>
<polygon fill="#63b8ff" stroke="#63b8ff" points="148.99,-28.5 154.01,-19.17 144.27,-23.33 148.99,-28.5"/>
</a>
</g>
</g>
<!-- Node7 -->
<g id="Node000007" class="node">
<title>Node7</title>
<g id="a_Node000007"><a xlink:title=" ">
<polygon fill="#e0e0e0" stroke="#999999" points="118.5,-19 80.5,-19 80.5,0 118.5,0 118.5,-19"/>
<text text-anchor="middle" x="99.5" y="-7" font-family="Helvetica,sans-Serif" font-size="10.00">map</text>
</a>
</g>
</g>
<!-- Node4&#45;&gt;Node7 -->
<g id="edge6_Node000004_Node000007" class="edge">
<title>Node4&#45;&gt;Node7</title>
<g id="a_edge6_Node000004_Node000007"><a xlink:title=" ">
<path fill="none" stroke="#63b8ff" d="M104.51,-54.75C103.72,-47.8 102.6,-37.85 101.61,-29.13"/>
<polygon fill="#63b8ff" stroke="#63b8ff" points="105.08,-28.63 100.47,-19.09 98.12,-29.42 105.08,-28.63"/>
</a>
</g>
</g>
<!-- Node9&#45;&gt;Node3 -->
<g id="edge9_Node000009_Node000003" class="edge">
<title>Node9&#45;&gt;Node3</title>
<g id="a_edge9_Node000009_Node000003"><a xlink:title=" ">
<path fill="none" stroke="#63b8ff" d="M167.98,-166.79C141.44,-158.1 94.77,-142.83 62.32,-132.22"/>
<polygon fill="#63b8ff" stroke="#63b8ff" points="63.33,-128.87 52.74,-129.09 61.16,-135.52 63.33,-128.87"/>
</a>
</g>
</g>
<!-- Node9&#45;&gt;Node5 -->
<g id="edge13_Node000009_Node000005" class="edge">
<title>Node9&#45;&gt;Node5</title>
<g id="a_edge13_Node000009_Node000005"><a xlink:title=" ">
<path fill="none" stroke="#63b8ff" d="M190.92,-164.74C197.97,-139.2 218.61,-64.43 228.33,-29.23"/>
<polygon fill="#63b8ff" stroke="#63b8ff" points="231.78,-29.88 231.07,-19.31 225.03,-28.01 231.78,-29.88"/>
</a>
</g>
</g>
<!-- Node9&#45;&gt;Node6 -->
<g id="edge12_Node000009_Node000006" class="edge">
<title>Node9&#45;&gt;Node6</title>
<g id="a_edge12_Node000009_Node000006"><a xlink:title=" ">
<path fill="none" stroke="#63b8ff" d="M187.16,-164.74C183.24,-139.2 171.77,-64.43 166.37,-29.23"/>
<polygon fill="#63b8ff" stroke="#63b8ff" points="169.83,-28.66 164.85,-19.31 162.91,-29.72 169.83,-28.66"/>
</a>
</g>
</g>
<!-- Node10 -->
<g id="Node000010" class="node">
<title>Node10</title>
<g id="a_Node000010"><a xlink:href="i2c_8h.html" target="_top" xlink:title=" ">
<polygon fill="white" stroke="#666666" points="160,-129 71,-129 71,-110 160,-110 160,-129"/>
<text text-anchor="middle" x="115.5" y="-117" font-family="Helvetica,sans-Serif" font-size="10.00">hardware/i2c.h</text>
</a>
</g>
</g>
<!-- Node9&#45;&gt;Node10 -->
<g id="edge10_Node000009_Node000010" class="edge">
<title>Node9&#45;&gt;Node10</title>
<g id="a_edge10_Node000009_Node000010"><a xlink:title=" ">
<path fill="none" stroke="#63b8ff" d="M176.77,-164.98C165.77,-157 149.08,-144.88 135.9,-135.31"/>
<polygon fill="#63b8ff" stroke="#63b8ff" points="137.59,-132.21 127.44,-129.17 133.48,-137.88 137.59,-132.21"/>
</a>
</g>
</g>
<!-- Node10&#45;&gt;Node4 -->
<g id="edge11_Node000010_Node000004" class="edge">
<title>Node10&#45;&gt;Node4</title>
<g id="a_edge11_Node000010_Node000004"><a xlink:title=" ">
<path fill="none" stroke="#63b8ff" d="M113.85,-109.75C112.54,-102.8 110.66,-92.85 109.02,-84.13"/>
<polygon fill="#63b8ff" stroke="#63b8ff" points="112.41,-83.27 107.12,-74.09 105.54,-84.56 112.41,-83.27"/>
</a>
</g>
</g>
<!-- Node11&#45;&gt;Node5 -->
<g id="edge15_Node000011_Node000005" class="edge">
<title>Node11&#45;&gt;Node5</title>
<g id="a_edge15_Node000011_Node000005"><a xlink:title=" ">
<path fill="none" stroke="#63b8ff" d="M281.34,-54.98C273,-47.23 260.47,-35.58 250.32,-26.14"/>
<polygon fill="#63b8ff" stroke="#63b8ff" points="252.53,-23.42 242.82,-19.17 247.76,-28.54 252.53,-23.42"/>
</a>
</g>
</g>
</g>
</svg>
