<?xml version="1.0" encoding="UTF-8" standalone="no"?>
<!DOCTYPE svg PUBLIC "-//W3C//DTD SVG 1.1//EN"
 "http://www.w3.org/Graphics/SVG/1.1/DTD/svg11.dtd">
<!-- Generated by graphviz version 2.43.0 (0)
 -->
<!-- Title: MPU6050&#45;RP2040&#45;RP2350/MPU6050/MPU6050.h Pages: 1 -->
<svg width="314pt" height="104pt"
 viewBox="0.00 0.00 314.00 104.00" xmlns="http://www.w3.org/2000/svg" xmlns:xlink="http://www.w3.org/1999/xlink">
<g id="graph0" class="graph" transform="scale(1 1) rotate(0) translate(4 100)">
<title>MPU6050&#45;RP2040&#45;RP2350/MPU6050/MPU6050.h</title>
<!-- Node1 -->
<g id="Node000001" class="node">
<title>Node1</title>
<g id="a_Node000001"><a xlink:title="Driver de alto nível para o sensor inercial MPU6050 usando o proxy I2C.">
<polygon fill="#999999" stroke="#666666" points="225,-96 81,-96 81,-66 225,-66 225,-96"/>
<text text-anchor="start" x="89" y="-84" font-family="Helvetica,sans-Serif" font-size="10.00">MPU6050&#45;RP2040&#45;RP2350</text>
<text text-anchor="middle" x="153" y="-73" font-family="Helvetica,sans-Serif" font-size="10.00">/MPU6050/MPU6050.h</text>
</a>
</g>
</g>
<!-- Node2 -->
<g id="Node000002" class="node">
<title>Node2</title>
<g id="a_Node000002"><a xlink:href="MPU6050_8cpp.html" target="_top" xlink:title="Implementação do driver do sensor MPU6050 utilizando o proxy I2C.">
<polygon fill="white" stroke="#666666" points="144,-30 0,-30 0,0 144,0 144,-30"/>
<text text-anchor="start" x="8" y="-18" font-family="Helvetica,sans-Serif" font-size="10.00">MPU6050&#45;RP2040&#45;RP2350</text>
<text text-anchor="middle" x="72" y="-7" font-family="Helvetica,sans-Serif" font-size="10.00">/MPU6050/MPU6050.cpp</text>
</a>
</g>
</g>
<!-- Node1&#45;&gt;Node2 -->
<g id="edge1_Node000001_Node000002" class="edge">
<title>Node1&#45;&gt;Node2</title>
<g id="a_edge1_Node000001_Node000002"><a xlink:title=" ">
<path fill="none" stroke="#63b8ff" d="M127.03,-59.48C114.92,-49.91 100.82,-38.77 89.93,-30.16"/>
<polygon fill="#63b8ff" stroke="#63b8ff" points="125.01,-62.34 135.02,-65.8 129.35,-56.85 125.01,-62.34"/>
</a>
</g>
</g>
<!-- Node3 -->
<g id="Node000003" class="node">
<title>Node3</title>
<g id="a_Node000003"><a xlink:href="MPU6050-RP2040-RP2350_2main_8cpp.html" target="_top" xlink:title="Exemplo de uso do driver MPU6050 com o proxy I2C.">
<polygon fill="white" stroke="#666666" points="306,-30 162,-30 162,0 306,0 306,-30"/>
<text text-anchor="start" x="170" y="-18" font-family="Helvetica,sans-Serif" font-size="10.00">MPU6050&#45;RP2040&#45;RP2350</text>
<text text-anchor="middle" x="234" y="-7" font-family="Helvetica,sans-Serif" font-size="10.00">/main.cpp</text>
</a>
</g>
</g>
<!-- Node1&#45;&gt;Node3 -->
<g id="edge2_Node000001_Node000003" class="edge">
<title>Node1&#45;&gt;Node3</title>
<g id="a_edge2_Node000001_Node000003"><a xlink:title=" ">
<path fill="none" stroke="#63b8ff" d="M178.97,-59.48C191.08,-49.91 205.18,-38.77 216.07,-30.16"/>
<polygon fill="#63b8ff" stroke="#63b8ff" points="176.65,-56.85 170.98,-65.8 180.99,-62.34 176.65,-56.85"/>
</a>
</g>
</g>
</g>
</svg>
