<?xml version="1.0" encoding="UTF-8" standalone="no"?>
<!DOCTYPE svg PUBLIC "-//W3C//DTD SVG 1.1//EN"
 "http://www.w3.org/Graphics/SVG/1.1/DTD/svg11.dtd">
<!-- Generated by graphviz version 2.43.0 (0)
 -->
<!-- Title: MPU6050&#45;RP2040&#45;RP2350/MPU6050/MPU6050.cpp Pages: 1 -->
<svg width="352pt" height="258pt"
 viewBox="0.00 0.00 351.50 258.00" xmlns="http://www.w3.org/2000/svg" xmlns:xlink="http://www.w3.org/1999/xlink">
<g id="graph0" class="graph" transform="scale(1 1) rotate(0) translate(4 254)">
<title>MPU6050&#45;RP2040&#45;RP2350/MPU6050/MPU6050.cpp</title>
<!-- Node1 -->
<g id="Node000001" class="node">
<title>Node1</title>
<g id="a_Node000001"><a xlink:title="Implementação do driver do sensor MPU6050 utilizando o proxy I2C.">
<polygon fill="#999999" stroke="#666666" points="144,-250 0,-250 0,-220 144,-220 144,-250"/>
<text text-anchor="start" x="8" y="-238" font-family="Helvetica,sans-Serif" font-size="10.00">MPU6050&#45;RP2040&#45;RP2350</text>
<text text-anchor="middle" x="72" y="-227" font-family="Helvetica,sans-Serif" font-size="10.00">/MPU6050/MPU6050.cpp</text>
</a>
</g>
</g>
<!-- Node2 -->
<g id="Node000002" class="node">
<title>Node2</title>
<g id="a_Node000002"><a xlink:href="MPU6050_8h.html" target="_top" xlink:title="Driver de alto nível para o sensor inercial MPU6050 usando o proxy I2C.">
<polygon fill="white" stroke="#666666" points="117,-74 45,-74 45,-55 117,-55 117,-74"/>
<text text-anchor="middle" x="81" y="-62" font-family="Helvetica,sans-Serif" font-size="10.00">MPU6050.h</text>
</a>
</g>
</g>
<!-- Node1&#45;&gt;Node2 -->
<g id="edge1_Node000001_Node000002" class="edge">
<title>Node1&#45;&gt;Node2</title>
<g id="a_edge1_Node000001_Node000002"><a xlink:title=" ">
<path fill="none" stroke="#63b8ff" d="M67.18,-219.66C60.06,-196.36 48.53,-148.94 58,-110 60.31,-100.51 65.02,-90.78 69.58,-82.85"/>
<polygon fill="#63b8ff" stroke="#63b8ff" points="72.64,-84.55 74.9,-74.2 66.68,-80.89 72.64,-84.55"/>
</a>
</g>
</g>
<!-- Node3 -->
<g id="Node000003" class="node">
<title>Node3</title>
<g id="a_Node000003"><a xlink:title=" ">
<polygon fill="#e0e0e0" stroke="#999999" points="146,-19 96,-19 96,0 146,0 146,-19"/>
<text text-anchor="middle" x="121" y="-7" font-family="Helvetica,sans-Serif" font-size="10.00">cstdint</text>
</a>
</g>
</g>
<!-- Node1&#45;&gt;Node3 -->
<g id="edge14_Node000001_Node000003" class="edge">
<title>Node1&#45;&gt;Node3</title>
<g id="a_edge14_Node000001_Node000003"><a xlink:title=" ">
<path fill="none" stroke="#63b8ff" d="M62.87,-219.84C43.61,-187.98 3.17,-109.24 36,-55 46.89,-37 67.73,-25.93 86.04,-19.33"/>
<polygon fill="#63b8ff" stroke="#63b8ff" points="87.19,-22.64 95.6,-16.2 85.01,-15.99 87.19,-22.64"/>
</a>
</g>
</g>
<!-- Node4 -->
<g id="Node000004" class="node">
<title>Node4</title>
<g id="a_Node000004"><a xlink:href="I2C_8h.html" target="_top" xlink:title="Interface C++ simples para o periférico I2C do RP2040/RP2350.">
<polygon fill="white" stroke="#666666" points="191.5,-184 150.5,-184 150.5,-165 191.5,-165 191.5,-184"/>
<text text-anchor="middle" x="171" y="-172" font-family="Helvetica,sans-Serif" font-size="10.00">I2C.h</text>
</a>
</g>
</g>
<!-- Node1&#45;&gt;Node4 -->
<g id="edge3_Node000001_Node000004" class="edge">
<title>Node1&#45;&gt;Node4</title>
<g id="a_edge3_Node000001_Node000004"><a xlink:title=" ">
<path fill="none" stroke="#63b8ff" d="M95.71,-219.99C111.35,-210.75 131.74,-198.7 147.36,-189.47"/>
<polygon fill="#63b8ff" stroke="#63b8ff" points="149.55,-192.24 156.38,-184.14 145.99,-186.21 149.55,-192.24"/>
</a>
</g>
</g>
<!-- Node5 -->
<g id="Node000005" class="node">
<title>Node5</title>
<g id="a_Node000005"><a xlink:href="stdlib_8h.html" target="_top" xlink:title=" ">
<polygon fill="white" stroke="#666666" points="143,-129 67,-129 67,-110 143,-110 143,-129"/>
<text text-anchor="middle" x="105" y="-117" font-family="Helvetica,sans-Serif" font-size="10.00">pico/stdlib.h</text>
</a>
</g>
</g>
<!-- Node1&#45;&gt;Node5 -->
<g id="edge13_Node000001_Node000005" class="edge">
<title>Node1&#45;&gt;Node5</title>
<g id="a_edge13_Node000001_Node000005"><a xlink:title=" ">
<path fill="none" stroke="#63b8ff" d="M76.18,-219.63C82.14,-199.12 93.09,-161.47 99.64,-138.93"/>
<polygon fill="#63b8ff" stroke="#63b8ff" points="103.03,-139.81 102.46,-129.23 96.31,-137.85 103.03,-139.81"/>
</a>
</g>
</g>
<!-- Node2&#45;&gt;Node3 -->
<g id="edge2_Node000002_Node000003" class="edge">
<title>Node2&#45;&gt;Node3</title>
<g id="a_edge2_Node000002_Node000003"><a xlink:title=" ">
<path fill="none" stroke="#63b8ff" d="M87.61,-54.75C93.26,-47.26 101.54,-36.28 108.45,-27.13"/>
<polygon fill="#63b8ff" stroke="#63b8ff" points="111.29,-29.18 114.52,-19.09 105.7,-24.96 111.29,-29.18"/>
</a>
</g>
</g>
<!-- Node4&#45;&gt;Node3 -->
<g id="edge12_Node000004_Node000003" class="edge">
<title>Node4&#45;&gt;Node3</title>
<g id="a_edge12_Node000004_Node000003"><a xlink:title=" ">
<path fill="none" stroke="#63b8ff" d="M168.45,-164.86C164.83,-152.64 157.98,-129.59 152,-110 143.31,-81.53 132.98,-48.55 126.71,-28.63"/>
<polygon fill="#63b8ff" stroke="#63b8ff" points="130.03,-27.5 123.69,-19.01 123.35,-29.6 130.03,-27.5"/>
</a>
</g>
</g>
<!-- Node4&#45;&gt;Node5 -->
<g id="edge4_Node000004_Node000005" class="edge">
<title>Node4&#45;&gt;Node5</title>
<g id="a_edge4_Node000004_Node000005"><a xlink:title=" ">
<path fill="none" stroke="#63b8ff" d="M160.4,-164.98C150.54,-157.07 135.65,-145.11 123.78,-135.58"/>
<polygon fill="#63b8ff" stroke="#63b8ff" points="125.79,-132.7 115.8,-129.17 121.4,-138.16 125.79,-132.7"/>
</a>
</g>
</g>
<!-- Node7 -->
<g id="Node000007" class="node">
<title>Node7</title>
<g id="a_Node000007"><a xlink:title=" ">
<polygon fill="#e0e0e0" stroke="#999999" points="343.5,-19 290.5,-19 290.5,0 343.5,0 343.5,-19"/>
<text text-anchor="middle" x="317" y="-7" font-family="Helvetica,sans-Serif" font-size="10.00">cstddef</text>
</a>
</g>
</g>
<!-- Node4&#45;&gt;Node7 -->
<g id="edge11_Node000004_Node000007" class="edge">
<title>Node4&#45;&gt;Node7</title>
<g id="a_edge11_Node000004_Node000007"><a xlink:title=" ">
<path fill="none" stroke="#63b8ff" d="M191.66,-172.43C220.14,-169.78 270.99,-160.62 298,-129 321.94,-100.97 321.86,-55.09 319.53,-29.42"/>
<polygon fill="#63b8ff" stroke="#63b8ff" points="322.98,-28.73 318.38,-19.18 316.02,-29.51 322.98,-28.73"/>
</a>
</g>
</g>
<!-- Node9 -->
<g id="Node000009" class="node">
<title>Node9</title>
<g id="a_Node000009"><a xlink:href="i2c_8h.html" target="_top" xlink:title=" ">
<polygon fill="white" stroke="#666666" points="288.5,-129 199.5,-129 199.5,-110 288.5,-110 288.5,-129"/>
<text text-anchor="middle" x="244" y="-117" font-family="Helvetica,sans-Serif" font-size="10.00">hardware/i2c.h</text>
</a>
</g>
</g>
<!-- Node4&#45;&gt;Node9 -->
<g id="edge9_Node000004_Node000009" class="edge">
<title>Node4&#45;&gt;Node9</title>
<g id="a_edge9_Node000004_Node000009"><a xlink:title=" ">
<path fill="none" stroke="#63b8ff" d="M182.73,-164.98C193.73,-157 210.42,-144.88 223.6,-135.31"/>
<polygon fill="#63b8ff" stroke="#63b8ff" points="226.02,-137.88 232.06,-129.17 221.91,-132.21 226.02,-137.88"/>
</a>
</g>
</g>
<!-- Node6 -->
<g id="Node000006" class="node">
<title>Node6</title>
<g id="a_Node000006"><a xlink:href="pico__sdk__stubs_8h.html" target="_top" xlink:title=" ">
<polygon fill="white" stroke="#666666" points="298.5,-74 189.5,-74 189.5,-55 298.5,-55 298.5,-74"/>
<text text-anchor="middle" x="244" y="-62" font-family="Helvetica,sans-Serif" font-size="10.00">../pico_sdk_stubs.h</text>
</a>
</g>
</g>
<!-- Node5&#45;&gt;Node6 -->
<g id="edge5_Node000005_Node000006" class="edge">
<title>Node5&#45;&gt;Node6</title>
<g id="a_edge5_Node000005_Node000006"><a xlink:title=" ">
<path fill="none" stroke="#63b8ff" d="M127.33,-109.98C150.2,-101.27 185.96,-87.63 211.86,-77.75"/>
<polygon fill="#63b8ff" stroke="#63b8ff" points="213.16,-81 221.26,-74.17 210.67,-74.46 213.16,-81"/>
</a>
</g>
</g>
<!-- Node6&#45;&gt;Node3 -->
<g id="edge6_Node000006_Node000003" class="edge">
<title>Node6&#45;&gt;Node3</title>
<g id="a_edge6_Node000006_Node000003"><a xlink:title=" ">
<path fill="none" stroke="#63b8ff" d="M224.24,-54.98C204.27,-46.38 173.2,-32.99 150.35,-23.15"/>
<polygon fill="#63b8ff" stroke="#63b8ff" points="151.69,-19.91 141.12,-19.17 148.92,-26.34 151.69,-19.91"/>
</a>
</g>
</g>
<!-- Node6&#45;&gt;Node7 -->
<g id="edge7_Node000006_Node000007" class="edge">
<title>Node6&#45;&gt;Node7</title>
<g id="a_edge7_Node000006_Node000007"><a xlink:title=" ">
<path fill="none" stroke="#63b8ff" d="M255.73,-54.98C266.73,-47 283.42,-34.88 296.6,-25.31"/>
<polygon fill="#63b8ff" stroke="#63b8ff" points="299.02,-27.88 305.06,-19.17 294.91,-22.21 299.02,-27.88"/>
</a>
</g>
</g>
<!-- Node8 -->
<g id="Node000008" class="node">
<title>Node8</title>
<g id="a_Node000008"><a xlink:title=" ">
<polygon fill="#e0e0e0" stroke="#999999" points="263,-19 225,-19 225,0 263,0 263,-19"/>
<text text-anchor="middle" x="244" y="-7" font-family="Helvetica,sans-Serif" font-size="10.00">map</text>
</a>
</g>
</g>
<!-- Node6&#45;&gt;Node8 -->
<g id="edge8_Node000006_Node000008" class="edge">
<title>Node6&#45;&gt;Node8</title>
<g id="a_edge8_Node000006_Node000008"><a xlink:title=" ">
<path fill="none" stroke="#63b8ff" d="M244,-54.75C244,-47.8 244,-37.85 244,-29.13"/>
<polygon fill="#63b8ff" stroke="#63b8ff" points="247.5,-29.09 244,-19.09 240.5,-29.09 247.5,-29.09"/>
</a>
</g>
</g>
<!-- Node9&#45;&gt;Node6 -->
<g id="edge10_Node000009_Node000006" class="edge">
<title>Node9&#45;&gt;Node6</title>
<g id="a_edge10_Node000009_Node000006"><a xlink:title=" ">
<path fill="none" stroke="#63b8ff" d="M244,-109.75C244,-102.8 244,-92.85 244,-84.13"/>
<polygon fill="#63b8ff" stroke="#63b8ff" points="247.5,-84.09 244,-74.09 240.5,-84.09 247.5,-84.09"/>
</a>
</g>
</g>
</g>
</svg>
