<?xml version="1.0" encoding="UTF-8" standalone="no"?>
<!DOCTYPE svg PUBLIC "-//W3C//DTD SVG 1.1//EN"
 "http://www.w3.org/Graphics/SVG/1.1/DTD/svg11.dtd">
<!-- Generated by graphviz version 2.43.0 (0)
 -->
<!-- Title: OLED_SSD1306&#45;RP2040&#45;RP2350/OLED_SSD1306/oled.c Pages: 1 -->
<svg width="413pt" height="379pt"
 viewBox="0.00 0.00 412.50 379.00" xmlns="http://www.w3.org/2000/svg" xmlns:xlink="http://www.w3.org/1999/xlink">
<g id="graph0" class="graph" transform="scale(1 1) rotate(0) translate(4 375)">
<title>OLED_SSD1306&#45;RP2040&#45;RP2350/OLED_SSD1306/oled.c</title>
<!-- Node1 -->
<g id="Node000001" class="node">
<title>Node1</title>
<g id="a_Node000001"><a xlink:title=" ">
<polygon fill="#999999" stroke="#666666" points="329.5,-371 194.5,-371 194.5,-330 329.5,-330 329.5,-371"/>
<text text-anchor="start" x="202.5" y="-359" font-family="Helvetica,sans-Serif" font-size="10.00">OLED_SSD1306&#45;RP2040</text>
<text text-anchor="start" x="202.5" y="-348" font-family="Helvetica,sans-Serif" font-size="10.00">&#45;RP2350/OLED_SSD1306</text>
<text text-anchor="middle" x="262" y="-337" font-family="Helvetica,sans-Serif" font-size="10.00">/oled.c</text>
</a>
</g>
</g>
<!-- Node2 -->
<g id="Node000002" class="node">
<title>Node2</title>
<g id="a_Node000002"><a xlink:href="oled_8h.html" target="_top" xlink:title=" ">
<polygon fill="white" stroke="#666666" points="171.5,-294 124.5,-294 124.5,-275 171.5,-275 171.5,-294"/>
<text text-anchor="middle" x="148" y="-282" font-family="Helvetica,sans-Serif" font-size="10.00">oled.h</text>
</a>
</g>
</g>
<!-- Node1&#45;&gt;Node2 -->
<g id="edge1_Node000001_Node000002" class="edge">
<title>Node1&#45;&gt;Node2</title>
<g id="a_edge1_Node000001_Node000002"><a xlink:title=" ">
<path fill="none" stroke="#63b8ff" d="M227.18,-329.95C209.33,-319.93 188.05,-307.99 172.05,-299"/>
<polygon fill="#63b8ff" stroke="#63b8ff" points="173.74,-295.94 163.3,-294.09 170.31,-302.04 173.74,-295.94"/>
</a>
</g>
</g>
<!-- Node5 -->
<g id="Node000005" class="node">
<title>Node5</title>
<g id="a_Node000005"><a xlink:href="ssd1306_8h.html" target="_top" xlink:title=" ">
<polygon fill="white" stroke="#666666" points="173,-239 107,-239 107,-220 173,-220 173,-239"/>
<text text-anchor="middle" x="140" y="-227" font-family="Helvetica,sans-Serif" font-size="10.00">ssd1306.h</text>
</a>
</g>
</g>
<!-- Node1&#45;&gt;Node5 -->
<g id="edge17_Node000001_Node000005" class="edge">
<title>Node1&#45;&gt;Node5</title>
<g id="a_edge17_Node000001_Node000005"><a xlink:title=" ">
<path fill="none" stroke="#63b8ff" d="M241.85,-329.85C217.86,-306.45 178.27,-267.83 156.18,-246.28"/>
<polygon fill="#63b8ff" stroke="#63b8ff" points="158.5,-243.65 148.89,-239.18 153.61,-248.66 158.5,-243.65"/>
</a>
</g>
</g>
<!-- Node7 -->
<g id="Node000007" class="node">
<title>Node7</title>
<g id="a_Node000007"><a xlink:href="stdlib_8h.html" target="_top" xlink:title=" ">
<polygon fill="white" stroke="#666666" points="349.5,-129 296.5,-129 296.5,-110 349.5,-110 349.5,-129"/>
<text text-anchor="middle" x="323" y="-117" font-family="Helvetica,sans-Serif" font-size="10.00">stdlib.h</text>
</a>
</g>
</g>
<!-- Node1&#45;&gt;Node7 -->
<g id="edge19_Node000001_Node000007" class="edge">
<title>Node1&#45;&gt;Node7</title>
<g id="a_edge19_Node000001_Node000007"><a xlink:title=" ">
<path fill="none" stroke="#63b8ff" d="M270.83,-329.94C280.34,-308.16 295.26,-271.72 304,-239 313.24,-204.4 318.64,-162.85 321.19,-139.27"/>
<polygon fill="#63b8ff" stroke="#63b8ff" points="324.68,-139.56 322.21,-129.25 317.71,-138.84 324.68,-139.56"/>
</a>
</g>
</g>
<!-- Node14 -->
<g id="Node000014" class="node">
<title>Node14</title>
<g id="a_Node000014"><a xlink:title=" ">
<polygon fill="#e0e0e0" stroke="#999999" points="404.5,-294 351.5,-294 351.5,-275 404.5,-275 404.5,-294"/>
<text text-anchor="middle" x="378" y="-282" font-family="Helvetica,sans-Serif" font-size="10.00">string.h</text>
</a>
</g>
</g>
<!-- Node1&#45;&gt;Node14 -->
<g id="edge18_Node000001_Node000014" class="edge">
<title>Node1&#45;&gt;Node14</title>
<g id="a_edge18_Node000001_Node000014"><a xlink:title=" ">
<path fill="none" stroke="#63b8ff" d="M297.43,-329.95C315.59,-319.93 337.24,-307.99 353.53,-299"/>
<polygon fill="#63b8ff" stroke="#63b8ff" points="355.36,-301.99 362.43,-294.09 351.98,-295.86 355.36,-301.99"/>
</a>
</g>
</g>
<!-- Node15 -->
<g id="Node000015" class="node">
<title>Node15</title>
<g id="a_Node000015"><a xlink:href="big__font_8h.html" target="_top" xlink:title=" ">
<polygon fill="white" stroke="#666666" points="294.5,-239 229.5,-239 229.5,-220 294.5,-220 294.5,-239"/>
<text text-anchor="middle" x="262" y="-227" font-family="Helvetica,sans-Serif" font-size="10.00">big_font.h</text>
</a>
</g>
</g>
<!-- Node1&#45;&gt;Node15 -->
<g id="edge20_Node000001_Node000015" class="edge">
<title>Node1&#45;&gt;Node15</title>
<g id="a_edge20_Node000001_Node000015"><a xlink:title=" ">
<path fill="none" stroke="#63b8ff" d="M262,-329.85C262,-307.48 262,-271.19 262,-249.21"/>
<polygon fill="#63b8ff" stroke="#63b8ff" points="265.5,-249.18 262,-239.18 258.5,-249.18 265.5,-249.18"/>
</a>
</g>
</g>
<!-- Node3 -->
<g id="Node000003" class="node">
<title>Node3</title>
<g id="a_Node000003"><a xlink:title=" ">
<polygon fill="#e0e0e0" stroke="#999999" points="62,-129 0,-129 0,-110 62,-110 62,-129"/>
<text text-anchor="middle" x="31" y="-117" font-family="Helvetica,sans-Serif" font-size="10.00">stdbool.h</text>
</a>
</g>
</g>
<!-- Node2&#45;&gt;Node3 -->
<g id="edge2_Node000002_Node000003" class="edge">
<title>Node2&#45;&gt;Node3</title>
<g id="a_edge2_Node000002_Node000003"><a xlink:title=" ">
<path fill="none" stroke="#63b8ff" d="M136.28,-274.89C125.46,-266.55 109.39,-253.11 98,-239 71.88,-206.64 50.01,-162.78 38.89,-138.52"/>
<polygon fill="#63b8ff" stroke="#63b8ff" points="41.97,-136.83 34.68,-129.13 35.58,-139.69 41.97,-136.83"/>
</a>
</g>
</g>
<!-- Node4 -->
<g id="Node000004" class="node">
<title>Node4</title>
<g id="a_Node000004"><a xlink:title=" ">
<polygon fill="#e0e0e0" stroke="#999999" points="254.5,-184 201.5,-184 201.5,-165 254.5,-165 254.5,-184"/>
<text text-anchor="middle" x="228" y="-172" font-family="Helvetica,sans-Serif" font-size="10.00">stdint.h</text>
</a>
</g>
</g>
<!-- Node2&#45;&gt;Node4 -->
<g id="edge3_Node000002_Node000004" class="edge">
<title>Node2&#45;&gt;Node4</title>
<g id="a_edge3_Node000002_Node000004"><a xlink:title=" ">
<path fill="none" stroke="#63b8ff" d="M154.84,-274.69C161.75,-265.74 172.71,-251.48 182,-239 193.64,-223.36 206.65,-205.34 215.86,-192.5"/>
<polygon fill="#63b8ff" stroke="#63b8ff" points="218.85,-194.35 221.82,-184.18 213.15,-190.27 218.85,-194.35"/>
</a>
</g>
</g>
<!-- Node2&#45;&gt;Node5 -->
<g id="edge4_Node000002_Node000005" class="edge">
<title>Node2&#45;&gt;Node5</title>
<g id="a_edge4_Node000002_Node000005"><a xlink:title=" ">
<path fill="none" stroke="#63b8ff" d="M146.68,-274.75C145.63,-267.8 144.13,-257.85 142.81,-249.13"/>
<polygon fill="#63b8ff" stroke="#63b8ff" points="146.25,-248.45 141.3,-239.09 139.33,-249.5 146.25,-248.45"/>
</a>
</g>
</g>
<!-- Node5&#45;&gt;Node3 -->
<g id="edge6_Node000005_Node000003" class="edge">
<title>Node5&#45;&gt;Node3</title>
<g id="a_edge6_Node000005_Node000003"><a xlink:title=" ">
<path fill="none" stroke="#63b8ff" d="M128.88,-219.7C118.09,-210.99 101.43,-197.12 88,-184 72.35,-168.72 55.79,-149.94 44.58,-136.78"/>
<polygon fill="#63b8ff" stroke="#63b8ff" points="47.17,-134.43 38.04,-129.04 41.82,-138.94 47.17,-134.43"/>
</a>
</g>
</g>
<!-- Node5&#45;&gt;Node4 -->
<g id="edge5_Node000005_Node000004" class="edge">
<title>Node5&#45;&gt;Node4</title>
<g id="a_edge5_Node000005_Node000004"><a xlink:title=" ">
<path fill="none" stroke="#63b8ff" d="M154.14,-219.98C167.79,-211.77 188.69,-199.18 204.78,-189.49"/>
<polygon fill="#63b8ff" stroke="#63b8ff" points="206.84,-192.33 213.6,-184.17 203.23,-186.33 206.84,-192.33"/>
</a>
</g>
</g>
<!-- Node6 -->
<g id="Node000006" class="node">
<title>Node6</title>
<g id="a_Node000006"><a xlink:href="ssd1306__i2c_8h.html" target="_top" xlink:title=" ">
<polygon fill="white" stroke="#666666" points="183,-184 97,-184 97,-165 183,-165 183,-184"/>
<text text-anchor="middle" x="140" y="-172" font-family="Helvetica,sans-Serif" font-size="10.00">ssd1306_i2c.h</text>
</a>
</g>
</g>
<!-- Node5&#45;&gt;Node6 -->
<g id="edge7_Node000005_Node000006" class="edge">
<title>Node5&#45;&gt;Node6</title>
<g id="a_edge7_Node000005_Node000006"><a xlink:title=" ">
<path fill="none" stroke="#63b8ff" d="M140,-219.75C140,-212.8 140,-202.85 140,-194.13"/>
<polygon fill="#63b8ff" stroke="#63b8ff" points="143.5,-194.09 140,-184.09 136.5,-194.09 143.5,-194.09"/>
</a>
</g>
</g>
<!-- Node6&#45;&gt;Node3 -->
<g id="edge13_Node000006_Node000003" class="edge">
<title>Node6&#45;&gt;Node3</title>
<g id="a_edge13_Node000006_Node000003"><a xlink:title=" ">
<path fill="none" stroke="#63b8ff" d="M122.49,-164.98C105.03,-156.5 77.99,-143.35 57.83,-133.54"/>
<polygon fill="#63b8ff" stroke="#63b8ff" points="59.36,-130.4 48.83,-129.17 56.29,-136.69 59.36,-130.4"/>
</a>
</g>
</g>
<!-- Node6&#45;&gt;Node7 -->
<g id="edge8_Node000006_Node000007" class="edge">
<title>Node6&#45;&gt;Node7</title>
<g id="a_edge8_Node000006_Node000007"><a xlink:title=" ">
<path fill="none" stroke="#63b8ff" d="M169.4,-164.98C201.31,-155.74 252.3,-140.98 286.69,-131.02"/>
<polygon fill="#63b8ff" stroke="#63b8ff" points="287.72,-134.36 296.35,-128.22 285.77,-127.64 287.72,-134.36"/>
</a>
</g>
</g>
<!-- Node12 -->
<g id="Node000012" class="node">
<title>Node12</title>
<g id="a_Node000012"><a xlink:title=" ">
<polygon fill="#e0e0e0" stroke="#999999" points="278.5,-129 187.5,-129 187.5,-110 278.5,-110 278.5,-129"/>
<text text-anchor="middle" x="233" y="-117" font-family="Helvetica,sans-Serif" font-size="10.00">pico/platform.h</text>
</a>
</g>
</g>
<!-- Node6&#45;&gt;Node12 -->
<g id="edge14_Node000006_Node000012" class="edge">
<title>Node6&#45;&gt;Node12</title>
<g id="a_edge14_Node000006_Node000012"><a xlink:title=" ">
<path fill="none" stroke="#63b8ff" d="M154.94,-164.98C169.5,-156.69 191.87,-143.94 208.93,-134.22"/>
<polygon fill="#63b8ff" stroke="#63b8ff" points="210.83,-137.16 217.79,-129.17 207.36,-131.08 210.83,-137.16"/>
</a>
</g>
</g>
<!-- Node13 -->
<g id="Node000013" class="node">
<title>Node13</title>
<g id="a_Node000013"><a xlink:href="i2c_8h.html" target="_top" xlink:title=" ">
<polygon fill="white" stroke="#666666" points="169.5,-129 80.5,-129 80.5,-110 169.5,-110 169.5,-129"/>
<text text-anchor="middle" x="125" y="-117" font-family="Helvetica,sans-Serif" font-size="10.00">hardware/i2c.h</text>
</a>
</g>
</g>
<!-- Node6&#45;&gt;Node13 -->
<g id="edge15_Node000006_Node000013" class="edge">
<title>Node6&#45;&gt;Node13</title>
<g id="a_edge15_Node000006_Node000013"><a xlink:title=" ">
<path fill="none" stroke="#63b8ff" d="M137.52,-164.75C135.54,-157.72 132.68,-147.62 130.19,-138.84"/>
<polygon fill="#63b8ff" stroke="#63b8ff" points="133.52,-137.76 127.43,-129.09 126.79,-139.66 133.52,-137.76"/>
</a>
</g>
</g>
<!-- Node8 -->
<g id="Node000008" class="node">
<title>Node8</title>
<g id="a_Node000008"><a xlink:href="pico__sdk__stubs_8h.html" target="_top" xlink:title=" ">
<polygon fill="white" stroke="#666666" points="278.5,-74 169.5,-74 169.5,-55 278.5,-55 278.5,-74"/>
<text text-anchor="middle" x="224" y="-62" font-family="Helvetica,sans-Serif" font-size="10.00">../pico_sdk_stubs.h</text>
</a>
</g>
</g>
<!-- Node7&#45;&gt;Node8 -->
<g id="edge9_Node000007_Node000008" class="edge">
<title>Node7&#45;&gt;Node8</title>
<g id="a_edge9_Node000007_Node000008"><a xlink:title=" ">
<path fill="none" stroke="#63b8ff" d="M307.09,-109.98C291.45,-101.61 267.34,-88.7 249.12,-78.95"/>
<polygon fill="#63b8ff" stroke="#63b8ff" points="250.66,-75.8 240.2,-74.17 247.36,-81.98 250.66,-75.8"/>
</a>
</g>
</g>
<!-- Node9 -->
<g id="Node000009" class="node">
<title>Node9</title>
<g id="a_Node000009"><a xlink:title=" ">
<polygon fill="#e0e0e0" stroke="#999999" points="179,-19 129,-19 129,0 179,0 179,-19"/>
<text text-anchor="middle" x="154" y="-7" font-family="Helvetica,sans-Serif" font-size="10.00">cstdint</text>
</a>
</g>
</g>
<!-- Node8&#45;&gt;Node9 -->
<g id="edge10_Node000008_Node000009" class="edge">
<title>Node8&#45;&gt;Node9</title>
<g id="a_edge10_Node000008_Node000009"><a xlink:title=" ">
<path fill="none" stroke="#63b8ff" d="M212.75,-54.98C202.2,-47 186.2,-34.88 173.56,-25.31"/>
<polygon fill="#63b8ff" stroke="#63b8ff" points="175.54,-22.42 165.45,-19.17 171.31,-28 175.54,-22.42"/>
</a>
</g>
</g>
<!-- Node10 -->
<g id="Node000010" class="node">
<title>Node10</title>
<g id="a_Node000010"><a xlink:title=" ">
<polygon fill="#e0e0e0" stroke="#999999" points="250.5,-19 197.5,-19 197.5,0 250.5,0 250.5,-19"/>
<text text-anchor="middle" x="224" y="-7" font-family="Helvetica,sans-Serif" font-size="10.00">cstddef</text>
</a>
</g>
</g>
<!-- Node8&#45;&gt;Node10 -->
<g id="edge11_Node000008_Node000010" class="edge">
<title>Node8&#45;&gt;Node10</title>
<g id="a_edge11_Node000008_Node000010"><a xlink:title=" ">
<path fill="none" stroke="#63b8ff" d="M224,-54.75C224,-47.8 224,-37.85 224,-29.13"/>
<polygon fill="#63b8ff" stroke="#63b8ff" points="227.5,-29.09 224,-19.09 220.5,-29.09 227.5,-29.09"/>
</a>
</g>
</g>
<!-- Node11 -->
<g id="Node000011" class="node">
<title>Node11</title>
<g id="a_Node000011"><a xlink:title=" ">
<polygon fill="#e0e0e0" stroke="#999999" points="307,-19 269,-19 269,0 307,0 307,-19"/>
<text text-anchor="middle" x="288" y="-7" font-family="Helvetica,sans-Serif" font-size="10.00">map</text>
</a>
</g>
</g>
<!-- Node8&#45;&gt;Node11 -->
<g id="edge12_Node000008_Node000011" class="edge">
<title>Node8&#45;&gt;Node11</title>
<g id="a_edge12_Node000008_Node000011"><a xlink:title=" ">
<path fill="none" stroke="#63b8ff" d="M234.28,-54.98C243.84,-47.07 258.28,-35.11 269.78,-25.58"/>
<polygon fill="#63b8ff" stroke="#63b8ff" points="272.06,-28.24 277.53,-19.17 267.6,-22.85 272.06,-28.24"/>
</a>
</g>
</g>
<!-- Node13&#45;&gt;Node8 -->
<g id="edge16_Node000013_Node000008" class="edge">
<title>Node13&#45;&gt;Node8</title>
<g id="a_edge16_Node000013_Node000008"><a xlink:title=" ">
<path fill="none" stroke="#63b8ff" d="M140.91,-109.98C156.55,-101.61 180.66,-88.7 198.88,-78.95"/>
<polygon fill="#63b8ff" stroke="#63b8ff" points="200.64,-81.98 207.8,-74.17 197.34,-75.8 200.64,-81.98"/>
</a>
</g>
</g>
<!-- Node15&#45;&gt;Node4 -->
<g id="edge21_Node000015_Node000004" class="edge">
<title>Node15&#45;&gt;Node4</title>
<g id="a_edge21_Node000015_Node000004"><a xlink:title=" ">
<path fill="none" stroke="#63b8ff" d="M256.39,-219.75C251.68,-212.42 244.83,-201.73 239.03,-192.7"/>
<polygon fill="#63b8ff" stroke="#63b8ff" points="241.86,-190.62 233.51,-184.09 235.96,-194.4 241.86,-190.62"/>
</a>
</g>
</g>
</g>
</svg>
