<?xml version="1.0" encoding="UTF-8" standalone="no"?>
<!DOCTYPE svg PUBLIC "-//W3C//DTD SVG 1.1//EN"
 "http://www.w3.org/Graphics/SVG/1.1/DTD/svg11.dtd">
<!-- Generated by graphviz version 2.43.0 (0)
 -->
<!-- Title: OLED_SSD1306&#45;RP2040&#45;RP2350/OLED_SSD1306/oled.h Pages: 1 -->
<svg width="405pt" height="324pt"
 viewBox="0.00 0.00 405.00 324.00" xmlns="http://www.w3.org/2000/svg" xmlns:xlink="http://www.w3.org/1999/xlink">
<g id="graph0" class="graph" transform="scale(1 1) rotate(0) translate(4 320)">
<title>OLED_SSD1306&#45;RP2040&#45;RP2350/OLED_SSD1306/oled.h</title>
<!-- Node1 -->
<g id="Node000001" class="node">
<title>Node1</title>
<g id="a_Node000001"><a xlink:title=" ">
<polygon fill="#999999" stroke="#666666" points="135,-316 0,-316 0,-275 135,-275 135,-316"/>
<text text-anchor="start" x="8" y="-304" font-family="Helvetica,sans-Serif" font-size="10.00">OLED_SSD1306&#45;RP2040</text>
<text text-anchor="start" x="8" y="-293" font-family="Helvetica,sans-Serif" font-size="10.00">&#45;RP2350/OLED_SSD1306</text>
<text text-anchor="middle" x="67.5" y="-282" font-family="Helvetica,sans-Serif" font-size="10.00">/oled.h</text>
</a>
</g>
</g>
<!-- Node2 -->
<g id="Node000002" class="node">
<title>Node2</title>
<g id="a_Node000002"><a xlink:title=" ">
<polygon fill="#e0e0e0" stroke="#999999" points="109.5,-129 47.5,-129 47.5,-110 109.5,-110 109.5,-129"/>
<text text-anchor="middle" x="78.5" y="-117" font-family="Helvetica,sans-Serif" font-size="10.00">stdbool.h</text>
</a>
</g>
</g>
<!-- Node1&#45;&gt;Node2 -->
<g id="edge1_Node000001_Node000002" class="edge">
<title>Node1&#45;&gt;Node2</title>
<g id="a_edge1_Node000001_Node000002"><a xlink:title=" ">
<path fill="none" stroke="#63b8ff" d="M55.74,-274.67C42,-248.79 22.9,-202.41 37.5,-165 41.9,-153.73 50.64,-143.59 58.93,-135.85"/>
<polygon fill="#63b8ff" stroke="#63b8ff" points="61.32,-138.4 66.57,-129.2 56.73,-133.12 61.32,-138.4"/>
</a>
</g>
</g>
<!-- Node3 -->
<g id="Node000003" class="node">
<title>Node3</title>
<g id="a_Node000003"><a xlink:title=" ">
<polygon fill="#e0e0e0" stroke="#999999" points="100,-184 47,-184 47,-165 100,-165 100,-184"/>
<text text-anchor="middle" x="73.5" y="-172" font-family="Helvetica,sans-Serif" font-size="10.00">stdint.h</text>
</a>
</g>
</g>
<!-- Node1&#45;&gt;Node3 -->
<g id="edge2_Node000001_Node000003" class="edge">
<title>Node1&#45;&gt;Node3</title>
<g id="a_edge2_Node000001_Node000003"><a xlink:title=" ">
<path fill="none" stroke="#63b8ff" d="M68.49,-274.85C69.62,-252.48 71.45,-216.19 72.56,-194.21"/>
<polygon fill="#63b8ff" stroke="#63b8ff" points="76.05,-194.34 73.06,-184.18 69.06,-193.99 76.05,-194.34"/>
</a>
</g>
</g>
<!-- Node4 -->
<g id="Node000004" class="node">
<title>Node4</title>
<g id="a_Node000004"><a xlink:href="ssd1306_8h.html" target="_top" xlink:title=" ">
<polygon fill="white" stroke="#666666" points="161.5,-239 95.5,-239 95.5,-220 161.5,-220 161.5,-239"/>
<text text-anchor="middle" x="128.5" y="-227" font-family="Helvetica,sans-Serif" font-size="10.00">ssd1306.h</text>
</a>
</g>
</g>
<!-- Node1&#45;&gt;Node4 -->
<g id="edge3_Node000001_Node000004" class="edge">
<title>Node1&#45;&gt;Node4</title>
<g id="a_edge3_Node000001_Node000004"><a xlink:title=" ">
<path fill="none" stroke="#63b8ff" d="M86.13,-274.95C94.74,-265.92 104.83,-255.33 113.01,-246.75"/>
<polygon fill="#63b8ff" stroke="#63b8ff" points="115.78,-248.91 120.15,-239.26 110.72,-244.08 115.78,-248.91"/>
</a>
</g>
</g>
<!-- Node4&#45;&gt;Node2 -->
<g id="edge5_Node000004_Node000002" class="edge">
<title>Node4&#45;&gt;Node2</title>
<g id="a_edge5_Node000004_Node000002"><a xlink:title=" ">
<path fill="none" stroke="#63b8ff" d="M126.65,-219.99C123.75,-207.52 117.53,-183.74 108.5,-165 103.86,-155.36 97.34,-145.42 91.57,-137.39"/>
<polygon fill="#63b8ff" stroke="#63b8ff" points="94.29,-135.17 85.51,-129.24 88.67,-139.35 94.29,-135.17"/>
</a>
</g>
</g>
<!-- Node4&#45;&gt;Node3 -->
<g id="edge4_Node000004_Node000003" class="edge">
<title>Node4&#45;&gt;Node3</title>
<g id="a_edge4_Node000004_Node000003"><a xlink:title=" ">
<path fill="none" stroke="#63b8ff" d="M119.42,-219.75C111.41,-212.03 99.54,-200.6 89.88,-191.28"/>
<polygon fill="#63b8ff" stroke="#63b8ff" points="92.04,-188.51 82.41,-184.09 87.19,-193.55 92.04,-188.51"/>
</a>
</g>
</g>
<!-- Node5 -->
<g id="Node000005" class="node">
<title>Node5</title>
<g id="a_Node000005"><a xlink:href="ssd1306__i2c_8h.html" target="_top" xlink:title=" ">
<polygon fill="white" stroke="#666666" points="242.5,-184 156.5,-184 156.5,-165 242.5,-165 242.5,-184"/>
<text text-anchor="middle" x="199.5" y="-172" font-family="Helvetica,sans-Serif" font-size="10.00">ssd1306_i2c.h</text>
</a>
</g>
</g>
<!-- Node4&#45;&gt;Node5 -->
<g id="edge6_Node000004_Node000005" class="edge">
<title>Node4&#45;&gt;Node5</title>
<g id="a_edge6_Node000004_Node000005"><a xlink:title=" ">
<path fill="none" stroke="#63b8ff" d="M139.91,-219.98C150.61,-212 166.84,-199.88 179.66,-190.31"/>
<polygon fill="#63b8ff" stroke="#63b8ff" points="181.97,-192.96 187.89,-184.17 177.78,-187.35 181.97,-192.96"/>
</a>
</g>
</g>
<!-- Node5&#45;&gt;Node2 -->
<g id="edge12_Node000005_Node000002" class="edge">
<title>Node5&#45;&gt;Node2</title>
<g id="a_edge12_Node000005_Node000002"><a xlink:title=" ">
<path fill="none" stroke="#63b8ff" d="M180.06,-164.98C160.51,-156.42 130.12,-143.11 107.68,-133.28"/>
<polygon fill="#63b8ff" stroke="#63b8ff" points="108.86,-129.98 98.29,-129.17 106.05,-136.39 108.86,-129.98"/>
</a>
</g>
</g>
<!-- Node6 -->
<g id="Node000006" class="node">
<title>Node6</title>
<g id="a_Node000006"><a xlink:href="stdlib_8h.html" target="_top" xlink:title=" ">
<polygon fill="white" stroke="#666666" points="181,-129 128,-129 128,-110 181,-110 181,-129"/>
<text text-anchor="middle" x="154.5" y="-117" font-family="Helvetica,sans-Serif" font-size="10.00">stdlib.h</text>
</a>
</g>
</g>
<!-- Node5&#45;&gt;Node6 -->
<g id="edge7_Node000005_Node000006" class="edge">
<title>Node5&#45;&gt;Node6</title>
<g id="a_edge7_Node000005_Node000006"><a xlink:title=" ">
<path fill="none" stroke="#63b8ff" d="M192.07,-164.75C185.65,-157.18 176.19,-146.05 168.38,-136.84"/>
<polygon fill="#63b8ff" stroke="#63b8ff" points="170.93,-134.45 161.79,-129.09 165.6,-138.98 170.93,-134.45"/>
</a>
</g>
</g>
<!-- Node11 -->
<g id="Node000011" class="node">
<title>Node11</title>
<g id="a_Node000011"><a xlink:title=" ">
<polygon fill="#e0e0e0" stroke="#999999" points="290,-129 199,-129 199,-110 290,-110 290,-129"/>
<text text-anchor="middle" x="244.5" y="-117" font-family="Helvetica,sans-Serif" font-size="10.00">pico/platform.h</text>
</a>
</g>
</g>
<!-- Node5&#45;&gt;Node11 -->
<g id="edge13_Node000005_Node000011" class="edge">
<title>Node5&#45;&gt;Node11</title>
<g id="a_edge13_Node000005_Node000011"><a xlink:title=" ">
<path fill="none" stroke="#63b8ff" d="M206.93,-164.75C213.35,-157.18 222.81,-146.05 230.62,-136.84"/>
<polygon fill="#63b8ff" stroke="#63b8ff" points="233.4,-138.98 237.21,-129.09 228.07,-134.45 233.4,-138.98"/>
</a>
</g>
</g>
<!-- Node12 -->
<g id="Node000012" class="node">
<title>Node12</title>
<g id="a_Node000012"><a xlink:href="i2c_8h.html" target="_top" xlink:title=" ">
<polygon fill="white" stroke="#666666" points="397,-129 308,-129 308,-110 397,-110 397,-129"/>
<text text-anchor="middle" x="352.5" y="-117" font-family="Helvetica,sans-Serif" font-size="10.00">hardware/i2c.h</text>
</a>
</g>
</g>
<!-- Node5&#45;&gt;Node12 -->
<g id="edge14_Node000005_Node000012" class="edge">
<title>Node5&#45;&gt;Node12</title>
<g id="a_edge14_Node000005_Node000012"><a xlink:title=" ">
<path fill="none" stroke="#63b8ff" d="M224.08,-164.98C249.55,-156.16 289.54,-142.31 318.13,-132.41"/>
<polygon fill="#63b8ff" stroke="#63b8ff" points="319.42,-135.66 327.73,-129.08 317.13,-129.05 319.42,-135.66"/>
</a>
</g>
</g>
<!-- Node7 -->
<g id="Node000007" class="node">
<title>Node7</title>
<g id="a_Node000007"><a xlink:href="pico__sdk__stubs_8h.html" target="_top" xlink:title=" ">
<polygon fill="white" stroke="#666666" points="308,-74 199,-74 199,-55 308,-55 308,-74"/>
<text text-anchor="middle" x="253.5" y="-62" font-family="Helvetica,sans-Serif" font-size="10.00">../pico_sdk_stubs.h</text>
</a>
</g>
</g>
<!-- Node6&#45;&gt;Node7 -->
<g id="edge8_Node000006_Node000007" class="edge">
<title>Node6&#45;&gt;Node7</title>
<g id="a_edge8_Node000006_Node000007"><a xlink:title=" ">
<path fill="none" stroke="#63b8ff" d="M170.41,-109.98C186.05,-101.61 210.16,-88.7 228.38,-78.95"/>
<polygon fill="#63b8ff" stroke="#63b8ff" points="230.14,-81.98 237.3,-74.17 226.84,-75.8 230.14,-81.98"/>
</a>
</g>
</g>
<!-- Node8 -->
<g id="Node000008" class="node">
<title>Node8</title>
<g id="a_Node000008"><a xlink:title=" ">
<polygon fill="#e0e0e0" stroke="#999999" points="208.5,-19 158.5,-19 158.5,0 208.5,0 208.5,-19"/>
<text text-anchor="middle" x="183.5" y="-7" font-family="Helvetica,sans-Serif" font-size="10.00">cstdint</text>
</a>
</g>
</g>
<!-- Node7&#45;&gt;Node8 -->
<g id="edge9_Node000007_Node000008" class="edge">
<title>Node7&#45;&gt;Node8</title>
<g id="a_edge9_Node000007_Node000008"><a xlink:title=" ">
<path fill="none" stroke="#63b8ff" d="M242.25,-54.98C231.7,-47 215.7,-34.88 203.06,-25.31"/>
<polygon fill="#63b8ff" stroke="#63b8ff" points="205.04,-22.42 194.95,-19.17 200.81,-28 205.04,-22.42"/>
</a>
</g>
</g>
<!-- Node9 -->
<g id="Node000009" class="node">
<title>Node9</title>
<g id="a_Node000009"><a xlink:title=" ">
<polygon fill="#e0e0e0" stroke="#999999" points="280,-19 227,-19 227,0 280,0 280,-19"/>
<text text-anchor="middle" x="253.5" y="-7" font-family="Helvetica,sans-Serif" font-size="10.00">cstddef</text>
</a>
</g>
</g>
<!-- Node7&#45;&gt;Node9 -->
<g id="edge10_Node000007_Node000009" class="edge">
<title>Node7&#45;&gt;Node9</title>
<g id="a_edge10_Node000007_Node000009"><a xlink:title=" ">
<path fill="none" stroke="#63b8ff" d="M253.5,-54.75C253.5,-47.8 253.5,-37.85 253.5,-29.13"/>
<polygon fill="#63b8ff" stroke="#63b8ff" points="257,-29.09 253.5,-19.09 250,-29.09 257,-29.09"/>
</a>
</g>
</g>
<!-- Node10 -->
<g id="Node000010" class="node">
<title>Node10</title>
<g id="a_Node000010"><a xlink:title=" ">
<polygon fill="#e0e0e0" stroke="#999999" points="336.5,-19 298.5,-19 298.5,0 336.5,0 336.5,-19"/>
<text text-anchor="middle" x="317.5" y="-7" font-family="Helvetica,sans-Serif" font-size="10.00">map</text>
</a>
</g>
</g>
<!-- Node7&#45;&gt;Node10 -->
<g id="edge11_Node000007_Node000010" class="edge">
<title>Node7&#45;&gt;Node10</title>
<g id="a_edge11_Node000007_Node000010"><a xlink:title=" ">
<path fill="none" stroke="#63b8ff" d="M263.78,-54.98C273.34,-47.07 287.78,-35.11 299.28,-25.58"/>
<polygon fill="#63b8ff" stroke="#63b8ff" points="301.56,-28.24 307.03,-19.17 297.1,-22.85 301.56,-28.24"/>
</a>
</g>
</g>
<!-- Node12&#45;&gt;Node7 -->
<g id="edge15_Node000012_Node000007" class="edge">
<title>Node12&#45;&gt;Node7</title>
<g id="a_edge15_Node000012_Node000007"><a xlink:title=" ">
<path fill="none" stroke="#63b8ff" d="M336.59,-109.98C320.95,-101.61 296.84,-88.7 278.62,-78.95"/>
<polygon fill="#63b8ff" stroke="#63b8ff" points="280.16,-75.8 269.7,-74.17 276.86,-81.98 280.16,-75.8"/>
</a>
</g>
</g>
</g>
</svg>
