<?xml version="1.0" encoding="UTF-8" standalone="no"?>
<!DOCTYPE svg PUBLIC "-//W3C//DTD SVG 1.1//EN"
 "http://www.w3.org/Graphics/SVG/1.1/DTD/svg11.dtd">
<!-- Generated by graphviz version 2.43.0 (0)
 -->
<!-- Title: OLED_SSD1306&#45;RP2040&#45;RP2350/main.c Pages: 1 -->
<svg width="400pt" height="368pt"
 viewBox="0.00 0.00 400.00 368.00" xmlns="http://www.w3.org/2000/svg" xmlns:xlink="http://www.w3.org/1999/xlink">
<g id="graph0" class="graph" transform="scale(1 1) rotate(0) translate(4 364)">
<title>OLED_SSD1306&#45;RP2040&#45;RP2350/main.c</title>
<!-- Node1 -->
<g id="Node000001" class="node">
<title>Node1</title>
<g id="a_Node000001"><a xlink:title=" ">
<polygon fill="#999999" stroke="#666666" points="163,-360 31,-360 31,-330 163,-330 163,-360"/>
<text text-anchor="start" x="39" y="-348" font-family="Helvetica,sans-Serif" font-size="10.00">OLED_SSD1306&#45;RP2040</text>
<text text-anchor="middle" x="97" y="-337" font-family="Helvetica,sans-Serif" font-size="10.00">&#45;RP2350/main.c</text>
</a>
</g>
</g>
<!-- Node2 -->
<g id="Node000002" class="node">
<title>Node2</title>
<g id="a_Node000002"><a xlink:title=" ">
<polygon fill="#e0e0e0" stroke="#999999" points="50,-294 0,-294 0,-275 50,-275 50,-294"/>
<text text-anchor="middle" x="25" y="-282" font-family="Helvetica,sans-Serif" font-size="10.00">stdio.h</text>
</a>
</g>
</g>
<!-- Node1&#45;&gt;Node2 -->
<g id="edge1_Node000001_Node000002" class="edge">
<title>Node1&#45;&gt;Node2</title>
<g id="a_edge1_Node000001_Node000002"><a xlink:title=" ">
<path fill="none" stroke="#63b8ff" d="M79.57,-329.84C68.69,-321 54.7,-309.63 43.61,-300.62"/>
<polygon fill="#63b8ff" stroke="#63b8ff" points="45.76,-297.86 35.79,-294.27 41.34,-303.29 45.76,-297.86"/>
</a>
</g>
</g>
<!-- Node3 -->
<g id="Node000003" class="node">
<title>Node3</title>
<g id="a_Node000003"><a xlink:href="stdlib_8h.html" target="_top" xlink:title=" ">
<polygon fill="white" stroke="#666666" points="95,-129 19,-129 19,-110 95,-110 95,-129"/>
<text text-anchor="middle" x="57" y="-117" font-family="Helvetica,sans-Serif" font-size="10.00">pico/stdlib.h</text>
</a>
</g>
</g>
<!-- Node1&#45;&gt;Node3 -->
<g id="edge2_Node000001_Node000003" class="edge">
<title>Node1&#45;&gt;Node3</title>
<g id="a_edge2_Node000001_Node000003"><a xlink:title=" ">
<path fill="none" stroke="#63b8ff" d="M94.44,-329.68C87.47,-290.76 68.2,-183.07 60.37,-139.33"/>
<polygon fill="#63b8ff" stroke="#63b8ff" points="63.77,-138.46 58.56,-129.23 56.88,-139.69 63.77,-138.46"/>
</a>
</g>
</g>
<!-- Node8 -->
<g id="Node000008" class="node">
<title>Node8</title>
<g id="a_Node000008"><a xlink:href="i2c_8h.html" target="_top" xlink:title=" ">
<polygon fill="white" stroke="#666666" points="202.5,-129 113.5,-129 113.5,-110 202.5,-110 202.5,-129"/>
<text text-anchor="middle" x="158" y="-117" font-family="Helvetica,sans-Serif" font-size="10.00">hardware/i2c.h</text>
</a>
</g>
</g>
<!-- Node1&#45;&gt;Node8 -->
<g id="edge7_Node000001_Node000008" class="edge">
<title>Node1&#45;&gt;Node8</title>
<g id="a_edge7_Node000001_Node000008"><a xlink:title=" ">
<path fill="none" stroke="#63b8ff" d="M98.71,-329.72C102.68,-298.92 113.84,-224.24 135,-165 138.33,-155.68 143.24,-145.86 147.67,-137.82"/>
<polygon fill="#63b8ff" stroke="#63b8ff" points="150.76,-139.47 152.7,-129.05 144.69,-135.99 150.76,-139.47"/>
</a>
</g>
</g>
<!-- Node9 -->
<g id="Node000009" class="node">
<title>Node9</title>
<g id="a_Node000009"><a xlink:href="oled_8h.html" target="_top" xlink:title=" ">
<polygon fill="white" stroke="#666666" points="288.5,-294 163.5,-294 163.5,-275 288.5,-275 288.5,-294"/>
<text text-anchor="middle" x="226" y="-282" font-family="Helvetica,sans-Serif" font-size="10.00">OLED_SSD1306/oled.h</text>
</a>
</g>
</g>
<!-- Node1&#45;&gt;Node9 -->
<g id="edge9_Node000001_Node000009" class="edge">
<title>Node1&#45;&gt;Node9</title>
<g id="a_edge9_Node000001_Node000009"><a xlink:title=" ">
<path fill="none" stroke="#63b8ff" d="M127.9,-329.99C149.13,-320.36 177.11,-307.67 197.75,-298.31"/>
<polygon fill="#63b8ff" stroke="#63b8ff" points="199.29,-301.46 206.95,-294.14 196.4,-295.08 199.29,-301.46"/>
</a>
</g>
</g>
<!-- Node4 -->
<g id="Node000004" class="node">
<title>Node4</title>
<g id="a_Node000004"><a xlink:href="pico__sdk__stubs_8h.html" target="_top" xlink:title=" ">
<polygon fill="white" stroke="#666666" points="161.5,-74 52.5,-74 52.5,-55 161.5,-55 161.5,-74"/>
<text text-anchor="middle" x="107" y="-62" font-family="Helvetica,sans-Serif" font-size="10.00">../pico_sdk_stubs.h</text>
</a>
</g>
</g>
<!-- Node3&#45;&gt;Node4 -->
<g id="edge3_Node000003_Node000004" class="edge">
<title>Node3&#45;&gt;Node4</title>
<g id="a_edge3_Node000003_Node000004"><a xlink:title=" ">
<path fill="none" stroke="#63b8ff" d="M65.26,-109.75C72.46,-102.11 83.11,-90.82 91.85,-81.56"/>
<polygon fill="#63b8ff" stroke="#63b8ff" points="94.58,-83.76 98.9,-74.09 89.49,-78.96 94.58,-83.76"/>
</a>
</g>
</g>
<!-- Node5 -->
<g id="Node000005" class="node">
<title>Node5</title>
<g id="a_Node000005"><a xlink:title=" ">
<polygon fill="#e0e0e0" stroke="#999999" points="62,-19 12,-19 12,0 62,0 62,-19"/>
<text text-anchor="middle" x="37" y="-7" font-family="Helvetica,sans-Serif" font-size="10.00">cstdint</text>
</a>
</g>
</g>
<!-- Node4&#45;&gt;Node5 -->
<g id="edge4_Node000004_Node000005" class="edge">
<title>Node4&#45;&gt;Node5</title>
<g id="a_edge4_Node000004_Node000005"><a xlink:title=" ">
<path fill="none" stroke="#63b8ff" d="M95.75,-54.98C85.2,-47 69.2,-34.88 56.56,-25.31"/>
<polygon fill="#63b8ff" stroke="#63b8ff" points="58.54,-22.42 48.45,-19.17 54.31,-28 58.54,-22.42"/>
</a>
</g>
</g>
<!-- Node6 -->
<g id="Node000006" class="node">
<title>Node6</title>
<g id="a_Node000006"><a xlink:title=" ">
<polygon fill="#e0e0e0" stroke="#999999" points="133.5,-19 80.5,-19 80.5,0 133.5,0 133.5,-19"/>
<text text-anchor="middle" x="107" y="-7" font-family="Helvetica,sans-Serif" font-size="10.00">cstddef</text>
</a>
</g>
</g>
<!-- Node4&#45;&gt;Node6 -->
<g id="edge5_Node000004_Node000006" class="edge">
<title>Node4&#45;&gt;Node6</title>
<g id="a_edge5_Node000004_Node000006"><a xlink:title=" ">
<path fill="none" stroke="#63b8ff" d="M107,-54.75C107,-47.8 107,-37.85 107,-29.13"/>
<polygon fill="#63b8ff" stroke="#63b8ff" points="110.5,-29.09 107,-19.09 103.5,-29.09 110.5,-29.09"/>
</a>
</g>
</g>
<!-- Node7 -->
<g id="Node000007" class="node">
<title>Node7</title>
<g id="a_Node000007"><a xlink:title=" ">
<polygon fill="#e0e0e0" stroke="#999999" points="190,-19 152,-19 152,0 190,0 190,-19"/>
<text text-anchor="middle" x="171" y="-7" font-family="Helvetica,sans-Serif" font-size="10.00">map</text>
</a>
</g>
</g>
<!-- Node4&#45;&gt;Node7 -->
<g id="edge6_Node000004_Node000007" class="edge">
<title>Node4&#45;&gt;Node7</title>
<g id="a_edge6_Node000004_Node000007"><a xlink:title=" ">
<path fill="none" stroke="#63b8ff" d="M117.28,-54.98C126.84,-47.07 141.28,-35.11 152.78,-25.58"/>
<polygon fill="#63b8ff" stroke="#63b8ff" points="155.06,-28.24 160.53,-19.17 150.6,-22.85 155.06,-28.24"/>
</a>
</g>
</g>
<!-- Node8&#45;&gt;Node4 -->
<g id="edge8_Node000008_Node000004" class="edge">
<title>Node8&#45;&gt;Node4</title>
<g id="a_edge8_Node000008_Node000004"><a xlink:title=" ">
<path fill="none" stroke="#63b8ff" d="M149.58,-109.75C142.23,-102.11 131.37,-90.82 122.46,-81.56"/>
<polygon fill="#63b8ff" stroke="#63b8ff" points="124.72,-78.87 115.26,-74.09 119.68,-83.72 124.72,-78.87"/>
</a>
</g>
</g>
<!-- Node10 -->
<g id="Node000010" class="node">
<title>Node10</title>
<g id="a_Node000010"><a xlink:title=" ">
<polygon fill="#e0e0e0" stroke="#999999" points="392,-129 330,-129 330,-110 392,-110 392,-129"/>
<text text-anchor="middle" x="361" y="-117" font-family="Helvetica,sans-Serif" font-size="10.00">stdbool.h</text>
</a>
</g>
</g>
<!-- Node9&#45;&gt;Node10 -->
<g id="edge10_Node000009_Node000010" class="edge">
<title>Node9&#45;&gt;Node10</title>
<g id="a_edge10_Node000009_Node000010"><a xlink:title=" ">
<path fill="none" stroke="#63b8ff" d="M240.09,-274.91C253.2,-266.58 272.93,-253.15 288,-239 311.03,-217.38 316.48,-210.92 333,-184 341.86,-169.56 349.44,-151.82 354.47,-138.77"/>
<polygon fill="#63b8ff" stroke="#63b8ff" points="357.86,-139.67 358.06,-129.08 351.3,-137.24 357.86,-139.67"/>
</a>
</g>
</g>
<!-- Node11 -->
<g id="Node000011" class="node">
<title>Node11</title>
<g id="a_Node000011"><a xlink:title=" ">
<polygon fill="#e0e0e0" stroke="#999999" points="197.5,-184 144.5,-184 144.5,-165 197.5,-165 197.5,-184"/>
<text text-anchor="middle" x="171" y="-172" font-family="Helvetica,sans-Serif" font-size="10.00">stdint.h</text>
</a>
</g>
</g>
<!-- Node9&#45;&gt;Node11 -->
<g id="edge11_Node000009_Node000011" class="edge">
<title>Node9&#45;&gt;Node11</title>
<g id="a_edge11_Node000009_Node000011"><a xlink:title=" ">
<path fill="none" stroke="#63b8ff" d="M221.5,-274.66C212.47,-256.93 192,-216.73 180.07,-193.32"/>
<polygon fill="#63b8ff" stroke="#63b8ff" points="183.07,-191.48 175.41,-184.16 176.83,-194.66 183.07,-191.48"/>
</a>
</g>
</g>
<!-- Node12 -->
<g id="Node000012" class="node">
<title>Node12</title>
<g id="a_Node000012"><a xlink:href="ssd1306_8h.html" target="_top" xlink:title=" ">
<polygon fill="white" stroke="#666666" points="279,-239 213,-239 213,-220 279,-220 279,-239"/>
<text text-anchor="middle" x="246" y="-227" font-family="Helvetica,sans-Serif" font-size="10.00">ssd1306.h</text>
</a>
</g>
</g>
<!-- Node9&#45;&gt;Node12 -->
<g id="edge12_Node000009_Node000012" class="edge">
<title>Node9&#45;&gt;Node12</title>
<g id="a_edge12_Node000009_Node000012"><a xlink:title=" ">
<path fill="none" stroke="#63b8ff" d="M229.3,-274.75C231.98,-267.65 235.85,-257.4 239.19,-248.56"/>
<polygon fill="#63b8ff" stroke="#63b8ff" points="242.5,-249.68 242.76,-239.09 235.95,-247.21 242.5,-249.68"/>
</a>
</g>
</g>
<!-- Node12&#45;&gt;Node10 -->
<g id="edge14_Node000012_Node000010" class="edge">
<title>Node12&#45;&gt;Node10</title>
<g id="a_edge14_Node000012_Node000010"><a xlink:title=" ">
<path fill="none" stroke="#63b8ff" d="M261.14,-219.95C274.96,-211.74 295.52,-198.48 311,-184 325.99,-169.98 340.17,-151.26 349.57,-137.78"/>
<polygon fill="#63b8ff" stroke="#63b8ff" points="352.54,-139.64 355.27,-129.4 346.75,-135.7 352.54,-139.64"/>
</a>
</g>
</g>
<!-- Node12&#45;&gt;Node11 -->
<g id="edge13_Node000012_Node000011" class="edge">
<title>Node12&#45;&gt;Node11</title>
<g id="a_edge13_Node000012_Node000011"><a xlink:title=" ">
<path fill="none" stroke="#63b8ff" d="M233.95,-219.98C222.54,-211.92 205.17,-199.65 191.57,-190.03"/>
<polygon fill="#63b8ff" stroke="#63b8ff" points="193.46,-187.08 183.27,-184.17 189.42,-192.8 193.46,-187.08"/>
</a>
</g>
</g>
<!-- Node13 -->
<g id="Node000013" class="node">
<title>Node13</title>
<g id="a_Node000013"><a xlink:href="ssd1306__i2c_8h.html" target="_top" xlink:title=" ">
<polygon fill="white" stroke="#666666" points="302,-184 216,-184 216,-165 302,-165 302,-184"/>
<text text-anchor="middle" x="259" y="-172" font-family="Helvetica,sans-Serif" font-size="10.00">ssd1306_i2c.h</text>
</a>
</g>
</g>
<!-- Node12&#45;&gt;Node13 -->
<g id="edge15_Node000012_Node000013" class="edge">
<title>Node12&#45;&gt;Node13</title>
<g id="a_edge15_Node000012_Node000013"><a xlink:title=" ">
<path fill="none" stroke="#63b8ff" d="M248.15,-219.75C249.87,-212.72 252.35,-202.62 254.5,-193.84"/>
<polygon fill="#63b8ff" stroke="#63b8ff" points="257.91,-194.63 256.89,-184.09 251.11,-192.97 257.91,-194.63"/>
</a>
</g>
</g>
<!-- Node13&#45;&gt;Node3 -->
<g id="edge16_Node000013_Node000003" class="edge">
<title>Node13&#45;&gt;Node3</title>
<g id="a_edge16_Node000013_Node000003"><a xlink:title=" ">
<path fill="none" stroke="#63b8ff" d="M226.55,-164.98C192.04,-155.93 137.34,-141.58 99.44,-131.64"/>
<polygon fill="#63b8ff" stroke="#63b8ff" points="100.27,-128.23 89.71,-129.08 98.49,-135.01 100.27,-128.23"/>
</a>
</g>
</g>
<!-- Node13&#45;&gt;Node8 -->
<g id="edge19_Node000013_Node000008" class="edge">
<title>Node13&#45;&gt;Node8</title>
<g id="a_edge19_Node000013_Node000008"><a xlink:title=" ">
<path fill="none" stroke="#63b8ff" d="M242.77,-164.98C226.82,-156.61 202.22,-143.7 183.62,-133.95"/>
<polygon fill="#63b8ff" stroke="#63b8ff" points="185,-130.72 174.52,-129.17 181.75,-136.92 185,-130.72"/>
</a>
</g>
</g>
<!-- Node13&#45;&gt;Node10 -->
<g id="edge17_Node000013_Node000010" class="edge">
<title>Node13&#45;&gt;Node10</title>
<g id="a_edge17_Node000013_Node000010"><a xlink:title=" ">
<path fill="none" stroke="#63b8ff" d="M275.39,-164.98C291.57,-156.57 316.57,-143.59 335.38,-133.81"/>
<polygon fill="#63b8ff" stroke="#63b8ff" points="337.05,-136.89 344.31,-129.17 333.83,-130.68 337.05,-136.89"/>
</a>
</g>
</g>
<!-- Node14 -->
<g id="Node000014" class="node">
<title>Node14</title>
<g id="a_Node000014"><a xlink:title=" ">
<polygon fill="#e0e0e0" stroke="#999999" points="311.5,-129 220.5,-129 220.5,-110 311.5,-110 311.5,-129"/>
<text text-anchor="middle" x="266" y="-117" font-family="Helvetica,sans-Serif" font-size="10.00">pico/platform.h</text>
</a>
</g>
</g>
<!-- Node13&#45;&gt;Node14 -->
<g id="edge18_Node000013_Node000014" class="edge">
<title>Node13&#45;&gt;Node14</title>
<g id="a_edge18_Node000013_Node000014"><a xlink:title=" ">
<path fill="none" stroke="#63b8ff" d="M260.16,-164.75C261.07,-157.8 262.39,-147.85 263.54,-139.13"/>
<polygon fill="#63b8ff" stroke="#63b8ff" points="267.03,-139.46 264.87,-129.09 260.09,-138.54 267.03,-139.46"/>
</a>
</g>
</g>
</g>
</svg>
