<?xml version="1.0" encoding="UTF-8" standalone="no"?>
<!DOCTYPE svg PUBLIC "-//W3C//DTD SVG 1.1//EN"
 "http://www.w3.org/Graphics/SVG/1.1/DTD/svg11.dtd">
<!-- Generated by graphviz version 2.43.0 (0)
 -->
<!-- Title: RP&#45;Pico&#45;Mock/include/pico_sdk_stubs.h Pages: 1 -->
<svg width="1482pt" height="412pt"
 viewBox="0.00 0.00 1482.42 412.00" xmlns="http://www.w3.org/2000/svg" xmlns:xlink="http://www.w3.org/1999/xlink">
<g id="graph0" class="graph" transform="scale(1 1) rotate(0) translate(4 408)">
<title>RP&#45;Pico&#45;Mock/include/pico_sdk_stubs.h</title>
<!-- Node1 -->
<g id="Node000001" class="node">
<title>Node1</title>
<g id="a_Node000001"><a xlink:title=" ">
<polygon fill="#999999" stroke="#666666" points="733.28,-404 611.28,-404 611.28,-374 733.28,-374 733.28,-404"/>
<text text-anchor="start" x="619.28" y="-392" font-family="Helvetica,sans-Serif" font-size="10.00">RP&#45;Pico&#45;Mock/include</text>
<text text-anchor="middle" x="672.28" y="-381" font-family="Helvetica,sans-Serif" font-size="10.00">/pico_sdk_stubs.h</text>
</a>
</g>
</g>
<!-- Node2 -->
<g id="Node000002" class="node">
<title>Node2</title>
<g id="a_Node000002"><a xlink:href="gpio_8h.html" target="_top" xlink:title=" ">
<polygon fill="white" stroke="#666666" points="377.28,-338 255.28,-338 255.28,-308 377.28,-308 377.28,-338"/>
<text text-anchor="start" x="263.28" y="-326" font-family="Helvetica,sans-Serif" font-size="10.00">RP&#45;Pico&#45;Mock/include</text>
<text text-anchor="middle" x="316.28" y="-315" font-family="Helvetica,sans-Serif" font-size="10.00">/hardware/gpio.h</text>
</a>
</g>
</g>
<!-- Node1&#45;&gt;Node2 -->
<g id="edge1_Node000001_Node000002" class="edge">
<title>Node1&#45;&gt;Node2</title>
<g id="a_edge1_Node000001_Node000002"><a xlink:title=" ">
<path fill="none" stroke="#63b8ff" d="M600.97,-376.03C543.06,-366.19 459.31,-351.68 386.28,-338 383.36,-337.45 380.37,-336.88 377.35,-336.3"/>
<polygon fill="#63b8ff" stroke="#63b8ff" points="600.67,-379.53 611.11,-377.75 601.84,-372.63 600.67,-379.53"/>
</a>
</g>
</g>
<!-- Node3 -->
<g id="Node000003" class="node">
<title>Node3</title>
<g id="a_Node000003"><a xlink:href="i2c_8h.html" target="_top" xlink:title=" ">
<polygon fill="white" stroke="#666666" points="517.28,-338 395.28,-338 395.28,-308 517.28,-308 517.28,-338"/>
<text text-anchor="start" x="403.28" y="-326" font-family="Helvetica,sans-Serif" font-size="10.00">RP&#45;Pico&#45;Mock/include</text>
<text text-anchor="middle" x="456.28" y="-315" font-family="Helvetica,sans-Serif" font-size="10.00">/hardware/i2c.h</text>
</a>
</g>
</g>
<!-- Node1&#45;&gt;Node3 -->
<g id="edge2_Node000001_Node000003" class="edge">
<title>Node1&#45;&gt;Node3</title>
<g id="a_edge2_Node000001_Node000003"><a xlink:title=" ">
<path fill="none" stroke="#63b8ff" d="M614.87,-370.99C580.11,-360.69 536.33,-347.72 503.57,-338.01"/>
<polygon fill="#63b8ff" stroke="#63b8ff" points="614.3,-374.47 624.88,-373.95 616.29,-367.76 614.3,-374.47"/>
</a>
</g>
</g>
<!-- Node20 -->
<g id="Node000020" class="node">
<title>Node20</title>
<g id="a_Node000020"><a xlink:href="stdlib_8h.html" target="_top" xlink:title=" ">
<polygon fill="white" stroke="#666666" points="733.28,-338 611.28,-338 611.28,-308 733.28,-308 733.28,-338"/>
<text text-anchor="start" x="619.28" y="-326" font-family="Helvetica,sans-Serif" font-size="10.00">RP&#45;Pico&#45;Mock/include</text>
<text text-anchor="middle" x="672.28" y="-315" font-family="Helvetica,sans-Serif" font-size="10.00">/pico/stdlib.h</text>
</a>
</g>
</g>
<!-- Node1&#45;&gt;Node20 -->
<g id="edge23_Node000001_Node000020" class="edge">
<title>Node1&#45;&gt;Node20</title>
<g id="a_edge23_Node000001_Node000020"><a xlink:title=" ">
<path fill="none" stroke="#63b8ff" d="M672.28,-363.54C672.28,-354.96 672.28,-345.61 672.28,-338.16"/>
<polygon fill="#63b8ff" stroke="#63b8ff" points="668.78,-363.8 672.28,-373.8 675.78,-363.8 668.78,-363.8"/>
</a>
</g>
</g>
<!-- Node21 -->
<g id="Node000021" class="node">
<title>Node21</title>
<g id="a_Node000021"><a xlink:href="time_8h.html" target="_top" xlink:title=" ">
<polygon fill="white" stroke="#666666" points="1458.28,-266.5 1336.28,-266.5 1336.28,-236.5 1458.28,-236.5 1458.28,-266.5"/>
<text text-anchor="start" x="1344.28" y="-254.5" font-family="Helvetica,sans-Serif" font-size="10.00">RP&#45;Pico&#45;Mock/include</text>
<text text-anchor="middle" x="1397.28" y="-243.5" font-family="Helvetica,sans-Serif" font-size="10.00">/pico/time.h</text>
</a>
</g>
</g>
<!-- Node1&#45;&gt;Node21 -->
<g id="edge35_Node000001_Node000021" class="edge">
<title>Node1&#45;&gt;Node21</title>
<g id="a_edge35_Node000001_Node000021"><a xlink:title=" ">
<path fill="none" stroke="#63b8ff" d="M701.07,-367.9C713.81,-358.9 728.89,-348.06 742.28,-338 759.49,-325.08 760.2,-315.73 780.28,-308 892.94,-264.65 1203.12,-291.27 1322.28,-272 1330.92,-270.6 1340,-268.66 1348.75,-266.54"/>
<polygon fill="#63b8ff" stroke="#63b8ff" points="698.84,-365.19 692.69,-373.81 702.88,-370.91 698.84,-365.19"/>
</a>
</g>
</g>
<!-- Node22 -->
<g id="Node000022" class="node">
<title>Node22</title>
<g id="a_Node000022"><a xlink:href="pico__sdk__mocks_8cpp.html" target="_top" xlink:title=" ">
<polygon fill="white" stroke="#666666" points="913.28,-338 789.28,-338 789.28,-308 913.28,-308 913.28,-338"/>
<text text-anchor="start" x="797.28" y="-326" font-family="Helvetica,sans-Serif" font-size="10.00">RP&#45;Pico&#45;Mock/src/pico</text>
<text text-anchor="middle" x="851.28" y="-315" font-family="Helvetica,sans-Serif" font-size="10.00">_sdk_mocks.cpp</text>
</a>
</g>
</g>
<!-- Node1&#45;&gt;Node22 -->
<g id="edge37_Node000001_Node000022" class="edge">
<title>Node1&#45;&gt;Node22</title>
<g id="a_edge37_Node000001_Node000022"><a xlink:title=" ">
<path fill="none" stroke="#63b8ff" d="M721.35,-370.46C749.91,-360.25 785.42,-347.55 812.09,-338.01"/>
<polygon fill="#63b8ff" stroke="#63b8ff" points="719.8,-367.29 711.57,-373.95 722.16,-373.88 719.8,-367.29"/>
</a>
</g>
</g>
<!-- Node4 -->
<g id="Node000004" class="node">
<title>Node4</title>
<g id="a_Node000004"><a xlink:href="I2C_8h.html" target="_top" xlink:title="Interface C++ simples para o periférico I2C do RP2040/RP2350.">
<polygon fill="white" stroke="#666666" points="810.78,-261 669.78,-261 669.78,-242 810.78,-242 810.78,-261"/>
<text text-anchor="middle" x="740.28" y="-249" font-family="Helvetica,sans-Serif" font-size="10.00">I2C&#45;RP2040&#45;RP2350/I2C.h</text>
</a>
</g>
</g>
<!-- Node3&#45;&gt;Node4 -->
<g id="edge3_Node000003_Node000004" class="edge">
<title>Node3&#45;&gt;Node4</title>
<g id="a_edge3_Node000003_Node000004"><a xlink:title=" ">
<path fill="none" stroke="#63b8ff" d="M523.77,-305.48C580.79,-291.53 660.17,-272.11 705.27,-261.07"/>
<polygon fill="#63b8ff" stroke="#63b8ff" points="522.64,-302.16 513.75,-307.94 524.3,-308.96 522.64,-302.16"/>
</a>
</g>
</g>
<!-- Node13 -->
<g id="Node000013" class="node">
<title>Node13</title>
<g id="a_Node000013"><a xlink:href="ssd1306__i2c_8c.html" target="_top" xlink:title=" ">
<polygon fill="white" stroke="#666666" points="149.78,-195 14.78,-195 14.78,-154 149.78,-154 149.78,-195"/>
<text text-anchor="start" x="22.78" y="-183" font-family="Helvetica,sans-Serif" font-size="10.00">OLED_SSD1306&#45;RP2040</text>
<text text-anchor="start" x="22.78" y="-172" font-family="Helvetica,sans-Serif" font-size="10.00">&#45;RP2350/OLED_SSD1306</text>
<text text-anchor="middle" x="82.28" y="-161" font-family="Helvetica,sans-Serif" font-size="10.00">/ssd1306_i2c.c</text>
</a>
</g>
</g>
<!-- Node3&#45;&gt;Node13 -->
<g id="edge13_Node000003_Node000013" class="edge">
<title>Node3&#45;&gt;Node13</title>
<g id="a_edge13_Node000003_Node000013"><a xlink:title=" ">
<path fill="none" stroke="#63b8ff" d="M384.94,-308.11C307.78,-299.21 145.85,-313.6 101.28,-272 80.44,-252.54 78.7,-217.4 80.02,-195.33"/>
<polygon fill="#63b8ff" stroke="#63b8ff" points="384.86,-311.63 395.25,-309.52 385.82,-304.69 384.86,-311.63"/>
</a>
</g>
</g>
<!-- Node14 -->
<g id="Node000014" class="node">
<title>Node14</title>
<g id="a_Node000014"><a xlink:href="ssd1306__i2c_8h.html" target="_top" xlink:title=" ">
<polygon fill="white" stroke="#666666" points="245.78,-272 110.78,-272 110.78,-231 245.78,-231 245.78,-272"/>
<text text-anchor="start" x="118.78" y="-260" font-family="Helvetica,sans-Serif" font-size="10.00">OLED_SSD1306&#45;RP2040</text>
<text text-anchor="start" x="118.78" y="-249" font-family="Helvetica,sans-Serif" font-size="10.00">&#45;RP2350/OLED_SSD1306</text>
<text text-anchor="middle" x="178.28" y="-238" font-family="Helvetica,sans-Serif" font-size="10.00">/ssd1306_i2c.h</text>
</a>
</g>
</g>
<!-- Node3&#45;&gt;Node14 -->
<g id="edge14_Node000003_Node000014" class="edge">
<title>Node3&#45;&gt;Node14</title>
<g id="a_edge14_Node000003_Node000014"><a xlink:title=" ">
<path fill="none" stroke="#63b8ff" d="M390.11,-305.46C346.6,-294.58 289.81,-280.38 245.99,-269.43"/>
<polygon fill="#63b8ff" stroke="#63b8ff" points="389.48,-308.91 400.03,-307.94 391.17,-302.11 389.48,-308.91"/>
</a>
</g>
</g>
<!-- Node19 -->
<g id="Node000019" class="node">
<title>Node19</title>
<g id="a_Node000019"><a xlink:href="OLED__SSD1306-RP2040-RP2350_2main_8c.html" target="_top" xlink:title=" ">
<polygon fill="white" stroke="#666666" points="244.28,-35.5 112.28,-35.5 112.28,-5.5 244.28,-5.5 244.28,-35.5"/>
<text text-anchor="start" x="120.28" y="-23.5" font-family="Helvetica,sans-Serif" font-size="10.00">OLED_SSD1306&#45;RP2040</text>
<text text-anchor="middle" x="178.28" y="-12.5" font-family="Helvetica,sans-Serif" font-size="10.00">&#45;RP2350/main.c</text>
</a>
</g>
</g>
<!-- Node3&#45;&gt;Node19 -->
<g id="edge22_Node000003_Node000019" class="edge">
<title>Node3&#45;&gt;Node19</title>
<g id="a_edge22_Node000003_Node000019"><a xlink:title=" ">
<path fill="none" stroke="#63b8ff" d="M385.35,-308.02C206.75,-283.17 69.51,-356.1 5.28,-195 -24.49,-120.32 83.99,-61.34 142.82,-35.59"/>
<polygon fill="#63b8ff" stroke="#63b8ff" points="384.85,-311.48 395.25,-309.49 385.88,-304.56 384.85,-311.48"/>
</a>
</g>
</g>
<!-- Node5 -->
<g id="Node000005" class="node">
<title>Node5</title>
<g id="a_Node000005"><a xlink:href="bh1750_8h.html" target="_top" xlink:title=" ">
<polygon fill="white" stroke="#666666" points="904.28,-189.5 768.28,-189.5 768.28,-159.5 904.28,-159.5 904.28,-189.5"/>
<text text-anchor="start" x="776.28" y="-177.5" font-family="Helvetica,sans-Serif" font-size="10.00">BH1750&#45;RP2040&#45;RP3050</text>
<text text-anchor="middle" x="836.28" y="-166.5" font-family="Helvetica,sans-Serif" font-size="10.00">/BH1750/bh1750.h</text>
</a>
</g>
</g>
<!-- Node4&#45;&gt;Node5 -->
<g id="edge4_Node000004_Node000005" class="edge">
<title>Node4&#45;&gt;Node5</title>
<g id="a_edge4_Node000004_Node000005"><a xlink:title=" ">
<path fill="none" stroke="#63b8ff" d="M759.45,-235.52C776.57,-222.15 801.45,-202.71 818.22,-189.61"/>
<polygon fill="#63b8ff" stroke="#63b8ff" points="757.02,-232.98 751.3,-241.9 761.33,-238.5 757.02,-232.98"/>
</a>
</g>
</g>
<!-- Node7 -->
<g id="Node000007" class="node">
<title>Node7</title>
<g id="a_Node000007"><a xlink:href="BH1750-RP2040-RP3050_2main_8cpp.html" target="_top" xlink:title=" ">
<polygon fill="white" stroke="#666666" points="808.28,-112.5 672.28,-112.5 672.28,-82.5 808.28,-82.5 808.28,-112.5"/>
<text text-anchor="start" x="680.28" y="-100.5" font-family="Helvetica,sans-Serif" font-size="10.00">BH1750&#45;RP2040&#45;RP3050</text>
<text text-anchor="middle" x="740.28" y="-89.5" font-family="Helvetica,sans-Serif" font-size="10.00">/main.cpp</text>
</a>
</g>
</g>
<!-- Node4&#45;&gt;Node7 -->
<g id="edge7_Node000004_Node000007" class="edge">
<title>Node4&#45;&gt;Node7</title>
<g id="a_edge7_Node000004_Node000007"><a xlink:title=" ">
<path fill="none" stroke="#63b8ff" d="M740.28,-231.69C740.28,-200.94 740.28,-140.58 740.28,-112.94"/>
<polygon fill="#63b8ff" stroke="#63b8ff" points="736.78,-231.89 740.28,-241.89 743.78,-231.89 736.78,-231.89"/>
</a>
</g>
</g>
<!-- Node8 -->
<g id="Node000008" class="node">
<title>Node8</title>
<g id="a_Node000008"><a xlink:href="I2C_8cpp.html" target="_top" xlink:title=" ">
<polygon fill="white" stroke="#666666" points="712.28,-184 560.28,-184 560.28,-165 712.28,-165 712.28,-184"/>
<text text-anchor="middle" x="636.28" y="-172" font-family="Helvetica,sans-Serif" font-size="10.00">I2C&#45;RP2040&#45;RP2350/I2C.cpp</text>
</a>
</g>
</g>
<!-- Node4&#45;&gt;Node8 -->
<g id="edge8_Node000004_Node000008" class="edge">
<title>Node4&#45;&gt;Node8</title>
<g id="a_edge8_Node000004_Node000008"><a xlink:title=" ">
<path fill="none" stroke="#63b8ff" d="M719.96,-235.85C698.55,-220.4 665.55,-196.6 648.07,-184"/>
<polygon fill="#63b8ff" stroke="#63b8ff" points="718.19,-238.89 728.35,-241.9 722.29,-233.21 718.19,-238.89"/>
</a>
</g>
</g>
<!-- Node9 -->
<g id="Node000009" class="node">
<title>Node9</title>
<g id="a_Node000009"><a xlink:href="MPU6050_8cpp.html" target="_top" xlink:title="Implementação do driver do sensor MPU6050 utilizando o proxy I2C.">
<polygon fill="white" stroke="#666666" points="1224.28,-189.5 1080.28,-189.5 1080.28,-159.5 1224.28,-159.5 1224.28,-189.5"/>
<text text-anchor="start" x="1088.28" y="-177.5" font-family="Helvetica,sans-Serif" font-size="10.00">MPU6050&#45;RP2040&#45;RP2350</text>
<text text-anchor="middle" x="1152.28" y="-166.5" font-family="Helvetica,sans-Serif" font-size="10.00">/MPU6050/MPU6050.cpp</text>
</a>
</g>
</g>
<!-- Node4&#45;&gt;Node9 -->
<g id="edge9_Node000004_Node000009" class="edge">
<title>Node4&#45;&gt;Node9</title>
<g id="a_edge9_Node000004_Node000009"><a xlink:title=" ">
<path fill="none" stroke="#63b8ff" d="M808.02,-240.46C874.9,-230.24 979.98,-213.31 1070.28,-195 1078.46,-193.34 1087.06,-191.46 1095.49,-189.53"/>
<polygon fill="#63b8ff" stroke="#63b8ff" points="807.38,-237.02 798.03,-241.99 808.44,-243.94 807.38,-237.02"/>
</a>
</g>
</g>
<!-- Node10 -->
<g id="Node000010" class="node">
<title>Node10</title>
<g id="a_Node000010"><a xlink:href="MPU6050-RP2040-RP2350_2main_8cpp.html" target="_top" xlink:title="Exemplo de uso do driver MPU6050 com o proxy I2C.">
<polygon fill="white" stroke="#666666" points="542.28,-189.5 398.28,-189.5 398.28,-159.5 542.28,-159.5 542.28,-189.5"/>
<text text-anchor="start" x="406.28" y="-177.5" font-family="Helvetica,sans-Serif" font-size="10.00">MPU6050&#45;RP2040&#45;RP2350</text>
<text text-anchor="middle" x="470.28" y="-166.5" font-family="Helvetica,sans-Serif" font-size="10.00">/main.cpp</text>
</a>
</g>
</g>
<!-- Node4&#45;&gt;Node10 -->
<g id="edge10_Node000004_Node000010" class="edge">
<title>Node4&#45;&gt;Node10</title>
<g id="a_edge10_Node000004_Node000010"><a xlink:title=" ">
<path fill="none" stroke="#63b8ff" d="M699.88,-239.28C652.08,-226 572.49,-203.89 520.7,-189.5"/>
<polygon fill="#63b8ff" stroke="#63b8ff" points="699,-242.67 709.57,-241.97 700.88,-235.92 699,-242.67"/>
</a>
</g>
</g>
<!-- Node11 -->
<g id="Node000011" class="node">
<title>Node11</title>
<g id="a_Node000011"><a xlink:href="VL53L0X-RP2040-RP2350_2main_8cpp.html" target="_top" xlink:title=" ">
<polygon fill="white" stroke="#666666" points="1061.78,-189.5 922.78,-189.5 922.78,-159.5 1061.78,-159.5 1061.78,-189.5"/>
<text text-anchor="start" x="930.78" y="-177.5" font-family="Helvetica,sans-Serif" font-size="10.00">VL53L0X&#45;RP2040&#45;RP2350</text>
<text text-anchor="middle" x="992.28" y="-166.5" font-family="Helvetica,sans-Serif" font-size="10.00">/main.cpp</text>
</a>
</g>
</g>
<!-- Node4&#45;&gt;Node11 -->
<g id="edge11_Node000004_Node000011" class="edge">
<title>Node4&#45;&gt;Node11</title>
<g id="a_edge11_Node000004_Node000011"><a xlink:title=" ">
<path fill="none" stroke="#63b8ff" d="M778.79,-239.04C823.37,-225.77 896.81,-203.92 944.87,-189.61"/>
<polygon fill="#63b8ff" stroke="#63b8ff" points="777.78,-235.69 769.19,-241.9 779.77,-242.4 777.78,-235.69"/>
</a>
</g>
</g>
<!-- Node12 -->
<g id="Node000012" class="node">
<title>Node12</title>
<g id="a_Node000012"><a xlink:href="VL53L0X_8cpp.html" target="_top" xlink:title="Implementação da classe VL53L0X para RP2040.">
<polygon fill="white" stroke="#666666" points="1419.78,-189.5 1280.78,-189.5 1280.78,-159.5 1419.78,-159.5 1419.78,-189.5"/>
<text text-anchor="start" x="1288.78" y="-177.5" font-family="Helvetica,sans-Serif" font-size="10.00">VL53L0X&#45;RP2040&#45;RP2350</text>
<text text-anchor="middle" x="1350.28" y="-166.5" font-family="Helvetica,sans-Serif" font-size="10.00">/vl53l0x/VL53L0X.cpp</text>
</a>
</g>
</g>
<!-- Node4&#45;&gt;Node12 -->
<g id="edge12_Node000004_Node000012" class="edge">
<title>Node4&#45;&gt;Node12</title>
<g id="a_edge12_Node000004_Node000012"><a xlink:title=" ">
<path fill="none" stroke="#63b8ff" d="M821.16,-242.72C918.96,-233.01 1088.48,-215.2 1233.28,-195 1248.68,-192.85 1265.17,-190.27 1280.78,-187.71"/>
<polygon fill="#63b8ff" stroke="#63b8ff" points="820.66,-239.26 811.05,-243.72 821.35,-246.22 820.66,-239.26"/>
</a>
</g>
</g>
<!-- Node6 -->
<g id="Node000006" class="node">
<title>Node6</title>
<g id="a_Node000006"><a xlink:href="bh1750_8cpp.html" target="_top" xlink:title=" ">
<polygon fill="white" stroke="#666666" points="1141.28,-112.5 1005.28,-112.5 1005.28,-82.5 1141.28,-82.5 1141.28,-112.5"/>
<text text-anchor="start" x="1013.28" y="-100.5" font-family="Helvetica,sans-Serif" font-size="10.00">BH1750&#45;RP2040&#45;RP3050</text>
<text text-anchor="middle" x="1073.28" y="-89.5" font-family="Helvetica,sans-Serif" font-size="10.00">/BH1750/bh1750.cpp</text>
</a>
</g>
</g>
<!-- Node5&#45;&gt;Node6 -->
<g id="edge5_Node000005_Node000006" class="edge">
<title>Node5&#45;&gt;Node6</title>
<g id="a_edge5_Node000005_Node000006"><a xlink:title=" ">
<path fill="none" stroke="#63b8ff" d="M890.34,-156.39C932.23,-143.14 989.55,-125 1028.8,-112.58"/>
<polygon fill="#63b8ff" stroke="#63b8ff" points="889.06,-153.13 880.58,-159.48 891.17,-159.8 889.06,-153.13"/>
</a>
</g>
</g>
<!-- Node5&#45;&gt;Node7 -->
<g id="edge6_Node000005_Node000007" class="edge">
<title>Node5&#45;&gt;Node7</title>
<g id="a_edge6_Node000005_Node000007"><a xlink:title=" ">
<path fill="none" stroke="#63b8ff" d="M810.08,-153.03C793.63,-140.18 772.85,-123.94 758.26,-112.54"/>
<polygon fill="#63b8ff" stroke="#63b8ff" points="808.19,-155.99 818.23,-159.39 812.5,-150.48 808.19,-155.99"/>
</a>
</g>
</g>
<!-- Node14&#45;&gt;Node13 -->
<g id="edge21_Node000014_Node000013" class="edge">
<title>Node14&#45;&gt;Node13</title>
<g id="a_edge21_Node000014_Node000013"><a xlink:title=" ">
<path fill="none" stroke="#63b8ff" d="M145.41,-224.82C132.99,-215.11 119.07,-204.24 107.46,-195.17"/>
<polygon fill="#63b8ff" stroke="#63b8ff" points="143.28,-227.59 153.31,-230.99 147.59,-222.08 143.28,-227.59"/>
</a>
</g>
</g>
<!-- Node15 -->
<g id="Node000015" class="node">
<title>Node15</title>
<g id="a_Node000015"><a xlink:href="ssd1306_8h.html" target="_top" xlink:title=" ">
<polygon fill="white" stroke="#666666" points="341.78,-195 206.78,-195 206.78,-154 341.78,-154 341.78,-195"/>
<text text-anchor="start" x="214.78" y="-183" font-family="Helvetica,sans-Serif" font-size="10.00">OLED_SSD1306&#45;RP2040</text>
<text text-anchor="start" x="214.78" y="-172" font-family="Helvetica,sans-Serif" font-size="10.00">&#45;RP2350/OLED_SSD1306</text>
<text text-anchor="middle" x="274.28" y="-161" font-family="Helvetica,sans-Serif" font-size="10.00">/ssd1306.h</text>
</a>
</g>
</g>
<!-- Node14&#45;&gt;Node15 -->
<g id="edge15_Node000014_Node000015" class="edge">
<title>Node14&#45;&gt;Node15</title>
<g id="a_edge15_Node000014_Node000015"><a xlink:title=" ">
<path fill="none" stroke="#63b8ff" d="M211.16,-224.82C223.58,-215.11 237.5,-204.24 249.1,-195.17"/>
<polygon fill="#63b8ff" stroke="#63b8ff" points="208.98,-222.08 203.26,-230.99 213.29,-227.59 208.98,-222.08"/>
</a>
</g>
</g>
<!-- Node16 -->
<g id="Node000016" class="node">
<title>Node16</title>
<g id="a_Node000016"><a xlink:href="oled_8c.html" target="_top" xlink:title=" ">
<polygon fill="white" stroke="#666666" points="437.78,-41 302.78,-41 302.78,0 437.78,0 437.78,-41"/>
<text text-anchor="start" x="310.78" y="-29" font-family="Helvetica,sans-Serif" font-size="10.00">OLED_SSD1306&#45;RP2040</text>
<text text-anchor="start" x="310.78" y="-18" font-family="Helvetica,sans-Serif" font-size="10.00">&#45;RP2350/OLED_SSD1306</text>
<text text-anchor="middle" x="370.28" y="-7" font-family="Helvetica,sans-Serif" font-size="10.00">/oled.c</text>
</a>
</g>
</g>
<!-- Node15&#45;&gt;Node16 -->
<g id="edge16_Node000015_Node000016" class="edge">
<title>Node15&#45;&gt;Node16</title>
<g id="a_edge16_Node000015_Node000016"><a xlink:title=" ">
<path fill="none" stroke="#63b8ff" d="M274.56,-143.61C276.02,-123.39 280.55,-96.86 293.28,-77 302.71,-62.3 317.54,-50.25 331.67,-41.19"/>
<polygon fill="#63b8ff" stroke="#63b8ff" points="271.05,-143.66 274.03,-153.82 278.04,-144.01 271.05,-143.66"/>
</a>
</g>
</g>
<!-- Node17 -->
<g id="Node000017" class="node">
<title>Node17</title>
<g id="a_Node000017"><a xlink:href="oled_8h.html" target="_top" xlink:title=" ">
<polygon fill="white" stroke="#666666" points="437.78,-118 302.78,-118 302.78,-77 437.78,-77 437.78,-118"/>
<text text-anchor="start" x="310.78" y="-106" font-family="Helvetica,sans-Serif" font-size="10.00">OLED_SSD1306&#45;RP2040</text>
<text text-anchor="start" x="310.78" y="-95" font-family="Helvetica,sans-Serif" font-size="10.00">&#45;RP2350/OLED_SSD1306</text>
<text text-anchor="middle" x="370.28" y="-84" font-family="Helvetica,sans-Serif" font-size="10.00">/oled.h</text>
</a>
</g>
</g>
<!-- Node15&#45;&gt;Node17 -->
<g id="edge17_Node000015_Node000017" class="edge">
<title>Node15&#45;&gt;Node17</title>
<g id="a_edge17_Node000015_Node000017"><a xlink:title=" ">
<path fill="none" stroke="#63b8ff" d="M307.16,-147.82C319.58,-138.11 333.5,-127.24 345.1,-118.17"/>
<polygon fill="#63b8ff" stroke="#63b8ff" points="304.98,-145.08 299.26,-153.99 309.29,-150.59 304.98,-145.08"/>
</a>
</g>
</g>
<!-- Node17&#45;&gt;Node16 -->
<g id="edge19_Node000017_Node000016" class="edge">
<title>Node17&#45;&gt;Node16</title>
<g id="a_edge19_Node000017_Node000016"><a xlink:title=" ">
<path fill="none" stroke="#63b8ff" d="M370.28,-66.69C370.28,-58.08 370.28,-48.9 370.28,-41.07"/>
<polygon fill="#63b8ff" stroke="#63b8ff" points="366.78,-66.79 370.28,-76.79 373.78,-66.79 366.78,-66.79"/>
</a>
</g>
</g>
<!-- Node18 -->
<g id="Node000018" class="node">
<title>Node18</title>
<g id="a_Node000018"><a xlink:href="HDMI-RP2040-RP2350_2main_8c.html" target="_top" xlink:title=" ">
<polygon fill="white" stroke="#666666" points="1064.78,-35.5 939.78,-35.5 939.78,-5.5 1064.78,-5.5 1064.78,-35.5"/>
<text text-anchor="start" x="947.78" y="-23.5" font-family="Helvetica,sans-Serif" font-size="10.00">HDMI&#45;RP2040&#45;RP2350</text>
<text text-anchor="middle" x="1002.28" y="-12.5" font-family="Helvetica,sans-Serif" font-size="10.00">/main.c</text>
</a>
</g>
</g>
<!-- Node17&#45;&gt;Node18 -->
<g id="edge18_Node000017_Node000018" class="edge">
<title>Node17&#45;&gt;Node18</title>
<g id="a_edge18_Node000017_Node000018"><a xlink:title=" ">
<path fill="none" stroke="#63b8ff" d="M447.93,-87.29C574.55,-72.26 823.01,-42.77 939.36,-28.97"/>
<polygon fill="#63b8ff" stroke="#63b8ff" points="447.44,-83.82 437.92,-88.47 448.26,-90.77 447.44,-83.82"/>
</a>
</g>
</g>
<!-- Node17&#45;&gt;Node19 -->
<g id="edge20_Node000017_Node000019" class="edge">
<title>Node17&#45;&gt;Node19</title>
<g id="a_edge20_Node000017_Node000019"><a xlink:title=" ">
<path fill="none" stroke="#63b8ff" d="M310.76,-73.25C279.19,-60.92 241.45,-46.17 214.33,-35.58"/>
<polygon fill="#63b8ff" stroke="#63b8ff" points="309.75,-76.61 320.34,-76.99 312.3,-70.09 309.75,-76.61"/>
</a>
</g>
</g>
<!-- Node20&#45;&gt;Node4 -->
<g id="edge27_Node000020_Node000004" class="edge">
<title>Node20&#45;&gt;Node4</title>
<g id="a_edge27_Node000020_Node000004"><a xlink:title=" ">
<path fill="none" stroke="#63b8ff" d="M693.25,-300.57C706.19,-287.34 722.1,-271.08 731.71,-261.27"/>
<polygon fill="#63b8ff" stroke="#63b8ff" points="690.54,-298.34 686.04,-307.94 695.54,-303.24 690.54,-298.34"/>
</a>
</g>
</g>
<!-- Node20&#45;&gt;Node6 -->
<g id="edge24_Node000020_Node000006" class="edge">
<title>Node20&#45;&gt;Node6</title>
<g id="a_edge24_Node000020_Node000006"><a xlink:title=" ">
<path fill="none" stroke="#63b8ff" d="M743.29,-307.14C963.9,-268.64 1098.11,-371.55 1233.28,-195 1244.36,-180.53 1243.85,-168.85 1233.28,-154 1212.4,-124.65 1174.87,-110.69 1141.4,-104.1"/>
<polygon fill="#63b8ff" stroke="#63b8ff" points="742.6,-303.7 733.39,-308.95 743.86,-310.59 742.6,-303.7"/>
</a>
</g>
</g>
<!-- Node20&#45;&gt;Node7 -->
<g id="edge25_Node000020_Node000007" class="edge">
<title>Node20&#45;&gt;Node7</title>
<g id="a_edge25_Node000020_Node000007"><a xlink:title=" ">
<path fill="none" stroke="#63b8ff" d="M601.21,-308.51C496.73,-285.65 321.06,-233.86 389.28,-154 424.9,-112.31 580.27,-101.76 671.93,-99.2"/>
<polygon fill="#63b8ff" stroke="#63b8ff" points="600.57,-311.95 611.08,-310.63 602.04,-305.11 600.57,-311.95"/>
</a>
</g>
</g>
<!-- Node20&#45;&gt;Node9 -->
<g id="edge28_Node000020_Node000009" class="edge">
<title>Node20&#45;&gt;Node9</title>
<g id="a_edge28_Node000020_Node000009"><a xlink:title=" ">
<path fill="none" stroke="#63b8ff" d="M743.53,-305.78C781.9,-296.65 829.92,-284.57 872.28,-272 960.02,-245.97 1061.12,-209.48 1114.58,-189.67"/>
<polygon fill="#63b8ff" stroke="#63b8ff" points="742.41,-302.45 733.49,-308.16 744.02,-309.26 742.41,-302.45"/>
</a>
</g>
</g>
<!-- Node20&#45;&gt;Node10 -->
<g id="edge29_Node000020_Node000010" class="edge">
<title>Node20&#45;&gt;Node10</title>
<g id="a_edge29_Node000020_Node000010"><a xlink:title=" ">
<path fill="none" stroke="#63b8ff" d="M644.62,-301.94C603.07,-271.81 525.59,-215.61 489.59,-189.5"/>
<polygon fill="#63b8ff" stroke="#63b8ff" points="642.76,-304.92 652.91,-307.95 646.87,-299.25 642.76,-304.92"/>
</a>
</g>
</g>
<!-- Node20&#45;&gt;Node11 -->
<g id="edge34_Node000020_Node000011" class="edge">
<title>Node20&#45;&gt;Node11</title>
<g id="a_edge34_Node000020_Node000011"><a xlink:title=" ">
<path fill="none" stroke="#63b8ff" d="M730.61,-304.84C757.97,-296.12 790.76,-284.68 819.28,-272 875.53,-246.99 937.7,-209.78 970.01,-189.65"/>
<polygon fill="#63b8ff" stroke="#63b8ff" points="729.28,-301.59 720.79,-307.93 731.38,-308.27 729.28,-301.59"/>
</a>
</g>
</g>
<!-- Node20&#45;&gt;Node13 -->
<g id="edge31_Node000020_Node000013" class="edge">
<title>Node20&#45;&gt;Node13</title>
<g id="a_edge31_Node000020_Node000013"><a xlink:title=" ">
<path fill="none" stroke="#63b8ff" d="M600.94,-314.82C500.07,-304.32 325.02,-284.63 298.28,-272 274.12,-260.58 277.33,-244.54 254.28,-231 236.16,-220.35 189.88,-205.64 149.89,-194.05"/>
<polygon fill="#63b8ff" stroke="#63b8ff" points="600.75,-318.32 611.06,-315.87 601.47,-311.36 600.75,-318.32"/>
</a>
</g>
</g>
<!-- Node20&#45;&gt;Node14 -->
<g id="edge32_Node000020_Node000014" class="edge">
<title>Node20&#45;&gt;Node14</title>
<g id="a_edge32_Node000020_Node000014"><a xlink:title=" ">
<path fill="none" stroke="#63b8ff" d="M601.09,-314.34C501.05,-303.41 323.97,-283.4 260.28,-272 255.67,-271.17 250.94,-270.25 246.17,-269.27"/>
<polygon fill="#63b8ff" stroke="#63b8ff" points="600.8,-317.83 611.12,-315.43 601.56,-310.87 600.8,-317.83"/>
</a>
</g>
</g>
<!-- Node20&#45;&gt;Node16 -->
<g id="edge30_Node000020_Node000016" class="edge">
<title>Node20&#45;&gt;Node16</title>
<g id="a_edge30_Node000020_Node000016"><a xlink:title=" ">
<path fill="none" stroke="#63b8ff" d="M743.37,-307.33C938.68,-280.15 994.7,-310.14 1188.28,-272 1195.18,-270.64 1425.14,-200.68 1429.28,-195 1440.03,-180.28 1440.32,-168.5 1429.28,-154 1351.36,-51.65 1277.06,-98.78 1150.28,-77 889.54,-32.2 573.78,-23.45 437.86,-21.82"/>
<polygon fill="#63b8ff" stroke="#63b8ff" points="742.77,-303.88 733.36,-308.75 743.76,-310.81 742.77,-303.88"/>
</a>
</g>
</g>
<!-- Node20&#45;&gt;Node18 -->
<g id="edge26_Node000020_Node000018" class="edge">
<title>Node20&#45;&gt;Node18</title>
<g id="a_edge26_Node000020_Node000018"><a xlink:title=" ">
<path fill="none" stroke="#63b8ff" d="M743.49,-311.98C755.74,-310.49 768.37,-309.08 780.28,-308 818.35,-304.54 1440.97,-299.72 1467.28,-272 1488.26,-249.89 1456.74,-165.48 1447.28,-154 1396.83,-92.8 1361.59,-101.92 1286.28,-77 1212.12,-52.46 1123.27,-37.25 1064.93,-29.1"/>
<polygon fill="#63b8ff" stroke="#63b8ff" points="742.79,-308.54 733.31,-313.26 743.66,-315.49 742.79,-308.54"/>
</a>
</g>
</g>
<!-- Node20&#45;&gt;Node19 -->
<g id="edge33_Node000020_Node000019" class="edge">
<title>Node20&#45;&gt;Node19</title>
<g id="a_edge33_Node000020_Node000019"><a xlink:title=" ">
<path fill="none" stroke="#63b8ff" d="M601.01,-312.89C544.78,-304.79 464.69,-291.24 396.28,-272 396.28,-272 197.28,-195 197.28,-195 160.35,-146.95 169.53,-68.08 175.31,-35.88"/>
<polygon fill="#63b8ff" stroke="#63b8ff" points="600.84,-316.4 611.23,-314.34 601.82,-309.47 600.84,-316.4"/>
</a>
</g>
</g>
<!-- Node21&#45;&gt;Node12 -->
<g id="edge36_Node000021_Node000012" class="edge">
<title>Node21&#45;&gt;Node12</title>
<g id="a_edge36_Node000021_Node000012"><a xlink:title=" ">
<path fill="none" stroke="#63b8ff" d="M1383.1,-227.88C1375.29,-215.41 1365.83,-200.32 1359.08,-189.54"/>
<polygon fill="#63b8ff" stroke="#63b8ff" points="1380.17,-229.78 1388.44,-236.39 1386.1,-226.06 1380.17,-229.78"/>
</a>
</g>
</g>
</g>
</svg>
