<?xml version="1.0" encoding="UTF-8" standalone="no"?>
<!DOCTYPE svg PUBLIC "-//W3C//DTD SVG 1.1//EN"
 "http://www.w3.org/Graphics/SVG/1.1/DTD/svg11.dtd">
<!-- Generated by graphviz version 2.43.0 (0)
 -->
<!-- Title: OLED_SSD1306&#45;RP2040&#45;RP2350/OLED_SSD1306/ssd1306_i2c.c Pages: 1 -->
<svg width="847pt" height="269pt"
 viewBox="0.00 0.00 846.50 269.00" xmlns="http://www.w3.org/2000/svg" xmlns:xlink="http://www.w3.org/1999/xlink">
<g id="graph0" class="graph" transform="scale(1 1) rotate(0) translate(4 265)">
<title>OLED_SSD1306&#45;RP2040&#45;RP2350/OLED_SSD1306/ssd1306_i2c.c</title>
<!-- Node1 -->
<g id="Node000001" class="node">
<title>Node1</title>
<g id="a_Node000001"><a xlink:title=" ">
<polygon fill="#999999" stroke="#666666" points="416.5,-261 281.5,-261 281.5,-220 416.5,-220 416.5,-261"/>
<text text-anchor="start" x="289.5" y="-249" font-family="Helvetica,sans-Serif" font-size="10.00">OLED_SSD1306&#45;RP2040</text>
<text text-anchor="start" x="289.5" y="-238" font-family="Helvetica,sans-Serif" font-size="10.00">&#45;RP2350/OLED_SSD1306</text>
<text text-anchor="middle" x="349" y="-227" font-family="Helvetica,sans-Serif" font-size="10.00">/ssd1306_i2c.c</text>
</a>
</g>
</g>
<!-- Node2 -->
<g id="Node000002" class="node">
<title>Node2</title>
<g id="a_Node000002"><a xlink:title=" ">
<polygon fill="#e0e0e0" stroke="#999999" points="50,-184 0,-184 0,-165 50,-165 50,-184"/>
<text text-anchor="middle" x="25" y="-172" font-family="Helvetica,sans-Serif" font-size="10.00">stdio.h</text>
</a>
</g>
</g>
<!-- Node1&#45;&gt;Node2 -->
<g id="edge1_Node000001_Node000002" class="edge">
<title>Node1&#45;&gt;Node2</title>
<g id="a_edge1_Node000001_Node000002"><a xlink:title=" ">
<path fill="none" stroke="#63b8ff" d="M281.39,-227.67C224.78,-217.5 141.64,-201.99 60.14,-184.16"/>
<polygon fill="#63b8ff" stroke="#63b8ff" points="60.73,-180.7 50.21,-181.97 59.23,-187.54 60.73,-180.7"/>
</a>
</g>
</g>
<!-- Node3 -->
<g id="Node000003" class="node">
<title>Node3</title>
<g id="a_Node000003"><a xlink:title=" ">
<polygon fill="#e0e0e0" stroke="#999999" points="121.5,-184 68.5,-184 68.5,-165 121.5,-165 121.5,-184"/>
<text text-anchor="middle" x="95" y="-172" font-family="Helvetica,sans-Serif" font-size="10.00">string.h</text>
</a>
</g>
</g>
<!-- Node1&#45;&gt;Node3 -->
<g id="edge2_Node000001_Node000003" class="edge">
<title>Node1&#45;&gt;Node3</title>
<g id="a_edge2_Node000001_Node000003"><a xlink:title=" ">
<path fill="none" stroke="#63b8ff" d="M281.27,-222.43C233.24,-210.33 170.64,-194.56 131.63,-184.73"/>
<polygon fill="#63b8ff" stroke="#63b8ff" points="132.32,-181.29 121.77,-182.24 130.61,-188.08 132.32,-181.29"/>
</a>
</g>
</g>
<!-- Node4 -->
<g id="Node000004" class="node">
<title>Node4</title>
<g id="a_Node000004"><a xlink:href="stdlib_8h.html" target="_top" xlink:title=" ">
<polygon fill="white" stroke="#666666" points="244.5,-129 191.5,-129 191.5,-110 244.5,-110 244.5,-129"/>
<text text-anchor="middle" x="218" y="-117" font-family="Helvetica,sans-Serif" font-size="10.00">stdlib.h</text>
</a>
</g>
</g>
<!-- Node1&#45;&gt;Node4 -->
<g id="edge3_Node000001_Node000004" class="edge">
<title>Node1&#45;&gt;Node4</title>
<g id="a_edge3_Node000001_Node000004"><a xlink:title=" ">
<path fill="none" stroke="#63b8ff" d="M281.36,-230.02C253.51,-222.41 223.87,-208.7 207,-184 197.85,-170.6 202.6,-152 208.43,-138.4"/>
<polygon fill="#63b8ff" stroke="#63b8ff" points="211.71,-139.66 212.9,-129.13 205.4,-136.62 211.71,-139.66"/>
</a>
</g>
</g>
<!-- Node9 -->
<g id="Node000009" class="node">
<title>Node9</title>
<g id="a_Node000009"><a xlink:title=" ">
<polygon fill="#e0e0e0" stroke="#999999" points="449.5,-184 396.5,-184 396.5,-165 449.5,-165 449.5,-184"/>
<text text-anchor="middle" x="423" y="-172" font-family="Helvetica,sans-Serif" font-size="10.00">ctype.h</text>
</a>
</g>
</g>
<!-- Node1&#45;&gt;Node9 -->
<g id="edge8_Node000001_Node000009" class="edge">
<title>Node1&#45;&gt;Node9</title>
<g id="a_edge8_Node000001_Node000009"><a xlink:title=" ">
<path fill="none" stroke="#63b8ff" d="M371.6,-219.95C382.36,-210.65 395.05,-199.68 405.12,-190.96"/>
<polygon fill="#63b8ff" stroke="#63b8ff" points="407.6,-193.45 412.87,-184.26 403.02,-188.15 407.6,-193.45"/>
</a>
</g>
</g>
<!-- Node10 -->
<g id="Node000010" class="node">
<title>Node10</title>
<g id="a_Node000010"><a xlink:title=" ">
<polygon fill="#e0e0e0" stroke="#999999" points="524,-184 468,-184 468,-165 524,-165 524,-184"/>
<text text-anchor="middle" x="496" y="-172" font-family="Helvetica,sans-Serif" font-size="10.00">assert.h</text>
</a>
</g>
</g>
<!-- Node1&#45;&gt;Node10 -->
<g id="edge9_Node000001_Node000010" class="edge">
<title>Node1&#45;&gt;Node10</title>
<g id="a_edge9_Node000001_Node000010"><a xlink:title=" ">
<path fill="none" stroke="#63b8ff" d="M393.9,-219.95C417.67,-209.6 446.15,-197.2 466.99,-188.13"/>
<polygon fill="#63b8ff" stroke="#63b8ff" points="468.49,-191.29 476.27,-184.09 465.7,-184.87 468.49,-191.29"/>
</a>
</g>
</g>
<!-- Node11 -->
<g id="Node000011" class="node">
<title>Node11</title>
<g id="a_Node000011"><a xlink:title=" ">
<polygon fill="#e0e0e0" stroke="#999999" points="325,-129 263,-129 263,-110 325,-110 325,-129"/>
<text text-anchor="middle" x="294" y="-117" font-family="Helvetica,sans-Serif" font-size="10.00">stdbool.h</text>
</a>
</g>
</g>
<!-- Node1&#45;&gt;Node11 -->
<g id="edge10_Node000001_Node000011" class="edge">
<title>Node1&#45;&gt;Node11</title>
<g id="a_edge10_Node000001_Node000011"><a xlink:title=" ">
<path fill="none" stroke="#63b8ff" d="M339.92,-219.85C329.43,-197.17 312.34,-160.19 302.23,-138.31"/>
<polygon fill="#63b8ff" stroke="#63b8ff" points="305.38,-136.78 298.01,-129.18 299.03,-139.72 305.38,-136.78"/>
</a>
</g>
</g>
<!-- Node12 -->
<g id="Node000012" class="node">
<title>Node12</title>
<g id="a_Node000012"><a xlink:title=" ">
<polygon fill="#e0e0e0" stroke="#999999" points="434.5,-129 343.5,-129 343.5,-110 434.5,-110 434.5,-129"/>
<text text-anchor="middle" x="389" y="-117" font-family="Helvetica,sans-Serif" font-size="10.00">pico/platform.h</text>
</a>
</g>
</g>
<!-- Node1&#45;&gt;Node12 -->
<g id="edge11_Node000001_Node000012" class="edge">
<title>Node1&#45;&gt;Node12</title>
<g id="a_edge11_Node000001_Node000012"><a xlink:title=" ">
<path fill="none" stroke="#63b8ff" d="M355.61,-219.85C363.16,-197.37 375.43,-160.86 382.81,-138.91"/>
<polygon fill="#63b8ff" stroke="#63b8ff" points="386.22,-139.77 386.08,-129.18 379.58,-137.54 386.22,-139.77"/>
</a>
</g>
</g>
<!-- Node13 -->
<g id="Node000013" class="node">
<title>Node13</title>
<g id="a_Node000013"><a xlink:title=" ">
<polygon fill="#e0e0e0" stroke="#999999" points="646,-184 542,-184 542,-165 646,-165 646,-184"/>
<text text-anchor="middle" x="594" y="-172" font-family="Helvetica,sans-Serif" font-size="10.00">pico/binary_info.h</text>
</a>
</g>
</g>
<!-- Node1&#45;&gt;Node13 -->
<g id="edge12_Node000001_Node000013" class="edge">
<title>Node1&#45;&gt;Node13</title>
<g id="a_edge12_Node000001_Node000013"><a xlink:title=" ">
<path fill="none" stroke="#63b8ff" d="M416.6,-221.84C459.71,-210.58 514.26,-196.33 551.41,-186.63"/>
<polygon fill="#63b8ff" stroke="#63b8ff" points="552.61,-189.93 561.41,-184.01 550.85,-183.16 552.61,-189.93"/>
</a>
</g>
</g>
<!-- Node14 -->
<g id="Node000014" class="node">
<title>Node14</title>
<g id="a_Node000014"><a xlink:href="i2c_8h.html" target="_top" xlink:title=" ">
<polygon fill="white" stroke="#666666" points="173.5,-129 84.5,-129 84.5,-110 173.5,-110 173.5,-129"/>
<text text-anchor="middle" x="129" y="-117" font-family="Helvetica,sans-Serif" font-size="10.00">hardware/i2c.h</text>
</a>
</g>
</g>
<!-- Node1&#45;&gt;Node14 -->
<g id="edge13_Node000001_Node000014" class="edge">
<title>Node1&#45;&gt;Node14</title>
<g id="a_edge13_Node000001_Node000014"><a xlink:title=" ">
<path fill="none" stroke="#63b8ff" d="M281.39,-220.93C254.36,-211.94 223.63,-199.64 198,-184 176.63,-170.95 156.03,-150.66 142.99,-136.54"/>
<polygon fill="#63b8ff" stroke="#63b8ff" points="145.53,-134.13 136.24,-129.04 140.33,-138.81 145.53,-134.13"/>
</a>
</g>
</g>
<!-- Node15 -->
<g id="Node000015" class="node">
<title>Node15</title>
<g id="a_Node000015"><a xlink:href="ssd1306__font_8h.html" target="_top" xlink:title=" ">
<polygon fill="white" stroke="#666666" points="755.5,-184 664.5,-184 664.5,-165 755.5,-165 755.5,-184"/>
<text text-anchor="middle" x="710" y="-172" font-family="Helvetica,sans-Serif" font-size="10.00">ssd1306_font.h</text>
</a>
</g>
</g>
<!-- Node1&#45;&gt;Node15 -->
<g id="edge15_Node000001_Node000015" class="edge">
<title>Node1&#45;&gt;Node15</title>
<g id="a_edge15_Node000001_Node000015"><a xlink:title=" ">
<path fill="none" stroke="#63b8ff" d="M416.9,-227.46C485.63,-215.28 590.62,-196.66 654.52,-185.34"/>
<polygon fill="#63b8ff" stroke="#63b8ff" points="655.18,-188.77 664.41,-183.58 653.95,-181.88 655.18,-188.77"/>
</a>
</g>
</g>
<!-- Node17 -->
<g id="Node000017" class="node">
<title>Node17</title>
<g id="a_Node000017"><a xlink:href="big__font_8h.html" target="_top" xlink:title=" ">
<polygon fill="white" stroke="#666666" points="838.5,-184 773.5,-184 773.5,-165 838.5,-165 838.5,-184"/>
<text text-anchor="middle" x="806" y="-172" font-family="Helvetica,sans-Serif" font-size="10.00">big_font.h</text>
</a>
</g>
</g>
<!-- Node1&#45;&gt;Node17 -->
<g id="edge17_Node000001_Node000017" class="edge">
<title>Node1&#45;&gt;Node17</title>
<g id="a_edge17_Node000001_Node000017"><a xlink:title=" ">
<path fill="none" stroke="#63b8ff" d="M416.59,-231.99C496.99,-222.73 635.46,-205.7 763.39,-184.18"/>
<polygon fill="#63b8ff" stroke="#63b8ff" points="764.09,-187.61 773.37,-182.49 762.92,-180.71 764.09,-187.61"/>
</a>
</g>
</g>
<!-- Node18 -->
<g id="Node000018" class="node">
<title>Node18</title>
<g id="a_Node000018"><a xlink:href="ssd1306__i2c_8h.html" target="_top" xlink:title=" ">
<polygon fill="white" stroke="#666666" points="302,-184 216,-184 216,-165 302,-165 302,-184"/>
<text text-anchor="middle" x="259" y="-172" font-family="Helvetica,sans-Serif" font-size="10.00">ssd1306_i2c.h</text>
</a>
</g>
</g>
<!-- Node1&#45;&gt;Node18 -->
<g id="edge19_Node000001_Node000018" class="edge">
<title>Node1&#45;&gt;Node18</title>
<g id="a_edge19_Node000001_Node000018"><a xlink:title=" ">
<path fill="none" stroke="#63b8ff" d="M321.51,-219.95C308.03,-210.37 292.07,-199.02 279.65,-190.19"/>
<polygon fill="#63b8ff" stroke="#63b8ff" points="281.5,-187.2 271.32,-184.26 277.44,-192.91 281.5,-187.2"/>
</a>
</g>
</g>
<!-- Node5 -->
<g id="Node000005" class="node">
<title>Node5</title>
<g id="a_Node000005"><a xlink:href="pico__sdk__stubs_8h.html" target="_top" xlink:title=" ">
<polygon fill="white" stroke="#666666" points="227.5,-74 118.5,-74 118.5,-55 227.5,-55 227.5,-74"/>
<text text-anchor="middle" x="173" y="-62" font-family="Helvetica,sans-Serif" font-size="10.00">../pico_sdk_stubs.h</text>
</a>
</g>
</g>
<!-- Node4&#45;&gt;Node5 -->
<g id="edge4_Node000004_Node000005" class="edge">
<title>Node4&#45;&gt;Node5</title>
<g id="a_edge4_Node000004_Node000005"><a xlink:title=" ">
<path fill="none" stroke="#63b8ff" d="M210.57,-109.75C204.15,-102.18 194.69,-91.05 186.88,-81.84"/>
<polygon fill="#63b8ff" stroke="#63b8ff" points="189.43,-79.45 180.29,-74.09 184.1,-83.98 189.43,-79.45"/>
</a>
</g>
</g>
<!-- Node6 -->
<g id="Node000006" class="node">
<title>Node6</title>
<g id="a_Node000006"><a xlink:title=" ">
<polygon fill="#e0e0e0" stroke="#999999" points="128,-19 78,-19 78,0 128,0 128,-19"/>
<text text-anchor="middle" x="103" y="-7" font-family="Helvetica,sans-Serif" font-size="10.00">cstdint</text>
</a>
</g>
</g>
<!-- Node5&#45;&gt;Node6 -->
<g id="edge5_Node000005_Node000006" class="edge">
<title>Node5&#45;&gt;Node6</title>
<g id="a_edge5_Node000005_Node000006"><a xlink:title=" ">
<path fill="none" stroke="#63b8ff" d="M161.75,-54.98C151.2,-47 135.2,-34.88 122.56,-25.31"/>
<polygon fill="#63b8ff" stroke="#63b8ff" points="124.54,-22.42 114.45,-19.17 120.31,-28 124.54,-22.42"/>
</a>
</g>
</g>
<!-- Node7 -->
<g id="Node000007" class="node">
<title>Node7</title>
<g id="a_Node000007"><a xlink:title=" ">
<polygon fill="#e0e0e0" stroke="#999999" points="199.5,-19 146.5,-19 146.5,0 199.5,0 199.5,-19"/>
<text text-anchor="middle" x="173" y="-7" font-family="Helvetica,sans-Serif" font-size="10.00">cstddef</text>
</a>
</g>
</g>
<!-- Node5&#45;&gt;Node7 -->
<g id="edge6_Node000005_Node000007" class="edge">
<title>Node5&#45;&gt;Node7</title>
<g id="a_edge6_Node000005_Node000007"><a xlink:title=" ">
<path fill="none" stroke="#63b8ff" d="M173,-54.75C173,-47.8 173,-37.85 173,-29.13"/>
<polygon fill="#63b8ff" stroke="#63b8ff" points="176.5,-29.09 173,-19.09 169.5,-29.09 176.5,-29.09"/>
</a>
</g>
</g>
<!-- Node8 -->
<g id="Node000008" class="node">
<title>Node8</title>
<g id="a_Node000008"><a xlink:title=" ">
<polygon fill="#e0e0e0" stroke="#999999" points="256,-19 218,-19 218,0 256,0 256,-19"/>
<text text-anchor="middle" x="237" y="-7" font-family="Helvetica,sans-Serif" font-size="10.00">map</text>
</a>
</g>
</g>
<!-- Node5&#45;&gt;Node8 -->
<g id="edge7_Node000005_Node000008" class="edge">
<title>Node5&#45;&gt;Node8</title>
<g id="a_edge7_Node000005_Node000008"><a xlink:title=" ">
<path fill="none" stroke="#63b8ff" d="M183.28,-54.98C192.84,-47.07 207.28,-35.11 218.78,-25.58"/>
<polygon fill="#63b8ff" stroke="#63b8ff" points="221.06,-28.24 226.53,-19.17 216.6,-22.85 221.06,-28.24"/>
</a>
</g>
</g>
<!-- Node14&#45;&gt;Node5 -->
<g id="edge14_Node000014_Node000005" class="edge">
<title>Node14&#45;&gt;Node5</title>
<g id="a_edge14_Node000014_Node000005"><a xlink:title=" ">
<path fill="none" stroke="#63b8ff" d="M136.27,-109.75C142.54,-102.18 151.79,-91.05 159.43,-81.84"/>
<polygon fill="#63b8ff" stroke="#63b8ff" points="162.17,-84.02 165.87,-74.09 156.79,-79.55 162.17,-84.02"/>
</a>
</g>
</g>
<!-- Node16 -->
<g id="Node000016" class="node">
<title>Node16</title>
<g id="a_Node000016"><a xlink:title=" ">
<polygon fill="#e0e0e0" stroke="#999999" points="784.5,-129 731.5,-129 731.5,-110 784.5,-110 784.5,-129"/>
<text text-anchor="middle" x="758" y="-117" font-family="Helvetica,sans-Serif" font-size="10.00">stdint.h</text>
</a>
</g>
</g>
<!-- Node15&#45;&gt;Node16 -->
<g id="edge16_Node000015_Node000016" class="edge">
<title>Node15&#45;&gt;Node16</title>
<g id="a_edge16_Node000015_Node000016"><a xlink:title=" ">
<path fill="none" stroke="#63b8ff" d="M717.93,-164.75C724.85,-157.11 735.07,-145.82 743.45,-136.56"/>
<polygon fill="#63b8ff" stroke="#63b8ff" points="746.1,-138.85 750.22,-129.09 740.91,-134.15 746.1,-138.85"/>
</a>
</g>
</g>
<!-- Node17&#45;&gt;Node16 -->
<g id="edge18_Node000017_Node000016" class="edge">
<title>Node17&#45;&gt;Node16</title>
<g id="a_edge18_Node000017_Node000016"><a xlink:title=" ">
<path fill="none" stroke="#63b8ff" d="M798.07,-164.75C791.15,-157.11 780.93,-145.82 772.55,-136.56"/>
<polygon fill="#63b8ff" stroke="#63b8ff" points="775.09,-134.15 765.78,-129.09 769.9,-138.85 775.09,-134.15"/>
</a>
</g>
</g>
<!-- Node18&#45;&gt;Node4 -->
<g id="edge20_Node000018_Node000004" class="edge">
<title>Node18&#45;&gt;Node4</title>
<g id="a_edge20_Node000018_Node000004"><a xlink:title=" ">
<path fill="none" stroke="#63b8ff" d="M252.23,-164.75C246.44,-157.26 237.94,-146.28 230.86,-137.13"/>
<polygon fill="#63b8ff" stroke="#63b8ff" points="233.53,-134.86 224.64,-129.09 227.99,-139.14 233.53,-134.86"/>
</a>
</g>
</g>
<!-- Node18&#45;&gt;Node11 -->
<g id="edge21_Node000018_Node000011" class="edge">
<title>Node18&#45;&gt;Node11</title>
<g id="a_edge21_Node000018_Node000011"><a xlink:title=" ">
<path fill="none" stroke="#63b8ff" d="M264.78,-164.75C269.62,-157.42 276.68,-146.73 282.64,-137.7"/>
<polygon fill="#63b8ff" stroke="#63b8ff" points="285.74,-139.36 288.33,-129.09 279.9,-135.5 285.74,-139.36"/>
</a>
</g>
</g>
<!-- Node18&#45;&gt;Node12 -->
<g id="edge22_Node000018_Node000012" class="edge">
<title>Node18&#45;&gt;Node12</title>
<g id="a_edge22_Node000018_Node000012"><a xlink:title=" ">
<path fill="none" stroke="#63b8ff" d="M279.89,-164.98C301.08,-156.34 334.13,-142.87 358.3,-133.02"/>
<polygon fill="#63b8ff" stroke="#63b8ff" points="359.79,-136.19 367.73,-129.17 357.15,-129.7 359.79,-136.19"/>
</a>
</g>
</g>
<!-- Node18&#45;&gt;Node14 -->
<g id="edge23_Node000018_Node000014" class="edge">
<title>Node18&#45;&gt;Node14</title>
<g id="a_edge23_Node000018_Node000014"><a xlink:title=" ">
<path fill="none" stroke="#63b8ff" d="M238.11,-164.98C216.92,-156.34 183.87,-142.87 159.7,-133.02"/>
<polygon fill="#63b8ff" stroke="#63b8ff" points="160.85,-129.7 150.27,-129.17 158.21,-136.19 160.85,-129.7"/>
</a>
</g>
</g>
</g>
</svg>
