<?xml version="1.0" encoding="UTF-8" standalone="no"?>
<!DOCTYPE svg PUBLIC "-//W3C//DTD SVG 1.1//EN"
 "http://www.w3.org/Graphics/SVG/1.1/DTD/svg11.dtd">
<!-- Generated by graphviz version 2.43.0 (0)
 -->
<!-- Title: OLED_SSD1306&#45;RP2040&#45;RP2350/OLED_SSD1306/ssd1306_i2c.h Pages: 1 -->
<svg width="437pt" height="280pt"
 viewBox="0.00 0.00 436.50 280.00" xmlns="http://www.w3.org/2000/svg" xmlns:xlink="http://www.w3.org/1999/xlink">
<g id="graph0" class="graph" transform="scale(1 1) rotate(0) translate(4 276)">
<title>OLED_SSD1306&#45;RP2040&#45;RP2350/OLED_SSD1306/ssd1306_i2c.h</title>
<!-- Node1 -->
<g id="Node000001" class="node">
<title>Node1</title>
<g id="a_Node000001"><a xlink:title=" ">
<polygon fill="#999999" stroke="#666666" points="285,-272 150,-272 150,-231 285,-231 285,-272"/>
<text text-anchor="start" x="158" y="-260" font-family="Helvetica,sans-Serif" font-size="10.00">OLED_SSD1306&#45;RP2040</text>
<text text-anchor="start" x="158" y="-249" font-family="Helvetica,sans-Serif" font-size="10.00">&#45;RP2350/OLED_SSD1306</text>
<text text-anchor="middle" x="217.5" y="-238" font-family="Helvetica,sans-Serif" font-size="10.00">/ssd1306_i2c.h</text>
</a>
</g>
</g>
<!-- Node2 -->
<g id="Node000002" class="node">
<title>Node2</title>
<g id="a_Node000002"><a xlink:href="ssd1306_8h.html" target="_top" xlink:title=" ">
<polygon fill="white" stroke="#666666" points="209,-195 74,-195 74,-154 209,-154 209,-195"/>
<text text-anchor="start" x="82" y="-183" font-family="Helvetica,sans-Serif" font-size="10.00">OLED_SSD1306&#45;RP2040</text>
<text text-anchor="start" x="82" y="-172" font-family="Helvetica,sans-Serif" font-size="10.00">&#45;RP2350/OLED_SSD1306</text>
<text text-anchor="middle" x="141.5" y="-161" font-family="Helvetica,sans-Serif" font-size="10.00">/ssd1306.h</text>
</a>
</g>
</g>
<!-- Node1&#45;&gt;Node2 -->
<g id="edge1_Node000001_Node000002" class="edge">
<title>Node1&#45;&gt;Node2</title>
<g id="a_edge1_Node000001_Node000002"><a xlink:title=" ">
<path fill="none" stroke="#63b8ff" d="M190.15,-223.51C180.63,-214.11 170.13,-203.76 161.33,-195.07"/>
<polygon fill="#63b8ff" stroke="#63b8ff" points="187.96,-226.26 197.53,-230.79 192.87,-221.28 187.96,-226.26"/>
</a>
</g>
</g>
<!-- Node7 -->
<g id="Node000007" class="node">
<title>Node7</title>
<g id="a_Node000007"><a xlink:href="ssd1306__i2c_8c.html" target="_top" xlink:title=" ">
<polygon fill="white" stroke="#666666" points="362,-195 227,-195 227,-154 362,-154 362,-195"/>
<text text-anchor="start" x="235" y="-183" font-family="Helvetica,sans-Serif" font-size="10.00">OLED_SSD1306&#45;RP2040</text>
<text text-anchor="start" x="235" y="-172" font-family="Helvetica,sans-Serif" font-size="10.00">&#45;RP2350/OLED_SSD1306</text>
<text text-anchor="middle" x="294.5" y="-161" font-family="Helvetica,sans-Serif" font-size="10.00">/ssd1306_i2c.c</text>
</a>
</g>
</g>
<!-- Node1&#45;&gt;Node7 -->
<g id="edge7_Node000001_Node000007" class="edge">
<title>Node1&#45;&gt;Node7</title>
<g id="a_edge7_Node000001_Node000007"><a xlink:title=" ">
<path fill="none" stroke="#63b8ff" d="M244.92,-223.79C254.65,-214.32 265.4,-203.84 274.4,-195.07"/>
<polygon fill="#63b8ff" stroke="#63b8ff" points="242.45,-221.31 237.73,-230.79 247.34,-226.32 242.45,-221.31"/>
</a>
</g>
</g>
<!-- Node3 -->
<g id="Node000003" class="node">
<title>Node3</title>
<g id="a_Node000003"><a xlink:href="oled_8c.html" target="_top" xlink:title=" ">
<polygon fill="white" stroke="#666666" points="135,-41 0,-41 0,0 135,0 135,-41"/>
<text text-anchor="start" x="8" y="-29" font-family="Helvetica,sans-Serif" font-size="10.00">OLED_SSD1306&#45;RP2040</text>
<text text-anchor="start" x="8" y="-18" font-family="Helvetica,sans-Serif" font-size="10.00">&#45;RP2350/OLED_SSD1306</text>
<text text-anchor="middle" x="67.5" y="-7" font-family="Helvetica,sans-Serif" font-size="10.00">/oled.c</text>
</a>
</g>
</g>
<!-- Node2&#45;&gt;Node3 -->
<g id="edge2_Node000002_Node000003" class="edge">
<title>Node2&#45;&gt;Node3</title>
<g id="a_edge2_Node000002_Node000003"><a xlink:title=" ">
<path fill="none" stroke="#63b8ff" d="M127.51,-144.76C112.81,-114.57 90.07,-67.87 77.22,-41.47"/>
<polygon fill="#63b8ff" stroke="#63b8ff" points="124.45,-146.48 131.98,-153.94 130.75,-143.42 124.45,-146.48"/>
</a>
</g>
</g>
<!-- Node4 -->
<g id="Node000004" class="node">
<title>Node4</title>
<g id="a_Node000004"><a xlink:href="oled_8h.html" target="_top" xlink:title=" ">
<polygon fill="white" stroke="#666666" points="270,-118 135,-118 135,-77 270,-77 270,-118"/>
<text text-anchor="start" x="143" y="-106" font-family="Helvetica,sans-Serif" font-size="10.00">OLED_SSD1306&#45;RP2040</text>
<text text-anchor="start" x="143" y="-95" font-family="Helvetica,sans-Serif" font-size="10.00">&#45;RP2350/OLED_SSD1306</text>
<text text-anchor="middle" x="202.5" y="-84" font-family="Helvetica,sans-Serif" font-size="10.00">/oled.h</text>
</a>
</g>
</g>
<!-- Node2&#45;&gt;Node4 -->
<g id="edge3_Node000002_Node000004" class="edge">
<title>Node2&#45;&gt;Node4</title>
<g id="a_edge3_Node000002_Node000004"><a xlink:title=" ">
<path fill="none" stroke="#63b8ff" d="M163.9,-145.95C171.43,-136.7 179.66,-126.58 186.58,-118.07"/>
<polygon fill="#63b8ff" stroke="#63b8ff" points="161.12,-143.83 157.53,-153.79 166.55,-148.25 161.12,-143.83"/>
</a>
</g>
</g>
<!-- Node4&#45;&gt;Node3 -->
<g id="edge5_Node000004_Node000003" class="edge">
<title>Node4&#45;&gt;Node3</title>
<g id="a_edge5_Node000004_Node000003"><a xlink:title=" ">
<path fill="none" stroke="#63b8ff" d="M158.25,-71.92C140.3,-61.95 119.85,-50.58 102.91,-41.17"/>
<polygon fill="#63b8ff" stroke="#63b8ff" points="156.94,-75.19 167.38,-76.99 160.34,-69.07 156.94,-75.19"/>
</a>
</g>
</g>
<!-- Node5 -->
<g id="Node000005" class="node">
<title>Node5</title>
<g id="a_Node000005"><a xlink:href="HDMI-RP2040-RP2350_2main_8c.html" target="_top" xlink:title=" ">
<polygon fill="white" stroke="#666666" points="278,-35.5 153,-35.5 153,-5.5 278,-5.5 278,-35.5"/>
<text text-anchor="start" x="161" y="-23.5" font-family="Helvetica,sans-Serif" font-size="10.00">HDMI&#45;RP2040&#45;RP2350</text>
<text text-anchor="middle" x="215.5" y="-12.5" font-family="Helvetica,sans-Serif" font-size="10.00">/main.c</text>
</a>
</g>
</g>
<!-- Node4&#45;&gt;Node5 -->
<g id="edge4_Node000004_Node000005" class="edge">
<title>Node4&#45;&gt;Node5</title>
<g id="a_edge4_Node000004_Node000005"><a xlink:title=" ">
<path fill="none" stroke="#63b8ff" d="M207.68,-66.61C209.52,-56.01 211.5,-44.57 213.01,-35.86"/>
<polygon fill="#63b8ff" stroke="#63b8ff" points="204.17,-66.34 205.92,-76.79 211.07,-67.54 204.17,-66.34"/>
</a>
</g>
</g>
<!-- Node6 -->
<g id="Node000006" class="node">
<title>Node6</title>
<g id="a_Node000006"><a xlink:href="OLED__SSD1306-RP2040-RP2350_2main_8c.html" target="_top" xlink:title=" ">
<polygon fill="white" stroke="#666666" points="428.5,-35.5 296.5,-35.5 296.5,-5.5 428.5,-5.5 428.5,-35.5"/>
<text text-anchor="start" x="304.5" y="-23.5" font-family="Helvetica,sans-Serif" font-size="10.00">OLED_SSD1306&#45;RP2040</text>
<text text-anchor="middle" x="362.5" y="-12.5" font-family="Helvetica,sans-Serif" font-size="10.00">&#45;RP2350/main.c</text>
</a>
</g>
</g>
<!-- Node4&#45;&gt;Node6 -->
<g id="edge6_Node000004_Node000006" class="edge">
<title>Node4&#45;&gt;Node6</title>
<g id="a_edge6_Node000004_Node000006"><a xlink:title=" ">
<path fill="none" stroke="#63b8ff" d="M253.47,-72.61C279.49,-60.41 310.25,-45.99 332.46,-35.58"/>
<polygon fill="#63b8ff" stroke="#63b8ff" points="251.69,-69.58 244.12,-76.99 254.66,-75.92 251.69,-69.58"/>
</a>
</g>
</g>
</g>
</svg>
