<?xml version="1.0" encoding="UTF-8" standalone="no"?>
<!DOCTYPE svg PUBLIC "-//W3C//DTD SVG 1.1//EN"
 "http://www.w3.org/Graphics/SVG/1.1/DTD/svg11.dtd">
<!-- Generated by graphviz version 2.43.0 (0)
 -->
<!-- Title: OLED_SSD1306&#45;RP2040&#45;RP2350/OLED_SSD1306/ssd1306_i2c.h Pages: 1 -->
<svg width="358pt" height="214pt"
 viewBox="0.00 0.00 358.00 214.00" xmlns="http://www.w3.org/2000/svg" xmlns:xlink="http://www.w3.org/1999/xlink">
<g id="graph0" class="graph" transform="scale(1 1) rotate(0) translate(4 210)">
<title>OLED_SSD1306&#45;RP2040&#45;RP2350/OLED_SSD1306/ssd1306_i2c.h</title>
<!-- Node1 -->
<g id="Node000001" class="node">
<title>Node1</title>
<g id="a_Node000001"><a xlink:title=" ">
<polygon fill="#999999" stroke="#666666" points="217,-206 82,-206 82,-165 217,-165 217,-206"/>
<text text-anchor="start" x="90" y="-194" font-family="Helvetica,sans-Serif" font-size="10.00">OLED_SSD1306&#45;RP2040</text>
<text text-anchor="start" x="90" y="-183" font-family="Helvetica,sans-Serif" font-size="10.00">&#45;RP2350/OLED_SSD1306</text>
<text text-anchor="middle" x="149.5" y="-172" font-family="Helvetica,sans-Serif" font-size="10.00">/ssd1306_i2c.h</text>
</a>
</g>
</g>
<!-- Node2 -->
<g id="Node000002" class="node">
<title>Node2</title>
<g id="a_Node000002"><a xlink:href="stdlib_8h.html" target="_top" xlink:title=" ">
<polygon fill="white" stroke="#666666" points="53,-129 0,-129 0,-110 53,-110 53,-129"/>
<text text-anchor="middle" x="26.5" y="-117" font-family="Helvetica,sans-Serif" font-size="10.00">stdlib.h</text>
</a>
</g>
</g>
<!-- Node1&#45;&gt;Node2 -->
<g id="edge1_Node000001_Node000002" class="edge">
<title>Node1&#45;&gt;Node2</title>
<g id="a_edge1_Node000001_Node000002"><a xlink:title=" ">
<path fill="none" stroke="#63b8ff" d="M111.93,-164.95C92.49,-154.84 69.29,-142.76 51.97,-133.75"/>
<polygon fill="#63b8ff" stroke="#63b8ff" points="53.5,-130.6 43.01,-129.09 50.27,-136.81 53.5,-130.6"/>
</a>
</g>
</g>
<!-- Node7 -->
<g id="Node000007" class="node">
<title>Node7</title>
<g id="a_Node000007"><a xlink:title=" ">
<polygon fill="#e0e0e0" stroke="#999999" points="133.5,-129 71.5,-129 71.5,-110 133.5,-110 133.5,-129"/>
<text text-anchor="middle" x="102.5" y="-117" font-family="Helvetica,sans-Serif" font-size="10.00">stdbool.h</text>
</a>
</g>
</g>
<!-- Node1&#45;&gt;Node7 -->
<g id="edge6_Node000001_Node000007" class="edge">
<title>Node1&#45;&gt;Node7</title>
<g id="a_edge6_Node000001_Node000007"><a xlink:title=" ">
<path fill="none" stroke="#63b8ff" d="M135.14,-164.95C128.72,-156.2 121.22,-145.99 115.02,-137.56"/>
<polygon fill="#63b8ff" stroke="#63b8ff" points="117.67,-135.25 108.93,-129.26 112.03,-139.39 117.67,-135.25"/>
</a>
</g>
</g>
<!-- Node8 -->
<g id="Node000008" class="node">
<title>Node8</title>
<g id="a_Node000008"><a xlink:title=" ">
<polygon fill="#e0e0e0" stroke="#999999" points="243,-129 152,-129 152,-110 243,-110 243,-129"/>
<text text-anchor="middle" x="197.5" y="-117" font-family="Helvetica,sans-Serif" font-size="10.00">pico/platform.h</text>
</a>
</g>
</g>
<!-- Node1&#45;&gt;Node8 -->
<g id="edge7_Node000001_Node000008" class="edge">
<title>Node1&#45;&gt;Node8</title>
<g id="a_edge7_Node000001_Node000008"><a xlink:title=" ">
<path fill="none" stroke="#63b8ff" d="M164.16,-164.95C170.79,-156.11 178.55,-145.77 184.91,-137.29"/>
<polygon fill="#63b8ff" stroke="#63b8ff" points="187.73,-139.36 190.93,-129.26 182.13,-135.16 187.73,-139.36"/>
</a>
</g>
</g>
<!-- Node9 -->
<g id="Node000009" class="node">
<title>Node9</title>
<g id="a_Node000009"><a xlink:href="i2c_8h.html" target="_top" xlink:title=" ">
<polygon fill="white" stroke="#666666" points="350,-129 261,-129 261,-110 350,-110 350,-129"/>
<text text-anchor="middle" x="305.5" y="-117" font-family="Helvetica,sans-Serif" font-size="10.00">hardware/i2c.h</text>
</a>
</g>
</g>
<!-- Node1&#45;&gt;Node9 -->
<g id="edge8_Node000001_Node000009" class="edge">
<title>Node1&#45;&gt;Node9</title>
<g id="a_edge8_Node000001_Node000009"><a xlink:title=" ">
<path fill="none" stroke="#63b8ff" d="M197.15,-164.95C222.48,-154.56 252.87,-142.09 275.01,-133.01"/>
<polygon fill="#63b8ff" stroke="#63b8ff" points="276.63,-136.13 284.56,-129.09 273.98,-129.65 276.63,-136.13"/>
</a>
</g>
</g>
<!-- Node3 -->
<g id="Node000003" class="node">
<title>Node3</title>
<g id="a_Node000003"><a xlink:href="pico__sdk__stubs_8h.html" target="_top" xlink:title=" ">
<polygon fill="white" stroke="#666666" points="220,-74 111,-74 111,-55 220,-55 220,-74"/>
<text text-anchor="middle" x="165.5" y="-62" font-family="Helvetica,sans-Serif" font-size="10.00">../pico_sdk_stubs.h</text>
</a>
</g>
</g>
<!-- Node2&#45;&gt;Node3 -->
<g id="edge2_Node000002_Node000003" class="edge">
<title>Node2&#45;&gt;Node3</title>
<g id="a_edge2_Node000002_Node000003"><a xlink:title=" ">
<path fill="none" stroke="#63b8ff" d="M48.83,-109.98C71.7,-101.27 107.46,-87.63 133.36,-77.75"/>
<polygon fill="#63b8ff" stroke="#63b8ff" points="134.66,-81 142.76,-74.17 132.17,-74.46 134.66,-81"/>
</a>
</g>
</g>
<!-- Node4 -->
<g id="Node000004" class="node">
<title>Node4</title>
<g id="a_Node000004"><a xlink:title=" ">
<polygon fill="#e0e0e0" stroke="#999999" points="120.5,-19 70.5,-19 70.5,0 120.5,0 120.5,-19"/>
<text text-anchor="middle" x="95.5" y="-7" font-family="Helvetica,sans-Serif" font-size="10.00">cstdint</text>
</a>
</g>
</g>
<!-- Node3&#45;&gt;Node4 -->
<g id="edge3_Node000003_Node000004" class="edge">
<title>Node3&#45;&gt;Node4</title>
<g id="a_edge3_Node000003_Node000004"><a xlink:title=" ">
<path fill="none" stroke="#63b8ff" d="M154.25,-54.98C143.7,-47 127.7,-34.88 115.06,-25.31"/>
<polygon fill="#63b8ff" stroke="#63b8ff" points="117.04,-22.42 106.95,-19.17 112.81,-28 117.04,-22.42"/>
</a>
</g>
</g>
<!-- Node5 -->
<g id="Node000005" class="node">
<title>Node5</title>
<g id="a_Node000005"><a xlink:title=" ">
<polygon fill="#e0e0e0" stroke="#999999" points="192,-19 139,-19 139,0 192,0 192,-19"/>
<text text-anchor="middle" x="165.5" y="-7" font-family="Helvetica,sans-Serif" font-size="10.00">cstddef</text>
</a>
</g>
</g>
<!-- Node3&#45;&gt;Node5 -->
<g id="edge4_Node000003_Node000005" class="edge">
<title>Node3&#45;&gt;Node5</title>
<g id="a_edge4_Node000003_Node000005"><a xlink:title=" ">
<path fill="none" stroke="#63b8ff" d="M165.5,-54.75C165.5,-47.8 165.5,-37.85 165.5,-29.13"/>
<polygon fill="#63b8ff" stroke="#63b8ff" points="169,-29.09 165.5,-19.09 162,-29.09 169,-29.09"/>
</a>
</g>
</g>
<!-- Node6 -->
<g id="Node000006" class="node">
<title>Node6</title>
<g id="a_Node000006"><a xlink:title=" ">
<polygon fill="#e0e0e0" stroke="#999999" points="248.5,-19 210.5,-19 210.5,0 248.5,0 248.5,-19"/>
<text text-anchor="middle" x="229.5" y="-7" font-family="Helvetica,sans-Serif" font-size="10.00">map</text>
</a>
</g>
</g>
<!-- Node3&#45;&gt;Node6 -->
<g id="edge5_Node000003_Node000006" class="edge">
<title>Node3&#45;&gt;Node6</title>
<g id="a_edge5_Node000003_Node000006"><a xlink:title=" ">
<path fill="none" stroke="#63b8ff" d="M175.78,-54.98C185.34,-47.07 199.78,-35.11 211.28,-25.58"/>
<polygon fill="#63b8ff" stroke="#63b8ff" points="213.56,-28.24 219.03,-19.17 209.1,-22.85 213.56,-28.24"/>
</a>
</g>
</g>
<!-- Node9&#45;&gt;Node3 -->
<g id="edge9_Node000009_Node000003" class="edge">
<title>Node9&#45;&gt;Node3</title>
<g id="a_edge9_Node000009_Node000003"><a xlink:title=" ">
<path fill="none" stroke="#63b8ff" d="M283.01,-109.98C259.98,-101.27 223.96,-87.63 197.87,-77.75"/>
<polygon fill="#63b8ff" stroke="#63b8ff" points="198.99,-74.44 188.4,-74.17 196.52,-80.98 198.99,-74.44"/>
</a>
</g>
</g>
</g>
</svg>
