<?xml version="1.0" encoding="UTF-8" standalone="no"?>
<!DOCTYPE svg PUBLIC "-//W3C//DTD SVG 1.1//EN"
 "http://www.w3.org/Graphics/SVG/1.1/DTD/svg11.dtd">
<!-- Generated by graphviz version 2.43.0 (0)
 -->
<!-- Title: RP&#45;Pico&#45;Mock/include/pico/stdlib.h Pages: 1 -->
<svg width="1584pt" height="346pt"
 viewBox="0.00 0.00 1584.00 346.00" xmlns="http://www.w3.org/2000/svg" xmlns:xlink="http://www.w3.org/1999/xlink">
<g id="graph0" class="graph" transform="scale(1 1) rotate(0) translate(4 342)">
<title>RP&#45;Pico&#45;Mock/include/pico/stdlib.h</title>
<!-- Node1 -->
<g id="Node000001" class="node">
<title>Node1</title>
<g id="a_Node000001"><a xlink:title=" ">
<polygon fill="#999999" stroke="#666666" points="1109,-338 987,-338 987,-308 1109,-308 1109,-338"/>
<text text-anchor="start" x="995" y="-326" font-family="Helvetica,sans-Serif" font-size="10.00">RP&#45;Pico&#45;Mock/include</text>
<text text-anchor="middle" x="1048" y="-315" font-family="Helvetica,sans-Serif" font-size="10.00">/pico/stdlib.h</text>
</a>
</g>
</g>
<!-- Node2 -->
<g id="Node000002" class="node">
<title>Node2</title>
<g id="a_Node000002"><a xlink:href="bh1750_8cpp.html" target="_top" xlink:title=" ">
<polygon fill="white" stroke="#666666" points="136,-112.5 0,-112.5 0,-82.5 136,-82.5 136,-112.5"/>
<text text-anchor="start" x="8" y="-100.5" font-family="Helvetica,sans-Serif" font-size="10.00">BH1750&#45;RP2040&#45;RP3050</text>
<text text-anchor="middle" x="68" y="-89.5" font-family="Helvetica,sans-Serif" font-size="10.00">/BH1750/bh1750.cpp</text>
</a>
</g>
</g>
<!-- Node1&#45;&gt;Node2 -->
<g id="edge1_Node000001_Node000002" class="edge">
<title>Node1&#45;&gt;Node2</title>
<g id="a_edge1_Node000001_Node000002"><a xlink:title=" ">
<path fill="none" stroke="#63b8ff" d="M976.89,-320.06C788.72,-314.59 287.34,-297.76 217,-272 163.33,-252.35 150.24,-239.2 114,-195 93.05,-169.45 79,-132.78 72.37,-112.8"/>
<polygon fill="#63b8ff" stroke="#63b8ff" points="976.85,-323.56 986.95,-320.35 977.06,-316.56 976.85,-323.56"/>
</a>
</g>
</g>
<!-- Node3 -->
<g id="Node000003" class="node">
<title>Node3</title>
<g id="a_Node000003"><a xlink:href="BH1750-RP2040-RP3050_2main_8cpp.html" target="_top" xlink:title=" ">
<polygon fill="white" stroke="#666666" points="290,-112.5 154,-112.5 154,-82.5 290,-82.5 290,-112.5"/>
<text text-anchor="start" x="162" y="-100.5" font-family="Helvetica,sans-Serif" font-size="10.00">BH1750&#45;RP2040&#45;RP3050</text>
<text text-anchor="middle" x="222" y="-89.5" font-family="Helvetica,sans-Serif" font-size="10.00">/main.cpp</text>
</a>
</g>
</g>
<!-- Node1&#45;&gt;Node3 -->
<g id="edge2_Node000001_Node000003" class="edge">
<title>Node1&#45;&gt;Node3</title>
<g id="a_edge2_Node000001_Node000003"><a xlink:title=" ">
<path fill="none" stroke="#63b8ff" d="M976.59,-317.66C769.36,-304.32 179.11,-260.81 125,-195 113.43,-180.93 115.86,-169.76 125,-154 136.34,-134.45 157.45,-121.2 177.08,-112.56"/>
<polygon fill="#63b8ff" stroke="#63b8ff" points="976.55,-321.16 986.75,-318.31 976.99,-314.18 976.55,-321.16"/>
</a>
</g>
</g>
<!-- Node4 -->
<g id="Node000004" class="node">
<title>Node4</title>
<g id="a_Node000004"><a xlink:href="HDMI-RP2040-RP2350_2main_8c.html" target="_top" xlink:title=" ">
<polygon fill="white" stroke="#666666" points="1230.5,-35.5 1105.5,-35.5 1105.5,-5.5 1230.5,-5.5 1230.5,-35.5"/>
<text text-anchor="start" x="1113.5" y="-23.5" font-family="Helvetica,sans-Serif" font-size="10.00">HDMI&#45;RP2040&#45;RP2350</text>
<text text-anchor="middle" x="1168" y="-12.5" font-family="Helvetica,sans-Serif" font-size="10.00">/main.c</text>
</a>
</g>
</g>
<!-- Node1&#45;&gt;Node4 -->
<g id="edge3_Node000001_Node000004" class="edge">
<title>Node1&#45;&gt;Node4</title>
<g id="a_edge3_Node000001_Node000004"><a xlink:title=" ">
<path fill="none" stroke="#63b8ff" d="M1064.71,-299.71C1082.32,-275.22 1109.72,-234.15 1126,-195 1149.45,-138.63 1161.68,-66.27 1166.07,-35.92"/>
<polygon fill="#63b8ff" stroke="#63b8ff" points="1061.76,-297.8 1058.7,-307.94 1067.42,-301.93 1061.76,-297.8"/>
</a>
</g>
</g>
<!-- Node5 -->
<g id="Node000005" class="node">
<title>Node5</title>
<g id="a_Node000005"><a xlink:href="I2C_8h.html" target="_top" xlink:title="Interface C++ simples para o periférico I2C do RP2040/RP2350.">
<polygon fill="white" stroke="#666666" points="666.5,-261 525.5,-261 525.5,-242 666.5,-242 666.5,-261"/>
<text text-anchor="middle" x="596" y="-249" font-family="Helvetica,sans-Serif" font-size="10.00">I2C&#45;RP2040&#45;RP2350/I2C.h</text>
</a>
</g>
</g>
<!-- Node1&#45;&gt;Node5 -->
<g id="edge4_Node000001_Node000005" class="edge">
<title>Node1&#45;&gt;Node5</title>
<g id="a_edge4_Node000001_Node000005"><a xlink:title=" ">
<path fill="none" stroke="#63b8ff" d="M976.44,-311C886.34,-297.14 733.45,-273.63 651.61,-261.05"/>
<polygon fill="#63b8ff" stroke="#63b8ff" points="976.16,-314.49 986.57,-312.55 977.22,-307.58 976.16,-314.49"/>
</a>
</g>
</g>
<!-- Node8 -->
<g id="Node000008" class="node">
<title>Node8</title>
<g id="a_Node000008"><a xlink:href="MPU6050_8cpp.html" target="_top" xlink:title="Implementação do driver do sensor MPU6050 utilizando o proxy I2C.">
<polygon fill="white" stroke="#666666" points="798,-189.5 654,-189.5 654,-159.5 798,-159.5 798,-189.5"/>
<text text-anchor="start" x="662" y="-177.5" font-family="Helvetica,sans-Serif" font-size="10.00">MPU6050&#45;RP2040&#45;RP2350</text>
<text text-anchor="middle" x="726" y="-166.5" font-family="Helvetica,sans-Serif" font-size="10.00">/MPU6050/MPU6050.cpp</text>
</a>
</g>
</g>
<!-- Node1&#45;&gt;Node8 -->
<g id="edge14_Node000001_Node000008" class="edge">
<title>Node1&#45;&gt;Node8</title>
<g id="a_edge14_Node000001_Node000008"><a xlink:title=" ">
<path fill="none" stroke="#63b8ff" d="M1007.99,-303.8C942.87,-274.17 815.37,-216.16 756.78,-189.5"/>
<polygon fill="#63b8ff" stroke="#63b8ff" points="1006.57,-307 1017.13,-307.95 1009.47,-300.63 1006.57,-307"/>
</a>
</g>
</g>
<!-- Node9 -->
<g id="Node000009" class="node">
<title>Node9</title>
<g id="a_Node000009"><a xlink:href="MPU6050-RP2040-RP2350_2main_8cpp.html" target="_top" xlink:title="Exemplo de uso do driver MPU6050 com o proxy I2C.">
<polygon fill="white" stroke="#666666" points="960,-189.5 816,-189.5 816,-159.5 960,-159.5 960,-189.5"/>
<text text-anchor="start" x="824" y="-177.5" font-family="Helvetica,sans-Serif" font-size="10.00">MPU6050&#45;RP2040&#45;RP2350</text>
<text text-anchor="middle" x="888" y="-166.5" font-family="Helvetica,sans-Serif" font-size="10.00">/main.cpp</text>
</a>
</g>
</g>
<!-- Node1&#45;&gt;Node9 -->
<g id="edge15_Node000001_Node000009" class="edge">
<title>Node1&#45;&gt;Node9</title>
<g id="a_edge15_Node000001_Node000009"><a xlink:title=" ">
<path fill="none" stroke="#63b8ff" d="M1025.28,-301.2C992.27,-270.97 931.91,-215.71 903.53,-189.72"/>
<polygon fill="#63b8ff" stroke="#63b8ff" points="1022.92,-303.78 1032.66,-307.95 1027.65,-298.62 1022.92,-303.78"/>
</a>
</g>
</g>
<!-- Node10 -->
<g id="Node000010" class="node">
<title>Node10</title>
<g id="a_Node000010"><a xlink:href="VL53L0X-RP2040-RP2350_2main_8cpp.html" target="_top" xlink:title=" ">
<polygon fill="white" stroke="#666666" points="1117.5,-189.5 978.5,-189.5 978.5,-159.5 1117.5,-159.5 1117.5,-189.5"/>
<text text-anchor="start" x="986.5" y="-177.5" font-family="Helvetica,sans-Serif" font-size="10.00">VL53L0X&#45;RP2040&#45;RP2350</text>
<text text-anchor="middle" x="1048" y="-166.5" font-family="Helvetica,sans-Serif" font-size="10.00">/main.cpp</text>
</a>
</g>
</g>
<!-- Node1&#45;&gt;Node10 -->
<g id="edge27_Node000001_Node000010" class="edge">
<title>Node1&#45;&gt;Node10</title>
<g id="a_edge27_Node000001_Node000010"><a xlink:title=" ">
<path fill="none" stroke="#63b8ff" d="M1048,-297.65C1048,-266.82 1048,-214.72 1048,-189.72"/>
<polygon fill="#63b8ff" stroke="#63b8ff" points="1044.5,-297.95 1048,-307.95 1051.5,-297.95 1044.5,-297.95"/>
</a>
</g>
</g>
<!-- Node12 -->
<g id="Node000012" class="node">
<title>Node12</title>
<g id="a_Node000012"><a xlink:href="oled_8c.html" target="_top" xlink:title=" ">
<polygon fill="white" stroke="#666666" points="1405.5,-41 1270.5,-41 1270.5,0 1405.5,0 1405.5,-41"/>
<text text-anchor="start" x="1278.5" y="-29" font-family="Helvetica,sans-Serif" font-size="10.00">OLED_SSD1306&#45;RP2040</text>
<text text-anchor="start" x="1278.5" y="-18" font-family="Helvetica,sans-Serif" font-size="10.00">&#45;RP2350/OLED_SSD1306</text>
<text text-anchor="middle" x="1338" y="-7" font-family="Helvetica,sans-Serif" font-size="10.00">/oled.c</text>
</a>
</g>
</g>
<!-- Node1&#45;&gt;Node12 -->
<g id="edge16_Node000001_Node000012" class="edge">
<title>Node1&#45;&gt;Node12</title>
<g id="a_edge16_Node000001_Node000012"><a xlink:title=" ">
<path fill="none" stroke="#63b8ff" d="M1119.48,-318.7C1182.93,-313.83 1277.22,-301.78 1354,-272 1412.38,-249.35 1442.18,-250.07 1472,-195 1505.08,-133.92 1422.89,-71.75 1372.97,-41.09"/>
<polygon fill="#63b8ff" stroke="#63b8ff" points="1118.89,-315.23 1109.17,-319.44 1119.4,-322.21 1118.89,-315.23"/>
</a>
</g>
</g>
<!-- Node13 -->
<g id="Node000013" class="node">
<title>Node13</title>
<g id="a_Node000013"><a xlink:href="ssd1306__i2c_8c.html" target="_top" xlink:title=" ">
<polygon fill="white" stroke="#666666" points="1462.5,-195 1327.5,-195 1327.5,-154 1462.5,-154 1462.5,-195"/>
<text text-anchor="start" x="1335.5" y="-183" font-family="Helvetica,sans-Serif" font-size="10.00">OLED_SSD1306&#45;RP2040</text>
<text text-anchor="start" x="1335.5" y="-172" font-family="Helvetica,sans-Serif" font-size="10.00">&#45;RP2350/OLED_SSD1306</text>
<text text-anchor="middle" x="1395" y="-161" font-family="Helvetica,sans-Serif" font-size="10.00">/ssd1306_i2c.c</text>
</a>
</g>
</g>
<!-- Node1&#45;&gt;Node13 -->
<g id="edge17_Node000001_Node000013" class="edge">
<title>Node1&#45;&gt;Node13</title>
<g id="a_edge17_Node000001_Node000013"><a xlink:title=" ">
<path fill="none" stroke="#63b8ff" d="M1119.59,-314.46C1187.96,-306.25 1285.29,-291.62 1318,-272 1348.88,-253.48 1372.39,-217.71 1384.91,-195.3"/>
<polygon fill="#63b8ff" stroke="#63b8ff" points="1118.82,-311.03 1109.3,-315.67 1119.64,-317.98 1118.82,-311.03"/>
</a>
</g>
</g>
<!-- Node14 -->
<g id="Node000014" class="node">
<title>Node14</title>
<g id="a_Node000014"><a xlink:href="ssd1306__i2c_8h.html" target="_top" xlink:title=" ">
<polygon fill="white" stroke="#666666" points="1309.5,-272 1174.5,-272 1174.5,-231 1309.5,-231 1309.5,-272"/>
<text text-anchor="start" x="1182.5" y="-260" font-family="Helvetica,sans-Serif" font-size="10.00">OLED_SSD1306&#45;RP2040</text>
<text text-anchor="start" x="1182.5" y="-249" font-family="Helvetica,sans-Serif" font-size="10.00">&#45;RP2350/OLED_SSD1306</text>
<text text-anchor="middle" x="1242" y="-238" font-family="Helvetica,sans-Serif" font-size="10.00">/ssd1306_i2c.h</text>
</a>
</g>
</g>
<!-- Node1&#45;&gt;Node14 -->
<g id="edge18_Node000001_Node000014" class="edge">
<title>Node1&#45;&gt;Node14</title>
<g id="a_edge18_Node000001_Node000014"><a xlink:title=" ">
<path fill="none" stroke="#63b8ff" d="M1096.7,-304.55C1124.28,-294.67 1158.86,-282.28 1187.36,-272.07"/>
<polygon fill="#63b8ff" stroke="#63b8ff" points="1095.49,-301.27 1087.26,-307.94 1097.85,-307.86 1095.49,-301.27"/>
</a>
</g>
</g>
<!-- Node17 -->
<g id="Node000017" class="node">
<title>Node17</title>
<g id="a_Node000017"><a xlink:href="OLED__SSD1306-RP2040-RP2350_2main_8c.html" target="_top" xlink:title=" ">
<polygon fill="white" stroke="#666666" points="1576,-35.5 1444,-35.5 1444,-5.5 1576,-5.5 1576,-35.5"/>
<text text-anchor="start" x="1452" y="-23.5" font-family="Helvetica,sans-Serif" font-size="10.00">OLED_SSD1306&#45;RP2040</text>
<text text-anchor="middle" x="1510" y="-12.5" font-family="Helvetica,sans-Serif" font-size="10.00">&#45;RP2350/main.c</text>
</a>
</g>
</g>
<!-- Node1&#45;&gt;Node17 -->
<g id="edge26_Node000001_Node000017" class="edge">
<title>Node1&#45;&gt;Node17</title>
<g id="a_edge26_Node000001_Node000017"><a xlink:title=" ">
<path fill="none" stroke="#63b8ff" d="M1119.02,-317.79C1210.52,-311.43 1363.78,-297.33 1414,-272 1456.65,-250.49 1468.38,-238.09 1489,-195 1514.93,-140.81 1513.31,-66.66 1511.25,-35.84"/>
<polygon fill="#63b8ff" stroke="#63b8ff" points="1118.74,-314.3 1109,-318.47 1119.22,-321.28 1118.74,-314.3"/>
</a>
</g>
</g>
<!-- Node5&#45;&gt;Node3 -->
<g id="edge8_Node000005_Node000003" class="edge">
<title>Node5&#45;&gt;Node3</title>
<g id="a_edge8_Node000005_Node000003"><a xlink:title=" ">
<path fill="none" stroke="#63b8ff" d="M564.29,-237.92C541.58,-228.08 510.91,-213.07 487,-195 467.18,-180.02 470.42,-166.59 449,-154 400.3,-125.36 337.42,-111.46 290.19,-104.73"/>
<polygon fill="#63b8ff" stroke="#63b8ff" points="563.23,-241.27 573.81,-241.94 565.96,-234.82 563.23,-241.27"/>
</a>
</g>
</g>
<!-- Node6 -->
<g id="Node000006" class="node">
<title>Node6</title>
<g id="a_Node000006"><a xlink:href="bh1750_8h.html" target="_top" xlink:title=" ">
<polygon fill="white" stroke="#666666" points="270,-189.5 134,-189.5 134,-159.5 270,-159.5 270,-189.5"/>
<text text-anchor="start" x="142" y="-177.5" font-family="Helvetica,sans-Serif" font-size="10.00">BH1750&#45;RP2040&#45;RP3050</text>
<text text-anchor="middle" x="202" y="-166.5" font-family="Helvetica,sans-Serif" font-size="10.00">/BH1750/bh1750.h</text>
</a>
</g>
</g>
<!-- Node5&#45;&gt;Node6 -->
<g id="edge5_Node000005_Node000006" class="edge">
<title>Node5&#45;&gt;Node6</title>
<g id="a_edge5_Node000005_Node000006"><a xlink:title=" ">
<path fill="none" stroke="#63b8ff" d="M529.92,-240.41C465.6,-230.23 365.22,-213.44 279,-195 271.31,-193.36 263.23,-191.48 255.31,-189.55"/>
<polygon fill="#63b8ff" stroke="#63b8ff" points="529.5,-243.88 539.92,-241.98 530.59,-236.97 529.5,-243.88"/>
</a>
</g>
</g>
<!-- Node7 -->
<g id="Node000007" class="node">
<title>Node7</title>
<g id="a_Node000007"><a xlink:href="I2C_8cpp.html" target="_top" xlink:title=" ">
<polygon fill="white" stroke="#666666" points="440,-184 288,-184 288,-165 440,-165 440,-184"/>
<text text-anchor="middle" x="364" y="-172" font-family="Helvetica,sans-Serif" font-size="10.00">I2C&#45;RP2040&#45;RP2350/I2C.cpp</text>
</a>
</g>
</g>
<!-- Node5&#45;&gt;Node7 -->
<g id="edge9_Node000005_Node000007" class="edge">
<title>Node5&#45;&gt;Node7</title>
<g id="a_edge9_Node000005_Node000007"><a xlink:title=" ">
<path fill="none" stroke="#63b8ff" d="M559.61,-238.73C512.57,-223.53 431.8,-197.42 390.3,-184"/>
<polygon fill="#63b8ff" stroke="#63b8ff" points="558.79,-242.15 569.39,-241.9 560.95,-235.49 558.79,-242.15"/>
</a>
</g>
</g>
<!-- Node5&#45;&gt;Node8 -->
<g id="edge10_Node000005_Node000008" class="edge">
<title>Node5&#45;&gt;Node8</title>
<g id="a_edge10_Node000005_Node000008"><a xlink:title=" ">
<path fill="none" stroke="#63b8ff" d="M619.76,-236.79C642.96,-223.41 678.1,-203.13 701.54,-189.61"/>
<polygon fill="#63b8ff" stroke="#63b8ff" points="617.83,-233.87 610.91,-241.9 621.32,-239.93 617.83,-233.87"/>
</a>
</g>
</g>
<!-- Node5&#45;&gt;Node9 -->
<g id="edge11_Node000005_Node000009" class="edge">
<title>Node5&#45;&gt;Node9</title>
<g id="a_edge11_Node000005_Node000009"><a xlink:title=" ">
<path fill="none" stroke="#63b8ff" d="M639.05,-239.44C690.67,-226.19 777.24,-203.95 833.48,-189.5"/>
<polygon fill="#63b8ff" stroke="#63b8ff" points="638.03,-236.09 629.21,-241.97 639.77,-242.87 638.03,-236.09"/>
</a>
</g>
</g>
<!-- Node5&#45;&gt;Node10 -->
<g id="edge12_Node000005_Node000010" class="edge">
<title>Node5&#45;&gt;Node10</title>
<g id="a_edge12_Node000005_Node000010"><a xlink:title=" ">
<path fill="none" stroke="#63b8ff" d="M676.77,-240.72C752.57,-231.01 868.96,-214.74 969,-195 977.18,-193.39 985.78,-191.48 994.18,-189.5"/>
<polygon fill="#63b8ff" stroke="#63b8ff" points="676.29,-237.25 666.81,-241.99 677.17,-244.19 676.29,-237.25"/>
</a>
</g>
</g>
<!-- Node11 -->
<g id="Node000011" class="node">
<title>Node11</title>
<g id="a_Node000011"><a xlink:href="VL53L0X_8cpp.html" target="_top" xlink:title="Implementação da classe VL53L0X para RP2040.">
<polygon fill="white" stroke="#666666" points="635.5,-189.5 496.5,-189.5 496.5,-159.5 635.5,-159.5 635.5,-189.5"/>
<text text-anchor="start" x="504.5" y="-177.5" font-family="Helvetica,sans-Serif" font-size="10.00">VL53L0X&#45;RP2040&#45;RP2350</text>
<text text-anchor="middle" x="566" y="-166.5" font-family="Helvetica,sans-Serif" font-size="10.00">/vl53l0x/VL53L0X.cpp</text>
</a>
</g>
</g>
<!-- Node5&#45;&gt;Node11 -->
<g id="edge13_Node000005_Node000011" class="edge">
<title>Node5&#45;&gt;Node11</title>
<g id="a_edge13_Node000005_Node000011"><a xlink:title=" ">
<path fill="none" stroke="#63b8ff" d="M588.79,-232.49C583.53,-219.33 576.5,-201.75 571.64,-189.61"/>
<polygon fill="#63b8ff" stroke="#63b8ff" points="585.59,-233.91 592.56,-241.9 592.09,-231.31 585.59,-233.91"/>
</a>
</g>
</g>
<!-- Node6&#45;&gt;Node2 -->
<g id="edge6_Node000006_Node000002" class="edge">
<title>Node6&#45;&gt;Node2</title>
<g id="a_edge6_Node000006_Node000002"><a xlink:title=" ">
<path fill="none" stroke="#63b8ff" d="M167.92,-154.43C144.6,-141.38 114.21,-124.36 93.09,-112.54"/>
<polygon fill="#63b8ff" stroke="#63b8ff" points="166.36,-157.56 176.8,-159.39 169.78,-151.45 166.36,-157.56"/>
</a>
</g>
</g>
<!-- Node6&#45;&gt;Node3 -->
<g id="edge7_Node000006_Node000003" class="edge">
<title>Node6&#45;&gt;Node3</title>
<g id="a_edge7_Node000006_Node000003"><a xlink:title=" ">
<path fill="none" stroke="#63b8ff" d="M208.42,-149.41C211.67,-137.24 215.49,-122.9 218.26,-112.54"/>
<polygon fill="#63b8ff" stroke="#63b8ff" points="204.96,-148.83 205.76,-159.39 211.72,-150.63 204.96,-148.83"/>
</a>
</g>
</g>
<!-- Node14&#45;&gt;Node13 -->
<g id="edge25_Node000014_Node000013" class="edge">
<title>Node14&#45;&gt;Node13</title>
<g id="a_edge25_Node000014_Node000013"><a xlink:title=" ">
<path fill="none" stroke="#63b8ff" d="M1290.79,-226.59C1311.55,-216.41 1335.46,-204.69 1355.13,-195.04"/>
<polygon fill="#63b8ff" stroke="#63b8ff" points="1289.24,-223.45 1281.8,-230.99 1292.32,-229.73 1289.24,-223.45"/>
</a>
</g>
</g>
<!-- Node15 -->
<g id="Node000015" class="node">
<title>Node15</title>
<g id="a_Node000015"><a xlink:href="ssd1306_8h.html" target="_top" xlink:title=" ">
<polygon fill="white" stroke="#666666" points="1309.5,-195 1174.5,-195 1174.5,-154 1309.5,-154 1309.5,-195"/>
<text text-anchor="start" x="1182.5" y="-183" font-family="Helvetica,sans-Serif" font-size="10.00">OLED_SSD1306&#45;RP2040</text>
<text text-anchor="start" x="1182.5" y="-172" font-family="Helvetica,sans-Serif" font-size="10.00">&#45;RP2350/OLED_SSD1306</text>
<text text-anchor="middle" x="1242" y="-161" font-family="Helvetica,sans-Serif" font-size="10.00">/ssd1306.h</text>
</a>
</g>
</g>
<!-- Node14&#45;&gt;Node15 -->
<g id="edge19_Node000014_Node000015" class="edge">
<title>Node14&#45;&gt;Node15</title>
<g id="a_edge19_Node000014_Node000015"><a xlink:title=" ">
<path fill="none" stroke="#63b8ff" d="M1242,-220.69C1242,-212.08 1242,-202.9 1242,-195.07"/>
<polygon fill="#63b8ff" stroke="#63b8ff" points="1238.5,-220.79 1242,-230.79 1245.5,-220.79 1238.5,-220.79"/>
</a>
</g>
</g>
<!-- Node15&#45;&gt;Node12 -->
<g id="edge20_Node000015_Node000012" class="edge">
<title>Node15&#45;&gt;Node12</title>
<g id="a_edge20_Node000015_Node000012"><a xlink:title=" ">
<path fill="none" stroke="#63b8ff" d="M1242.27,-143.61C1243.74,-123.39 1248.26,-96.86 1261,-77 1270.43,-62.3 1285.25,-50.25 1299.39,-41.19"/>
<polygon fill="#63b8ff" stroke="#63b8ff" points="1238.77,-143.66 1241.75,-153.82 1245.76,-144.01 1238.77,-143.66"/>
</a>
</g>
</g>
<!-- Node16 -->
<g id="Node000016" class="node">
<title>Node16</title>
<g id="a_Node000016"><a xlink:href="oled_8h.html" target="_top" xlink:title=" ">
<polygon fill="white" stroke="#666666" points="1405.5,-118 1270.5,-118 1270.5,-77 1405.5,-77 1405.5,-118"/>
<text text-anchor="start" x="1278.5" y="-106" font-family="Helvetica,sans-Serif" font-size="10.00">OLED_SSD1306&#45;RP2040</text>
<text text-anchor="start" x="1278.5" y="-95" font-family="Helvetica,sans-Serif" font-size="10.00">&#45;RP2350/OLED_SSD1306</text>
<text text-anchor="middle" x="1338" y="-84" font-family="Helvetica,sans-Serif" font-size="10.00">/oled.h</text>
</a>
</g>
</g>
<!-- Node15&#45;&gt;Node16 -->
<g id="edge21_Node000015_Node000016" class="edge">
<title>Node15&#45;&gt;Node16</title>
<g id="a_edge21_Node000015_Node000016"><a xlink:title=" ">
<path fill="none" stroke="#63b8ff" d="M1274.88,-147.82C1287.29,-138.11 1301.22,-127.24 1312.82,-118.17"/>
<polygon fill="#63b8ff" stroke="#63b8ff" points="1272.7,-145.08 1266.97,-153.99 1277.01,-150.59 1272.7,-145.08"/>
</a>
</g>
</g>
<!-- Node16&#45;&gt;Node4 -->
<g id="edge22_Node000016_Node000004" class="edge">
<title>Node16&#45;&gt;Node4</title>
<g id="a_edge22_Node000016_Node000004"><a xlink:title=" ">
<path fill="none" stroke="#63b8ff" d="M1284.57,-72.93C1256.77,-60.66 1223.72,-46.08 1199.92,-35.58"/>
<polygon fill="#63b8ff" stroke="#63b8ff" points="1283.22,-76.16 1293.78,-76.99 1286.04,-69.75 1283.22,-76.16"/>
</a>
</g>
</g>
<!-- Node16&#45;&gt;Node12 -->
<g id="edge23_Node000016_Node000012" class="edge">
<title>Node16&#45;&gt;Node12</title>
<g id="a_edge23_Node000016_Node000012"><a xlink:title=" ">
<path fill="none" stroke="#63b8ff" d="M1338,-66.69C1338,-58.08 1338,-48.9 1338,-41.07"/>
<polygon fill="#63b8ff" stroke="#63b8ff" points="1334.5,-66.79 1338,-76.79 1341.5,-66.79 1334.5,-66.79"/>
</a>
</g>
</g>
<!-- Node16&#45;&gt;Node17 -->
<g id="edge24_Node000016_Node000017" class="edge">
<title>Node16&#45;&gt;Node17</title>
<g id="a_edge24_Node000016_Node000017"><a xlink:title=" ">
<path fill="none" stroke="#63b8ff" d="M1392.06,-72.93C1420.18,-60.66 1453.63,-46.08 1477.7,-35.58"/>
<polygon fill="#63b8ff" stroke="#63b8ff" points="1390.51,-69.79 1382.74,-76.99 1393.31,-76.2 1390.51,-69.79"/>
</a>
</g>
</g>
</g>
</svg>
