<?xml version="1.0" encoding="UTF-8" standalone="no"?>
<!DOCTYPE svg PUBLIC "-//W3C//DTD SVG 1.1//EN"
 "http://www.w3.org/Graphics/SVG/1.1/DTD/svg11.dtd">
<!-- Generated by graphviz version 2.43.0 (0)
 -->
<!-- Title: text_line_t Pages: 1 -->
<svg width="79pt" height="72pt"
 viewBox="0.00 0.00 79.00 72.00" xmlns="http://www.w3.org/2000/svg" xmlns:xlink="http://www.w3.org/1999/xlink">
<g id="graph0" class="graph" transform="scale(1 1) rotate(0) translate(4 68)">
<title>text_line_t</title>
<!-- Node1 -->
<g id="Node000001" class="node">
<title>Node1</title>
<g id="a_Node000001"><a xlink:title=" ">
<polygon fill="#999999" stroke="transparent" points="71,-64 0,-64 0,0 71,0 71,-64"/>
<text text-anchor="start" x="10" y="-52" font-family="Helvetica,sans-Serif" font-size="10.00">text_line_t</text>
<text text-anchor="start" x="4.5" y="-37" font-family="Helvetica,sans-Serif" font-size="10.00">+</text>
<text text-anchor="start" x="17.5" y="-37" font-family="Helvetica,sans-Serif" font-size="10.00">alignment</text>
<text text-anchor="start" x="4.5" y="-22" font-family="Helvetica,sans-Serif" font-size="10.00">+</text>
<text text-anchor="start" x="17.5" y="-22" font-family="Helvetica,sans-Serif" font-size="10.00">text</text>
<text text-anchor="start" x="32.5" y="-7" font-family="Helvetica,sans-Serif" font-size="10.00"> </text>
<polygon fill="#666666" stroke="#666666" points="0.5,-47 0.5,-47 71.5,-47 71.5,-47 0.5,-47"/>
<polygon fill="#666666" stroke="#666666" points="0.5,-17 0.5,-17 15.5,-17 15.5,-17 0.5,-17"/>
<polygon fill="#666666" stroke="#666666" points="15.5,-17 15.5,-17 71.5,-17 71.5,-17 15.5,-17"/>
<polygon fill="none" stroke="#666666" points="0,0 0,-64 71,-64 71,0 0,0"/>
</a>
</g>
</g>
</g>
</svg>
