<?xml version="1.0" encoding="UTF-8" standalone="no"?>
<!DOCTYPE svg PUBLIC "-//W3C//DTD SVG 1.1//EN"
 "http://www.w3.org/Graphics/SVG/1.1/DTD/svg11.dtd">
<!-- Generated by graphviz version 2.43.0 (0)
 -->
<!-- Title: VL53L0X&#45;RP2040&#45;RP2350/vl53l0x/VL53L0X.cpp Pages: 1 -->
<svg width="442pt" height="258pt"
 viewBox="0.00 0.00 441.64 258.00" xmlns="http://www.w3.org/2000/svg" xmlns:xlink="http://www.w3.org/1999/xlink">
<g id="graph0" class="graph" transform="scale(1 1) rotate(0) translate(4 254)">
<title>VL53L0X&#45;RP2040&#45;RP2350/vl53l0x/VL53L0X.cpp</title>
<!-- Node1 -->
<g id="Node000001" class="node">
<title>Node1</title>
<g id="a_Node000001"><a xlink:title="Implementação da classe VL53L0X para RP2040.">
<polygon fill="#999999" stroke="#666666" points="207.5,-250 68.5,-250 68.5,-220 207.5,-220 207.5,-250"/>
<text text-anchor="start" x="76.5" y="-238" font-family="Helvetica,sans-Serif" font-size="10.00">VL53L0X&#45;RP2040&#45;RP2350</text>
<text text-anchor="middle" x="138" y="-227" font-family="Helvetica,sans-Serif" font-size="10.00">/vl53l0x/VL53L0X.cpp</text>
</a>
</g>
</g>
<!-- Node2 -->
<g id="Node000002" class="node">
<title>Node2</title>
<g id="a_Node000002"><a xlink:title=" ">
<polygon fill="#e0e0e0" stroke="#999999" points="46,-184 0,-184 0,-165 46,-165 46,-184"/>
<text text-anchor="middle" x="23" y="-172" font-family="Helvetica,sans-Serif" font-size="10.00">cstdio</text>
</a>
</g>
</g>
<!-- Node1&#45;&gt;Node2 -->
<g id="edge1_Node000001_Node000002" class="edge">
<title>Node1&#45;&gt;Node2</title>
<g id="a_edge1_Node000001_Node000002"><a xlink:title=" ">
<path fill="none" stroke="#63b8ff" d="M110.45,-219.99C91.78,-210.49 67.26,-198.02 48.94,-188.69"/>
<polygon fill="#63b8ff" stroke="#63b8ff" points="50.48,-185.55 39.98,-184.14 47.31,-191.79 50.48,-185.55"/>
</a>
</g>
</g>
<!-- Node3 -->
<g id="Node000003" class="node">
<title>Node3</title>
<g id="a_Node000003"><a xlink:href="VL53L0X_8h.html" target="_top" xlink:title="Interface C++ para o sensor de distância VL53L0X (Time&#45;of&#45;Flight) no RP2040.">
<polygon fill="white" stroke="#666666" points="141,-74 73,-74 73,-55 141,-55 141,-74"/>
<text text-anchor="middle" x="107" y="-62" font-family="Helvetica,sans-Serif" font-size="10.00">VL53L0X.h</text>
</a>
</g>
</g>
<!-- Node1&#45;&gt;Node3 -->
<g id="edge2_Node000001_Node000003" class="edge">
<title>Node1&#45;&gt;Node3</title>
<g id="a_edge2_Node000001_Node000003"><a xlink:title=" ">
<path fill="none" stroke="#63b8ff" d="M129.81,-220C118.87,-200.42 100.06,-163.39 93,-129 89.84,-113.62 94.25,-96.21 98.93,-83.52"/>
<polygon fill="#63b8ff" stroke="#63b8ff" points="102.23,-84.69 102.77,-74.11 95.75,-82.05 102.23,-84.69"/>
</a>
</g>
</g>
<!-- Node5 -->
<g id="Node000005" class="node">
<title>Node5</title>
<g id="a_Node000005"><a xlink:href="time_8h.html" target="_top" xlink:title=" ">
<polygon fill="white" stroke="#666666" points="173.5,-129 102.5,-129 102.5,-110 173.5,-110 173.5,-129"/>
<text text-anchor="middle" x="138" y="-117" font-family="Helvetica,sans-Serif" font-size="10.00">pico/time.h</text>
</a>
</g>
</g>
<!-- Node1&#45;&gt;Node5 -->
<g id="edge4_Node000001_Node000005" class="edge">
<title>Node1&#45;&gt;Node5</title>
<g id="a_edge4_Node000001_Node000005"><a xlink:title=" ">
<path fill="none" stroke="#63b8ff" d="M138,-219.63C138,-199.21 138,-161.81 138,-139.24"/>
<polygon fill="#63b8ff" stroke="#63b8ff" points="141.5,-139.23 138,-129.23 134.5,-139.23 141.5,-139.23"/>
</a>
</g>
</g>
<!-- Node9 -->
<g id="Node000009" class="node">
<title>Node9</title>
<g id="a_Node000009"><a xlink:href="I2C_8h.html" target="_top" xlink:title="Interface C++ simples para o periférico I2C do RP2040/RP2350.">
<polygon fill="white" stroke="#666666" points="258.5,-184 217.5,-184 217.5,-165 258.5,-165 258.5,-184"/>
<text text-anchor="middle" x="238" y="-172" font-family="Helvetica,sans-Serif" font-size="10.00">I2C.h</text>
</a>
</g>
</g>
<!-- Node1&#45;&gt;Node9 -->
<g id="edge9_Node000001_Node000009" class="edge">
<title>Node1&#45;&gt;Node9</title>
<g id="a_edge9_Node000001_Node000009"><a xlink:title=" ">
<path fill="none" stroke="#63b8ff" d="M161.95,-219.99C177.89,-210.66 198.73,-198.47 214.56,-189.21"/>
<polygon fill="#63b8ff" stroke="#63b8ff" points="216.37,-192.21 223.23,-184.14 212.83,-186.17 216.37,-192.21"/>
</a>
</g>
</g>
<!-- Node12 -->
<g id="Node000012" class="node">
<title>Node12</title>
<g id="a_Node000012"><a xlink:title=" ">
<polygon fill="#e0e0e0" stroke="#999999" points="327,-184 277,-184 277,-165 327,-165 327,-184"/>
<text text-anchor="middle" x="302" y="-172" font-family="Helvetica,sans-Serif" font-size="10.00">stdio.h</text>
</a>
</g>
</g>
<!-- Node1&#45;&gt;Node12 -->
<g id="edge16_Node000001_Node000012" class="edge">
<title>Node1&#45;&gt;Node12</title>
<g id="a_edge16_Node000001_Node000012"><a xlink:title=" ">
<path fill="none" stroke="#63b8ff" d="M177.28,-219.99C205.01,-210.1 241.78,-196.98 268.2,-187.56"/>
<polygon fill="#63b8ff" stroke="#63b8ff" points="269.54,-190.8 277.78,-184.14 267.19,-184.2 269.54,-190.8"/>
</a>
</g>
</g>
<!-- Node4 -->
<g id="Node000004" class="node">
<title>Node4</title>
<g id="a_Node000004"><a xlink:title=" ">
<polygon fill="#e0e0e0" stroke="#999999" points="227,-19 177,-19 177,0 227,0 227,-19"/>
<text text-anchor="middle" x="202" y="-7" font-family="Helvetica,sans-Serif" font-size="10.00">cstdint</text>
</a>
</g>
</g>
<!-- Node3&#45;&gt;Node4 -->
<g id="edge3_Node000003_Node000004" class="edge">
<title>Node3&#45;&gt;Node4</title>
<g id="a_edge3_Node000003_Node000004"><a xlink:title=" ">
<path fill="none" stroke="#63b8ff" d="M122.26,-54.98C137.13,-46.69 159.98,-33.94 177.42,-24.22"/>
<polygon fill="#63b8ff" stroke="#63b8ff" points="179.43,-27.1 186.46,-19.17 176.02,-20.99 179.43,-27.1"/>
</a>
</g>
</g>
<!-- Node6 -->
<g id="Node000006" class="node">
<title>Node6</title>
<g id="a_Node000006"><a xlink:href="pico__sdk__stubs_8h.html" target="_top" xlink:title=" ">
<polygon fill="white" stroke="#666666" points="339.5,-74 230.5,-74 230.5,-55 339.5,-55 339.5,-74"/>
<text text-anchor="middle" x="285" y="-62" font-family="Helvetica,sans-Serif" font-size="10.00">../pico_sdk_stubs.h</text>
</a>
</g>
</g>
<!-- Node5&#45;&gt;Node6 -->
<g id="edge5_Node000005_Node000006" class="edge">
<title>Node5&#45;&gt;Node6</title>
<g id="a_edge5_Node000005_Node000006"><a xlink:title=" ">
<path fill="none" stroke="#63b8ff" d="M161.62,-109.98C185.9,-101.23 223.95,-87.51 251.37,-77.62"/>
<polygon fill="#63b8ff" stroke="#63b8ff" points="252.73,-80.85 260.95,-74.17 250.36,-74.27 252.73,-80.85"/>
</a>
</g>
</g>
<!-- Node6&#45;&gt;Node4 -->
<g id="edge6_Node000006_Node000004" class="edge">
<title>Node6&#45;&gt;Node4</title>
<g id="a_edge6_Node000006_Node000004"><a xlink:title=" ">
<path fill="none" stroke="#63b8ff" d="M271.66,-54.98C258.91,-46.84 239.45,-34.41 224.33,-24.76"/>
<polygon fill="#63b8ff" stroke="#63b8ff" points="225.89,-21.6 215.58,-19.17 222.12,-27.5 225.89,-21.6"/>
</a>
</g>
</g>
<!-- Node7 -->
<g id="Node000007" class="node">
<title>Node7</title>
<g id="a_Node000007"><a xlink:title=" ">
<polygon fill="#e0e0e0" stroke="#999999" points="421.5,-19 368.5,-19 368.5,0 421.5,0 421.5,-19"/>
<text text-anchor="middle" x="395" y="-7" font-family="Helvetica,sans-Serif" font-size="10.00">cstddef</text>
</a>
</g>
</g>
<!-- Node6&#45;&gt;Node7 -->
<g id="edge7_Node000006_Node000007" class="edge">
<title>Node6&#45;&gt;Node7</title>
<g id="a_edge7_Node000006_Node000007"><a xlink:title=" ">
<path fill="none" stroke="#63b8ff" d="M302.67,-54.98C320.29,-46.5 347.58,-33.35 367.93,-23.54"/>
<polygon fill="#63b8ff" stroke="#63b8ff" points="369.52,-26.66 377.01,-19.17 366.48,-20.36 369.52,-26.66"/>
</a>
</g>
</g>
<!-- Node8 -->
<g id="Node000008" class="node">
<title>Node8</title>
<g id="a_Node000008"><a xlink:title=" ">
<polygon fill="#e0e0e0" stroke="#999999" points="304,-19 266,-19 266,0 304,0 304,-19"/>
<text text-anchor="middle" x="285" y="-7" font-family="Helvetica,sans-Serif" font-size="10.00">map</text>
</a>
</g>
</g>
<!-- Node6&#45;&gt;Node8 -->
<g id="edge8_Node000006_Node000008" class="edge">
<title>Node6&#45;&gt;Node8</title>
<g id="a_edge8_Node000006_Node000008"><a xlink:title=" ">
<path fill="none" stroke="#63b8ff" d="M285,-54.75C285,-47.8 285,-37.85 285,-29.13"/>
<polygon fill="#63b8ff" stroke="#63b8ff" points="288.5,-29.09 285,-19.09 281.5,-29.09 288.5,-29.09"/>
</a>
</g>
</g>
<!-- Node9&#45;&gt;Node4 -->
<g id="edge15_Node000009_Node000004" class="edge">
<title>Node9&#45;&gt;Node4</title>
<g id="a_edge15_Node000009_Node000004"><a xlink:title=" ">
<path fill="none" stroke="#63b8ff" d="M234.34,-164.78C230.75,-155.91 225.33,-141.71 222,-129 212.91,-94.31 207.01,-52.79 204.12,-29.24"/>
<polygon fill="#63b8ff" stroke="#63b8ff" points="207.58,-28.76 202.93,-19.24 200.63,-29.58 207.58,-28.76"/>
</a>
</g>
</g>
<!-- Node9&#45;&gt;Node7 -->
<g id="edge14_Node000009_Node000007" class="edge">
<title>Node9&#45;&gt;Node7</title>
<g id="a_edge14_Node000009_Node000007"><a xlink:title=" ">
<path fill="none" stroke="#63b8ff" d="M258.62,-167.52C261.76,-166.65 264.96,-165.78 268,-165 336.49,-147.36 379.01,-184.38 423,-129 446.78,-99.06 422.98,-52.26 406.96,-27.38"/>
<polygon fill="#63b8ff" stroke="#63b8ff" points="409.8,-25.34 401.32,-19 404,-29.25 409.8,-25.34"/>
</a>
</g>
</g>
<!-- Node10 -->
<g id="Node000010" class="node">
<title>Node10</title>
<g id="a_Node000010"><a xlink:href="stdlib_8h.html" target="_top" xlink:title=" ">
<polygon fill="white" stroke="#666666" points="414,-129 338,-129 338,-110 414,-110 414,-129"/>
<text text-anchor="middle" x="376" y="-117" font-family="Helvetica,sans-Serif" font-size="10.00">pico/stdlib.h</text>
</a>
</g>
</g>
<!-- Node9&#45;&gt;Node10 -->
<g id="edge10_Node000009_Node000010" class="edge">
<title>Node9&#45;&gt;Node10</title>
<g id="a_edge10_Node000009_Node000010"><a xlink:title=" ">
<path fill="none" stroke="#63b8ff" d="M258.66,-165.57C281.33,-156.86 317.99,-142.78 344.3,-132.68"/>
<polygon fill="#63b8ff" stroke="#63b8ff" points="345.75,-135.87 353.83,-129.02 343.24,-129.33 345.75,-135.87"/>
</a>
</g>
</g>
<!-- Node11 -->
<g id="Node000011" class="node">
<title>Node11</title>
<g id="a_Node000011"><a xlink:href="i2c_8h.html" target="_top" xlink:title=" ">
<polygon fill="white" stroke="#666666" points="319.5,-129 230.5,-129 230.5,-110 319.5,-110 319.5,-129"/>
<text text-anchor="middle" x="275" y="-117" font-family="Helvetica,sans-Serif" font-size="10.00">hardware/i2c.h</text>
</a>
</g>
</g>
<!-- Node9&#45;&gt;Node11 -->
<g id="edge12_Node000009_Node000011" class="edge">
<title>Node9&#45;&gt;Node11</title>
<g id="a_edge12_Node000009_Node000011"><a xlink:title=" ">
<path fill="none" stroke="#63b8ff" d="M244.11,-164.75C249.28,-157.34 256.85,-146.5 263.19,-137.41"/>
<polygon fill="#63b8ff" stroke="#63b8ff" points="266.15,-139.29 269,-129.09 260.41,-135.29 266.15,-139.29"/>
</a>
</g>
</g>
<!-- Node10&#45;&gt;Node6 -->
<g id="edge11_Node000010_Node000006" class="edge">
<title>Node10&#45;&gt;Node6</title>
<g id="a_edge11_Node000010_Node000006"><a xlink:title=" ">
<path fill="none" stroke="#63b8ff" d="M361.38,-109.98C347.14,-101.69 325.25,-88.94 308.55,-79.22"/>
<polygon fill="#63b8ff" stroke="#63b8ff" points="310.29,-76.18 299.89,-74.17 306.77,-82.23 310.29,-76.18"/>
</a>
</g>
</g>
<!-- Node11&#45;&gt;Node6 -->
<g id="edge13_Node000011_Node000006" class="edge">
<title>Node11&#45;&gt;Node6</title>
<g id="a_edge13_Node000011_Node000006"><a xlink:title=" ">
<path fill="none" stroke="#63b8ff" d="M276.65,-109.75C277.96,-102.8 279.84,-92.85 281.48,-84.13"/>
<polygon fill="#63b8ff" stroke="#63b8ff" points="284.96,-84.56 283.38,-74.09 278.09,-83.27 284.96,-84.56"/>
</a>
</g>
</g>
</g>
</svg>
