<?xml version="1.0" encoding="UTF-8" standalone="no"?>
<!DOCTYPE svg PUBLIC "-//W3C//DTD SVG 1.1//EN"
 "http://www.w3.org/Graphics/SVG/1.1/DTD/svg11.dtd">
<!-- Generated by graphviz version 2.43.0 (0)
 -->
<!-- Title: VL53L0X&#45;RP2040&#45;RP2350/main.cpp Pages: 1 -->
<svg width="428pt" height="258pt"
 viewBox="0.00 0.00 428.00 258.00" xmlns="http://www.w3.org/2000/svg" xmlns:xlink="http://www.w3.org/1999/xlink">
<g id="graph0" class="graph" transform="scale(1 1) rotate(0) translate(4 254)">
<title>VL53L0X&#45;RP2040&#45;RP2350/main.cpp</title>
<!-- Node1 -->
<g id="Node000001" class="node">
<title>Node1</title>
<g id="a_Node000001"><a xlink:title=" ">
<polygon fill="#999999" stroke="#666666" points="281.5,-250 142.5,-250 142.5,-220 281.5,-220 281.5,-250"/>
<text text-anchor="start" x="150.5" y="-238" font-family="Helvetica,sans-Serif" font-size="10.00">VL53L0X&#45;RP2040&#45;RP2350</text>
<text text-anchor="middle" x="212" y="-227" font-family="Helvetica,sans-Serif" font-size="10.00">/main.cpp</text>
</a>
</g>
</g>
<!-- Node2 -->
<g id="Node000002" class="node">
<title>Node2</title>
<g id="a_Node000002"><a xlink:title=" ">
<polygon fill="#e0e0e0" stroke="#999999" points="135,-184 85,-184 85,-165 135,-165 135,-184"/>
<text text-anchor="middle" x="110" y="-172" font-family="Helvetica,sans-Serif" font-size="10.00">stdio.h</text>
</a>
</g>
</g>
<!-- Node1&#45;&gt;Node2 -->
<g id="edge1_Node000001_Node000002" class="edge">
<title>Node1&#45;&gt;Node2</title>
<g id="a_edge1_Node000001_Node000002"><a xlink:title=" ">
<path fill="none" stroke="#63b8ff" d="M187.57,-219.99C171.31,-210.66 150.05,-198.47 133.9,-189.21"/>
<polygon fill="#63b8ff" stroke="#63b8ff" points="135.48,-186.08 125.06,-184.14 132,-192.15 135.48,-186.08"/>
</a>
</g>
</g>
<!-- Node3 -->
<g id="Node000003" class="node">
<title>Node3</title>
<g id="a_Node000003"><a xlink:href="stdlib_8h.html" target="_top" xlink:title=" ">
<polygon fill="white" stroke="#666666" points="76,-129 0,-129 0,-110 76,-110 76,-129"/>
<text text-anchor="middle" x="38" y="-117" font-family="Helvetica,sans-Serif" font-size="10.00">pico/stdlib.h</text>
</a>
</g>
</g>
<!-- Node1&#45;&gt;Node3 -->
<g id="edge2_Node000001_Node000003" class="edge">
<title>Node1&#45;&gt;Node3</title>
<g id="a_edge2_Node000001_Node000003"><a xlink:title=" ">
<path fill="none" stroke="#63b8ff" d="M201.04,-219.94C188.59,-204.72 166.98,-180.56 144,-165 123.17,-150.9 97.16,-139.9 76.11,-132.36"/>
<polygon fill="#63b8ff" stroke="#63b8ff" points="77.12,-129 66.53,-129.04 74.83,-135.62 77.12,-129"/>
</a>
</g>
</g>
<!-- Node8 -->
<g id="Node000008" class="node">
<title>Node8</title>
<g id="a_Node000008"><a xlink:title=" ">
<polygon fill="#e0e0e0" stroke="#999999" points="420,-184 316,-184 316,-165 420,-165 420,-184"/>
<text text-anchor="middle" x="368" y="-172" font-family="Helvetica,sans-Serif" font-size="10.00">pico/binary_info.h</text>
</a>
</g>
</g>
<!-- Node1&#45;&gt;Node8 -->
<g id="edge7_Node000001_Node000008" class="edge">
<title>Node1&#45;&gt;Node8</title>
<g id="a_edge7_Node000001_Node000008"><a xlink:title=" ">
<path fill="none" stroke="#63b8ff" d="M249.37,-219.99C275.63,-210.14 310.41,-197.1 335.52,-187.68"/>
<polygon fill="#63b8ff" stroke="#63b8ff" points="336.83,-190.93 344.96,-184.14 334.37,-184.37 336.83,-190.93"/>
</a>
</g>
</g>
<!-- Node9 -->
<g id="Node000009" class="node">
<title>Node9</title>
<g id="a_Node000009"><a xlink:href="I2C_8h.html" target="_top" xlink:title="Interface C++ simples para o periférico I2C do RP2040/RP2350.">
<polygon fill="white" stroke="#666666" points="232.5,-184 191.5,-184 191.5,-165 232.5,-165 232.5,-184"/>
<text text-anchor="middle" x="212" y="-172" font-family="Helvetica,sans-Serif" font-size="10.00">I2C.h</text>
</a>
</g>
</g>
<!-- Node1&#45;&gt;Node9 -->
<g id="edge8_Node000001_Node000009" class="edge">
<title>Node1&#45;&gt;Node9</title>
<g id="a_edge8_Node000001_Node000009"><a xlink:title=" ">
<path fill="none" stroke="#63b8ff" d="M212,-219.84C212,-212.21 212,-202.7 212,-194.45"/>
<polygon fill="#63b8ff" stroke="#63b8ff" points="215.5,-194.27 212,-184.27 208.5,-194.27 215.5,-194.27"/>
</a>
</g>
</g>
<!-- Node11 -->
<g id="Node000011" class="node">
<title>Node11</title>
<g id="a_Node000011"><a xlink:href="VL53L0X_8h.html" target="_top" xlink:title="Interface C++ para o sensor de distância VL53L0X (Time&#45;of&#45;Flight) no RP2040.">
<polygon fill="white" stroke="#666666" points="385.5,-74 278.5,-74 278.5,-55 385.5,-55 385.5,-74"/>
<text text-anchor="middle" x="332" y="-62" font-family="Helvetica,sans-Serif" font-size="10.00">vl53l0x/VL53L0X.h</text>
</a>
</g>
</g>
<!-- Node1&#45;&gt;Node11 -->
<g id="edge14_Node000001_Node000011" class="edge">
<title>Node1&#45;&gt;Node11</title>
<g id="a_edge14_Node000001_Node000011"><a xlink:title=" ">
<path fill="none" stroke="#63b8ff" d="M222.02,-219.92C243.96,-189.12 296.14,-115.85 319.87,-82.53"/>
<polygon fill="#63b8ff" stroke="#63b8ff" points="322.81,-84.43 325.77,-74.25 317.11,-80.37 322.81,-84.43"/>
</a>
</g>
</g>
<!-- Node4 -->
<g id="Node000004" class="node">
<title>Node4</title>
<g id="a_Node000004"><a xlink:href="pico__sdk__stubs_8h.html" target="_top" xlink:title=" ">
<polygon fill="white" stroke="#666666" points="183.5,-74 74.5,-74 74.5,-55 183.5,-55 183.5,-74"/>
<text text-anchor="middle" x="129" y="-62" font-family="Helvetica,sans-Serif" font-size="10.00">../pico_sdk_stubs.h</text>
</a>
</g>
</g>
<!-- Node3&#45;&gt;Node4 -->
<g id="edge3_Node000003_Node000004" class="edge">
<title>Node3&#45;&gt;Node4</title>
<g id="a_edge3_Node000003_Node000004"><a xlink:title=" ">
<path fill="none" stroke="#63b8ff" d="M52.62,-109.98C66.86,-101.69 88.75,-88.94 105.45,-79.22"/>
<polygon fill="#63b8ff" stroke="#63b8ff" points="107.23,-82.23 114.11,-74.17 103.71,-76.18 107.23,-82.23"/>
</a>
</g>
</g>
<!-- Node5 -->
<g id="Node000005" class="node">
<title>Node5</title>
<g id="a_Node000005"><a xlink:title=" ">
<polygon fill="#e0e0e0" stroke="#999999" points="282,-19 232,-19 232,0 282,0 282,-19"/>
<text text-anchor="middle" x="257" y="-7" font-family="Helvetica,sans-Serif" font-size="10.00">cstdint</text>
</a>
</g>
</g>
<!-- Node4&#45;&gt;Node5 -->
<g id="edge4_Node000004_Node000005" class="edge">
<title>Node4&#45;&gt;Node5</title>
<g id="a_edge4_Node000004_Node000005"><a xlink:title=" ">
<path fill="none" stroke="#63b8ff" d="M149.57,-54.98C170.43,-46.34 202.97,-32.87 226.77,-23.02"/>
<polygon fill="#63b8ff" stroke="#63b8ff" points="228.16,-26.23 236.06,-19.17 225.48,-19.76 228.16,-26.23"/>
</a>
</g>
</g>
<!-- Node6 -->
<g id="Node000006" class="node">
<title>Node6</title>
<g id="a_Node000006"><a xlink:title=" ">
<polygon fill="#e0e0e0" stroke="#999999" points="213.5,-19 160.5,-19 160.5,0 213.5,0 213.5,-19"/>
<text text-anchor="middle" x="187" y="-7" font-family="Helvetica,sans-Serif" font-size="10.00">cstddef</text>
</a>
</g>
</g>
<!-- Node4&#45;&gt;Node6 -->
<g id="edge5_Node000004_Node000006" class="edge">
<title>Node4&#45;&gt;Node6</title>
<g id="a_edge5_Node000004_Node000006"><a xlink:title=" ">
<path fill="none" stroke="#63b8ff" d="M138.32,-54.98C146.81,-47.23 159.56,-35.58 169.88,-26.14"/>
<polygon fill="#63b8ff" stroke="#63b8ff" points="172.49,-28.5 177.51,-19.17 167.77,-23.33 172.49,-28.5"/>
</a>
</g>
</g>
<!-- Node7 -->
<g id="Node000007" class="node">
<title>Node7</title>
<g id="a_Node000007"><a xlink:title=" ">
<polygon fill="#e0e0e0" stroke="#999999" points="142,-19 104,-19 104,0 142,0 142,-19"/>
<text text-anchor="middle" x="123" y="-7" font-family="Helvetica,sans-Serif" font-size="10.00">map</text>
</a>
</g>
</g>
<!-- Node4&#45;&gt;Node7 -->
<g id="edge6_Node000004_Node000007" class="edge">
<title>Node4&#45;&gt;Node7</title>
<g id="a_edge6_Node000004_Node000007"><a xlink:title=" ">
<path fill="none" stroke="#63b8ff" d="M128.01,-54.75C127.22,-47.8 126.1,-37.85 125.11,-29.13"/>
<polygon fill="#63b8ff" stroke="#63b8ff" points="128.58,-28.63 123.97,-19.09 121.62,-29.42 128.58,-28.63"/>
</a>
</g>
</g>
<!-- Node9&#45;&gt;Node3 -->
<g id="edge9_Node000009_Node000003" class="edge">
<title>Node9&#45;&gt;Node3</title>
<g id="a_edge9_Node000009_Node000003"><a xlink:title=" ">
<path fill="none" stroke="#63b8ff" d="M191.36,-167.21C163.01,-158.58 111.52,-142.89 76.07,-132.1"/>
<polygon fill="#63b8ff" stroke="#63b8ff" points="76.67,-128.62 66.09,-129.05 74.63,-135.32 76.67,-128.62"/>
</a>
</g>
</g>
<!-- Node9&#45;&gt;Node5 -->
<g id="edge13_Node000009_Node000005" class="edge">
<title>Node9&#45;&gt;Node5</title>
<g id="a_edge13_Node000009_Node000005"><a xlink:title=" ">
<path fill="none" stroke="#63b8ff" d="M214.42,-164.74C221.47,-139.2 242.11,-64.43 251.83,-29.23"/>
<polygon fill="#63b8ff" stroke="#63b8ff" points="255.28,-29.88 254.57,-19.31 248.53,-28.01 255.28,-29.88"/>
</a>
</g>
</g>
<!-- Node9&#45;&gt;Node6 -->
<g id="edge12_Node000009_Node000006" class="edge">
<title>Node9&#45;&gt;Node6</title>
<g id="a_edge12_Node000009_Node000006"><a xlink:title=" ">
<path fill="none" stroke="#63b8ff" d="M210.66,-164.74C206.74,-139.2 195.27,-64.43 189.87,-29.23"/>
<polygon fill="#63b8ff" stroke="#63b8ff" points="193.33,-28.66 188.35,-19.31 186.41,-29.72 193.33,-28.66"/>
</a>
</g>
</g>
<!-- Node10 -->
<g id="Node000010" class="node">
<title>Node10</title>
<g id="a_Node000010"><a xlink:href="i2c_8h.html" target="_top" xlink:title=" ">
<polygon fill="white" stroke="#666666" points="183.5,-129 94.5,-129 94.5,-110 183.5,-110 183.5,-129"/>
<text text-anchor="middle" x="139" y="-117" font-family="Helvetica,sans-Serif" font-size="10.00">hardware/i2c.h</text>
</a>
</g>
</g>
<!-- Node9&#45;&gt;Node10 -->
<g id="edge10_Node000009_Node000010" class="edge">
<title>Node9&#45;&gt;Node10</title>
<g id="a_edge10_Node000009_Node000010"><a xlink:title=" ">
<path fill="none" stroke="#63b8ff" d="M200.27,-164.98C189.27,-157 172.58,-144.88 159.4,-135.31"/>
<polygon fill="#63b8ff" stroke="#63b8ff" points="161.09,-132.21 150.94,-129.17 156.98,-137.88 161.09,-132.21"/>
</a>
</g>
</g>
<!-- Node10&#45;&gt;Node4 -->
<g id="edge11_Node000010_Node000004" class="edge">
<title>Node10&#45;&gt;Node4</title>
<g id="a_edge11_Node000010_Node000004"><a xlink:title=" ">
<path fill="none" stroke="#63b8ff" d="M137.35,-109.75C136.04,-102.8 134.16,-92.85 132.52,-84.13"/>
<polygon fill="#63b8ff" stroke="#63b8ff" points="135.91,-83.27 130.62,-74.09 129.04,-84.56 135.91,-83.27"/>
</a>
</g>
</g>
<!-- Node11&#45;&gt;Node5 -->
<g id="edge15_Node000011_Node000005" class="edge">
<title>Node11&#45;&gt;Node5</title>
<g id="a_edge15_Node000011_Node000005"><a xlink:title=" ">
<path fill="none" stroke="#63b8ff" d="M319.95,-54.98C308.54,-46.92 291.17,-34.65 277.57,-25.03"/>
<polygon fill="#63b8ff" stroke="#63b8ff" points="279.46,-22.08 269.27,-19.17 275.42,-27.8 279.46,-22.08"/>
</a>
</g>
</g>
</g>
</svg>
